<svg xmlns="http://www.w3.org/2000/svg" width="186" height="62" fill="none"><path fill="#011E41" fill-rule="evenodd" d="M20.192.065c-.547 1.626-3.307 10.085-3.307 10.14 0 .065 1.815 5.617 5.547 16.983.612 1.86 2.01 6.13 3.115 9.49l7.13 21.734 1.138 3.463h62.06v-4.527l-28.382-.027-28.378-.027-.672-2.045c-.372-1.124-1.809-5.509-3.197-9.736l-3.606-10.99c-.596-1.816-3.131-9.533-5.629-17.152C20.366.158 20.317 0 20.263 0c-.028 0-.06.033-.072.065Z" clip-rule="evenodd"/><path fill="#060" fill-rule="evenodd" d="M15.339 14.917c-.224.687-1.339 4.074-2.47 7.526l-3.607 10.99c-.852 2.596-2.475 7.537-3.606 10.99-1.131 3.446-2.536 7.717-3.115 9.49C.404 60.407 0 61.656 0 61.75c0 .087.164.098 2.514.109l2.519.016.191-.6c.11-.332 1.098-3.36 2.208-6.735 3.486-10.63 8.033-24.5 8.153-24.87.06-.197.125-.371.147-.393.017-.022 1.678 4.974 3.684 11.099 5.754 17.545 6.59 20.092 6.82 20.801l.223.67 2.536.012c1.557.01 2.535-.006 2.535-.033 0-.033-.59-1.86-1.317-4.063-.72-2.209-2.431-7.423-3.803-11.595-1.366-4.172-2.94-8.966-3.497-10.663-1.421-4.336-4.678-14.278-6.006-18.325-.617-1.876-1.125-3.436-1.136-3.463-.011-.033-.203.507-.432 1.2Z" clip-rule="evenodd"/><path fill="#011E41" fill-rule="evenodd" d="m43.345 29.68.016 2.253 2.284.016 2.279.011v-4.527h-4.59l.01 2.247ZM40.738 33.989c-.016.038-.022 1.042-.016 2.225l.016 2.154 1.3.017 1.296.01v12l-1.295.01-1.3.017v4.472l4.906.016 4.902.011-.011-2.247-.016-2.252-1.295-.017-1.301-.01-.011-8.225-.016-8.22-3.569-.016c-2.825-.01-3.574 0-3.59.055ZM79.946 29.697v2.263h2.732v18.434h-2.732v4.527h10.219v-4.526h-2.623V27.433h-7.596v2.264Z" clip-rule="evenodd"/><path fill="#011E41" d="M102.684 32.947c-2.7.218-5.421 1.511-7.252 3.447-1.617 1.718-2.59 3.676-3.01 6.065-.132.78-.132 2.667.005 3.485a11.42 11.42 0 0 0 3.17 6.223c1.611 1.62 3.688 2.705 6.016 3.142.754.141 2.377.196 3.191.109 2.541-.279 4.956-1.418 6.743-3.19.596-.59.984-1.059 1.481-1.8.355-.519 1.028-1.817 1.099-2.122l.038-.148h-5.448l-.416.453c-1.874 2.034-4.797 2.607-7.366 1.45-.891-.403-1.945-1.303-2.519-2.148-.246-.36-.71-1.254-.71-1.358 0-.016 3.808-.033 8.464-.033 4.661 0 8.481-.022 8.498-.043.071-.12.202-1.113.229-1.811a11.045 11.045 0 0 0-1.098-5.318c-.59-1.243-1.252-2.181-2.186-3.108a11.344 11.344 0 0 0-8.929-3.295Zm1.852 5.143c.94.142 1.957.54 2.76 1.086.448.305 1.257 1.129 1.574 1.609.273.403.71 1.287.776 1.549l.038.152H97.591l.033-.125c.022-.066.13-.327.24-.584 1.115-2.558 3.907-4.101 6.672-3.687Z"/><path fill="#011E41" fill-rule="evenodd" d="M65.59 33.934c-1.639.153-3.147.879-4.327 2.084a9.219 9.219 0 0 1-.475.469c-.011 0-.022-.578-.022-1.282v-1.281h-7.541v4.581h2.732v11.89h-2.732v4.526h10.164v-4.526h-2.623v-3.616c0-1.986.027-3.846.054-4.129.153-1.587 1.044-2.896 2.432-3.578.683-.338 1.224-.463 1.967-.463 2.088-.011 3.765 1.276 4.361 3.332.115.398.115.502.136 4.428l.017 4.026h-1.36c-1.088 0-1.378.016-1.427.076-.044.049-.055.687-.05 2.247l.017 2.176 5.18.017 5.176.01v-4.526h-2.623V46.56c0-2.334-.022-4.068-.06-4.434-.214-2.192-1.126-4.101-2.7-5.666-1.896-1.893-4.005-2.744-6.295-2.526ZM116.34 36.187v2.263h2.394l.218.53c.12.294 1.131 2.78 2.252 5.524 1.12 2.744 2.41 5.918 2.874 7.052.464 1.135.841 2.1.841 2.144 0 .049-.322.878-.715 1.854l-.716 1.767h-3.049v4.581l5.726-.01 5.722-.017v-4.527l-1.607-.016c-1.246-.01-1.595-.027-1.574-.082.126-.31 7.159-17.622 7.372-18.134l.273-.666h2.175v-4.526h-9.836v4.526h2.454l-.946 2.33c-.519 1.286-1.322 3.26-1.781 4.395-.459 1.135-.853 2.045-.88 2.018-.022-.022-.841-1.996-1.814-4.38l-1.771-4.335 1.274-.017 1.278-.01v-4.527H116.34v2.263ZM98.323 57.294c-.748.202-1.388.774-1.64 1.467a2.391 2.391 0 0 0 .957 2.836c.7.442 1.749.474 2.394.082.224-.137.24-.131.24.06v.169l.426-.017.421-.016.016-1.298.011-1.292-1.24.01-1.246.017v.818l.672.016c.738.017.776.038.53.328-.311.365-.994.523-1.448.327-1.038-.442-1.082-1.877-.076-2.367a1.293 1.293 0 0 1 1.278.076c.273.17.295.175.907.175h.623V57.32h-.874v.322l-.235-.131a2.381 2.381 0 0 0-1.716-.218Z" clip-rule="evenodd"/><path fill="#011E41" d="M101.749 57.785v.463h.438v2.667l-.203.017-.207.016-.017.474-.016.48h1.863v-.981h-.164c-.163 0-.163-.006-.163-.3 0-.47.109-.41.836.49l.644.792h.924v-.982h-.24c-.224 0-.246-.017-.498-.333-.24-.305-.257-.338-.164-.387.219-.126.503-.431.623-.671.383-.764.049-1.724-.716-2.094-.229-.11-.327-.115-1.59-.115h-1.35v.464Zm2.339.54c.192.098.306.31.301.545-.011.404-.235.584-.738.595l-.344.01-.016-.616-.017-.61h.333c.186 0 .399.032.481.076ZM107.777 57.321c-.629.147-1.23.638-1.53 1.238-.181.366-.208.464-.224.916-.033.764.191 1.331.716 1.811.519.475.972.638 1.699.605.415-.016.557-.049.869-.19 1.934-.906 1.738-3.698-.306-4.336-.328-.099-.902-.12-1.224-.044Zm1.022 1.205c.328.148.431.246.579.568.492 1.047-.59 2.05-1.623 1.51-.235-.12-.322-.207-.443-.441-.53-1.01.459-2.1 1.487-1.637Z"/><path fill="#011E41" fill-rule="evenodd" d="M111.241 57.36c-.021.016-.038.228-.038.463v.425h.372l.022 1.19.016 1.188.18.36c.203.41.399.6.825.797.689.316 1.574.076 2.033-.551.279-.382.323-.65.323-1.871v-1.107l.207-.017.203-.016v-.873l-.94-.016-.946-.01v.926h.437v1.042c0 1.156-.043 1.347-.333 1.494-.268.142-.53.104-.738-.103l-.185-.186v-2.247h.382v-.927h-.891c-.491 0-.912.017-.929.038Z" clip-rule="evenodd"/><path fill="#011E41" d="M116.012 57.78v.463l.208.016.202.017.016 1.32.011 1.32-.202.016-.208.016-.016.474-.017.48h1.979l-.017-.48-.016-.474-.175-.016c-.175-.017-.18-.028-.18-.262v-.24h.213c.344 0 1.038-.153 1.224-.267.841-.518.989-1.702.306-2.405-.405-.415-.497-.437-2-.437h-1.328v.458Zm2.492.654c.142.142.186.229.186.382 0 .436-.263.654-.793.66h-.273l-.016-.617-.017-.61h.366c.339 0 .372.01.547.185Z"/><path fill="#011E41" fill-rule="evenodd" d="M145.962 33.936c-.755.131-1.358.7-1.673 1.584-.269.76-.249 2.055.046 2.828.433 1.158 1.62 1.754 2.69 1.354.472-.176.813-.51 1.049-1.014.328-.714.328-.7-.197-.897l-.465-.176-.066.248c-.21.792-.879 1.159-1.509.838-.446-.23-.656-.687-.702-1.545-.085-1.472.328-2.238 1.201-2.238.42 0 .702.203.892.642.072.157.164.274.203.255.046-.013.236-.066.433-.118.19-.046.361-.124.381-.17.046-.125-.092-.498-.315-.825-.243-.366-.696-.674-1.063-.733-.551-.078-.61-.085-.905-.033Z" clip-rule="evenodd"/><path fill="#011E41" d="M150.711 33.936c-.728.105-1.246.517-1.601 1.27-.236.51-.321.95-.321 1.702.007 1.832.872 2.919 2.329 2.919 1.535 0 2.394-1.165 2.309-3.142-.033-.877-.144-1.263-.492-1.806-.479-.74-1.279-1.073-2.224-.943Zm1.037 1.133c.485.327.669.805.669 1.78.006.766-.125 1.23-.433 1.577-.263.308-.499.419-.866.419-.538 0-.971-.36-1.188-.995-.131-.4-.157-1.433-.039-1.852.112-.4.426-.844.676-.969.334-.163.905-.144 1.181.04Z"/><path fill="#011E41" fill-rule="evenodd" d="M160.019 33.943c-.452.079-.669.196-.951.517-.61.713-.446 1.93.328 2.422.164.104.63.3 1.023.431.801.269 1.03.432 1.03.747 0 .477-.374.785-.951.785-.518 0-.879-.282-1.017-.798l-.072-.256-.406.046c-.224.02-.433.066-.466.098-.085.079.124.792.321 1.106.341.544.84.78 1.647.786.911 0 1.39-.256 1.725-.923.308-.615.275-1.375-.079-1.898-.229-.34-.603-.556-1.423-.818-1.037-.334-1.306-.615-.978-1.028.263-.34.906-.392 1.266-.104a.87.87 0 0 1 .243.392c.072.236.098.255.315.255.131 0 .348-.02.485-.045l.25-.04-.04-.268c-.164-1.034-1.069-1.597-2.25-1.407ZM183.385 33.936c-.977.144-1.686.95-1.909 2.186-.223 1.237.112 2.48.853 3.161.774.714 2.171.727 3.194.033l.361-.242.02-1.23.013-1.23-1.03.019-1.036.02-.02.47-.02.478h1.122v.38c0 .445-.059.517-.551.74-.827.36-1.601-.079-1.85-1.054-.131-.53-.098-1.538.066-1.93.236-.55.629-.819 1.207-.819.479 0 .761.17.957.57.079.157.184.274.25.28.223.008.787-.156.82-.241.072-.177-.21-.773-.512-1.074-.433-.438-1.154-.628-1.935-.517ZM154.05 36.862l.02 2.866.439.02.446.02.013-1.885.02-1.885.971 1.878.971 1.885h.977v-5.76h-.918v3.83l-.997-1.918-.991-1.911h-.964l.013 2.86ZM163.102 36.24c.02 2.173.027 2.258.171 2.579.19.419.551.779.925.91.374.13 1.272.13 1.659 0 .342-.118.663-.413.853-.773.184-.366.249-1.139.249-3.174v-1.78h-.97l-.027 2.107c-.026 2.29-.032 2.363-.4 2.631-.229.17-.813.177-1.056.013-.387-.248-.4-.34-.42-2.644l-.019-2.107h-.991l.026 2.238ZM170.895 34.493v.49h1.443v4.778h.984v-4.778h1.45l-.02-.477-.019-.471-1.916-.02-1.922-.013v.49ZM175.159 36.882v2.88h.984v-5.76h-.984v2.88ZM176.865 36.882v2.88h.918l.013-1.866.02-1.865.964 1.852.958 1.845.997.04v-5.766h-.919l-.013 1.891-.019 1.898-.984-1.898-.984-1.891h-.951v2.88ZM167.812 36.914v2.847h3.411v-.982h-2.427v-4.712h-.984v2.847ZM154.978 44.954c-.695.105-1.266.536-1.62 1.237-.676 1.315-.381 3.37.597 4.175.433.354.925.498 1.627.465.524-.02.656-.052 1.082-.262.269-.13.571-.314.676-.406l.177-.163v-2.363h-2.099v.982h1.121l-.019.406-.02.405-.321.197c-.44.275-1.004.307-1.385.091-.531-.307-.8-1.02-.774-2.029.033-1.138.499-1.754 1.339-1.754.544 0 .741.138 1.108.78.046.071.125.078.492.006.243-.046.453-.118.466-.157.046-.118-.144-.596-.361-.91-.374-.543-1.22-.825-2.086-.7ZM179.243 44.96c-.452.079-.669.197-.944.517-.669.78-.433 2.062.459 2.514.17.085.603.248.958.366.728.242.957.412.957.72 0 .478-.374.785-.951.785-.518 0-.879-.281-1.017-.798l-.072-.249-.439.04a3.265 3.265 0 0 0-.473.071c-.059.053.21.91.361 1.146.354.53.853.765 1.647.772.879 0 1.358-.242 1.692-.85.328-.596.309-1.447-.046-1.97-.229-.341-.603-.55-1.423-.819-1.037-.334-1.306-.615-.978-1.027.263-.34.906-.393 1.266-.105a.87.87 0 0 1 .237.393c.065.242.085.255.315.255.131 0 .354-.02.491-.046l.25-.04-.046-.267c-.171-1.041-1.056-1.598-2.244-1.408ZM144.134 47.899v2.88h3.674v-.982h-2.69v-1.57h2.427v-.983h-2.427v-1.243h2.631l-.02-.478-.02-.471-1.784-.02-1.791-.013v2.88ZM148.464 47.899v2.886l.446-.02.439-.02.033-1.825.033-1.833.912 1.767c.498.97.938 1.8.977 1.84.04.052.23.085.512.085h.453v-5.76h-.853l-.013 1.911-.02 1.918-.991-1.898-.99-1.898-.466-.02-.472-.02V47.9ZM158.185 47.88l.02 2.866.479.02.472.02v-5.767h-.984l.013 2.86ZM159.944 47.899v2.886l.446-.02.439-.02.033-1.812.033-1.82 1.902 3.666h.951v-5.76h-.419c-.328 0-.427.026-.46.105-.026.066-.039.89-.039 1.846.006.949 0 1.74-.013 1.747-.013.013-.453-.805-.984-1.82l-.958-1.845-.466-.02-.465-.02V47.9ZM164.615 47.88l.019 2.866 1.824.02 1.817.013v-.982h-2.69v-1.57h2.428v-.983h-2.428v-1.243h2.624v-.982h-3.608l.014 2.86ZM168.93 47.899v2.88h3.674v-.982h-2.69v-1.57h2.428v-.983h-2.428v-1.243h2.624v-.982h-3.608v2.88Z" clip-rule="evenodd"/><path fill="#011E41" d="M173.26 47.899v2.88h.984v-2.442l.335.04c.183.026.406.085.492.144.131.085.518.7 1.233 1.944l.177.314h.551c.309 0 .558-.014.558-.033 0-.157-1.017-1.892-1.26-2.166l-.315-.334.296-.111c.347-.138.721-.53.826-.877.112-.38.053-1.172-.111-1.48a1.288 1.288 0 0 0-.938-.693c-.197-.033-.912-.066-1.588-.066h-1.24v2.88Zm2.762-1.708a.872.872 0 0 1 0 1.066c-.118.138-.177.151-.951.17l-.827.027v-1.466l.827.026c.774.02.833.026.951.177Z"/><path fill="#011E41" fill-rule="evenodd" d="M176.801 55.978c-.4.052-.878.307-1.055.57-.544.791-.354 1.884.426 2.395.137.091.576.268.97.399.531.177.767.288.904.432.203.222.217.3.086.615-.132.307-.453.49-.846.49-.583 0-.97-.3-1.068-.844-.046-.215-.046-.215-.341-.176a5.18 5.18 0 0 1-.459.04c-.157 0-.164.012-.125.32.079.635.472 1.217 1.003 1.485.387.19 1.593.184 1.96-.02.597-.32.911-.863.911-1.59.007-.405-.026-.556-.177-.864-.229-.464-.557-.693-1.409-.975-1.049-.347-1.193-.445-1.193-.818 0-.576 1.186-.733 1.508-.203.072.118.131.275.131.354 0 .13.032.15.249.15.131 0 .354-.02.491-.039.21-.04.243-.065.243-.222 0-.256-.171-.707-.361-.956-.327-.425-1.094-.648-1.848-.543Z" clip-rule="evenodd"/><path fill="#011E41" d="M144.139 58.91v2.893l.478-.02.472-.02.02-1.053.013-1.054.773-.04c.662-.039.813-.065 1.128-.222.308-.164.386-.242.57-.602.197-.373.216-.465.216-.975 0-.628-.131-1.008-.445-1.342-.354-.38-.459-.4-1.895-.425l-1.33-.026v2.886Zm2.268-1.793c.367.15.53.68.327 1.066-.183.36-.321.42-.99.459l-.622.032v-1.656h.524c.315 0 .623.04.761.099ZM153.754 56.083c-.019.032-.432 1.289-.924 2.794-.491 1.512-.904 2.762-.924 2.775-.02.02-.033-.164-.033-.4v-.438h-2.425v-4.712h-.983v5.694l2.241-.013 2.236-.02.052-.163c.026-.092.118-.38.19-.642l.144-.471h1.947l.21.654.216.655h.511c.282 0 .512-.02.512-.052 0-.027-.433-1.322-.957-2.88l-.964-2.827h-.511c-.282 0-.525.02-.538.046Zm.872 2.369c.151.484.289.916.308.968.026.066-.105.085-.636.085-.504 0-.662-.02-.642-.085.013-.039.157-.497.315-1.008.164-.517.308-.91.334-.883.026.026.17.438.321.923Z"/><path fill="#011E41" fill-rule="evenodd" d="M157.117 58.916v2.88h.853v-1.878c0-1.054.026-1.852.059-1.82.026.04.478.884.996 1.879l.937 1.819h.957v-5.76h-.917l-.014 1.872-.019 1.872-.964-1.858-.963-1.853-.459-.02-.466-.019v2.886ZM161.771 58.916v2.88h.918l.013-1.865.019-1.872 1.927 3.704.492.02.498.02v-5.766h-.917l-.014 1.891-.019 1.892-.983-1.892-.984-1.891h-.95v2.88ZM166.49 58.916v2.88h3.671v-.982h-2.688v-1.57h2.426v-.982h-2.426v-1.244h2.622v-.981h-3.605v2.88Z" clip-rule="evenodd"/><path fill="#011E41" d="M170.816 58.91v2.886h.984v-2.422h.157c.315 0 .564.085.727.25.092.09.427.614.741 1.164l.57 1.008h.544c.354 0 .538-.026.538-.072 0-.183-.977-1.878-1.245-2.16l-.295-.307.249-.079c1.114-.334 1.304-2.277.275-2.912l-.315-.197-1.468-.02-1.462-.025v2.886Zm2.681-1.721c.184.15.203.209.203.53 0 .307-.026.386-.19.55-.19.19-.203.19-.95.19h-.76v-1.44h.747c.714 0 .76.006.95.17Z"/></svg>