<?xml version="1.0" encoding="utf-8"?>
<!-- Generator: Adobe Illustrator 25.0.1, SVG Export Plug-In . SVG Version: 6.00 Build 0)  -->
<svg version="1.1" id="Layer_1" xmlns="http://www.w3.org/2000/svg" xmlns:xlink="http://www.w3.org/1999/xlink" x="0px" y="0px"
	 viewBox="0 0 149.6 85.1" style="enable-background:new 0 0 149.6 85.1;" xml:space="preserve">
<style type="text/css">
	.st0{fill:#272362;}
	.st1{fill:#CE312B;}
	.st2{fill:#F0A120;}
</style>
<g>
	<path class="st0" d="M11.9,43.3c4.9-5.6,10.5-13,23.2-16.3l-0.4-1.6c-4.3,0.5-11,2.3-13.3,4l3.5-4.2l11.7-14.4l2.6,34.5l9,0
		l-1.9-20.7L44.2,2L35,5.4l-4.6,5.3l-9.6,12.1l-3.3,4.1L2.5,45.4l7.7,0C10.2,45.4,10.7,44.6,11.9,43.3"/>
	<path class="st1" d="M77.9,81.8c-29.4,4.2-65.3-2.2-67.6-21.5c-1.3-10.8,7.3-20.2,19.4-27.2C14.5,40.5,5.8,51.7,6.9,61.9
		c1.8,16.9,31.6,25.5,66.4,21.6c16.3-1.8,34-8.1,44.6-14.3C107.9,74,91.7,79.8,77.9,81.8"/>
	<path class="st0" d="M90.2,26.7c-0.2,0.7-0.9,2.6-0.9,2.6l-2.1,6.3c-1.3,3.7-4.2,6.8-8.7,6.8c-2.8,0-4.2-2-3.3-4.5
		c2.6-5.8,9.6-8,11.7-8.5c-0.2-1-0.3-1.5-0.3-1.5c-9.2,1.5-19.2,7-20.7,11.1c-1.1,3.2,2.3,7.1,8.3,7.1c5.9,0,8.7-2.4,10.5-3.6l-1,3
		l8.9,0l5.9-17.2c0.5-1.5,1-3.6,1-4.6c0-1-0.7-2.6-0.7-2.6c-1.3-2-4.3-3.2-9.9-3.2c-11,0-16.1,3.9-18.2,8.8h10.5
		c1-2.8,1.6-5.7,6.6-5.7c3,0,3.4,1.7,3.2,2.7C91.1,24.1,90.4,26,90.2,26.7"/>
	<path class="st0" d="M102.1,20.2c4.2,0.5,4.6,1.2,6.4,4.3l4,7l-19,14h6.8l14.1-10.5l6.1,10.5l10.5,0.1L122.1,31L140,18.6h-7
		l-12.8,9l-5.2-9H106l-4.1,0.1L102.1,20.2z"/>
	<path class="st0" d="M36.2,69.9c0.1,0.1,0.7,0.2,1,0.2c7.2,0.4,13.9-5.6,16.1-9c1.9-3,2.9-6.2,5.1-12.4
		c1.8-4.8,11.1-31.5,11.1-31.5l-15.9,2.2l0.3,1.5c3.1-0.1,4.5,2.6,3,7.1c0,0-9.5,27-10.6,30C45.2,61.1,42.1,67.4,36.2,69.9"/>
	<path class="st0" d="M72.8,6.8c0.7-3.4-0.9-6.2-3.6-6.2c-2.7,0-5.5,2.7-6.2,6.1c-0.7,3.4,0.9,6.2,3.6,6.2
		C69.3,12.9,72.1,10.2,72.8,6.8"/>
	<path class="st2" d="M82.2,77C49,81.1,20.6,71.5,18.7,55.5c-1-8.5,5.7-17.1,17.1-23.9c-14.3,7.1-23.1,16.9-21.9,26.5
		c1.9,16,30.4,25.7,63.5,21.6c15.6-1.9,29.4-6.5,39.5-12.6C107.4,71.8,95.4,75.4,82.2,77"/>
	<path class="st0" d="M84.6,5.7h-0.4c0,0,0-0.1,0-0.2c0-0.1,0-0.5,0.1-1c0-0.2,0-0.3-0.2-0.4C83.9,4,83.7,4,83.3,4H82
		c0,0,0,0.1-0.1,0.2c0,0.1-0.1,0.2-0.1,0.2c0,0.2-0.1,0.4-0.2,0.8c-0.1,0.3-0.2,0.6-0.2,0.8c-0.1,0.2-0.1,0.5-0.2,0.8
		C81,7.2,81,7.5,80.9,7.7c-0.5,1.7-0.8,2.7-0.8,3.1c0,0.1,0,0.1,0,0.2c0,0.1,0,0.1,0.1,0.1c0.1,0.1,0.4,0.1,0.9,0.2
		c0.2,0,0.3,0.1,0.3,0.1l-0.1,0.3c-0.2,0-0.5,0-0.8,0c-0.4,0-0.7,0-1,0c-0.4,0-1.1,0-2,0.1l0.1-0.3c0,0,0,0,0.1,0c0,0,0,0,0.1,0
		c0,0,0.1,0,0.1,0c0,0,0.1,0,0.1,0c0.5-0.1,0.8-0.2,0.9-0.2c0.2-0.1,0.4-0.7,0.7-1.7c0-0.1,0.1-0.5,0.3-1.1c0-0.1,0.1-0.3,0.1-0.4
		c0-0.1,0.1-0.2,0.1-0.3l0.5-1.9c0.2-0.6,0.3-1.2,0.5-1.7h-1.4c-0.3,0-0.5,0-0.6,0c-0.1,0-0.3,0.1-0.3,0.2c-0.1,0.1-0.2,0.3-0.3,0.6
		l-0.4,0.8h-0.4c0.2-0.8,0.4-1.5,0.5-2.3c0.2,0,0.3,0,0.4,0c0.1,0,0.3,0,0.5,0c0.2,0,0.5,0,0.8,0c0.7,0,1.3,0,1.7,0
		c0.3,0,0.8,0,1.8,0l2,0c-0.2,0.5-0.3,0.9-0.3,1.1c0,0.2-0.1,0.4-0.2,0.7C84.6,5.4,84.6,5.6,84.6,5.7"/>
	<path class="st0" d="M84.4,9.8c0,0.3,0.1,0.7,0.2,1c0.1,0.3,0.4,0.5,0.8,0.5c0.4,0,0.7-0.2,1-0.5c0.3-0.3,0.5-0.7,0.7-1.2
		c0.2-0.5,0.3-1,0.3-1.5c0-0.3-0.1-0.7-0.2-1c-0.1-0.3-0.4-0.5-0.8-0.5c-0.4,0-0.7,0.2-1,0.5c-0.3,0.3-0.5,0.8-0.7,1.3
		C84.5,8.9,84.4,9.4,84.4,9.8 M83.4,9.9c0-0.5,0.1-1,0.3-1.5c0.2-0.5,0.5-0.9,0.8-1.2c0.3-0.3,0.7-0.6,1.1-0.8
		c0.4-0.2,0.8-0.3,1.1-0.3c0.4,0,0.7,0.1,0.9,0.4c0.2,0.2,0.4,0.5,0.4,0.8c0.1,0.3,0.1,0.6,0.1,0.8c0,0.5-0.1,1-0.3,1.4
		c-0.2,0.4-0.5,0.8-0.8,1.2c-0.3,0.3-0.7,0.6-1.1,0.8c-0.4,0.2-0.8,0.3-1.1,0.3c-0.5,0-0.9-0.2-1.1-0.6
		C83.6,10.8,83.4,10.4,83.4,9.9"/>
	<path class="st0" d="M89.1,7.7l-0.3-0.3c0.1-0.1,0.2-0.2,0.3-0.3c0.2-0.2,0.3-0.3,0.5-0.5c0.2-0.2,0.4-0.3,0.5-0.4
		c0.2-0.1,0.3-0.2,0.4-0.2c0.2,0,0.3,0.2,0.4,0.5C91,7,91.1,7.5,91.1,8c0,0.3,0,0.7,0,1c0,0.3,0,0.5,0,0.6l0,0.4l0,0
		c0.1-0.2,0.3-0.4,0.3-0.5c0.1-0.1,0.2-0.2,0.3-0.4c0.1-0.2,0.3-0.5,0.7-1c0.1-0.2,0.2-0.4,0.4-0.6c0.1-0.2,0.2-0.4,0.3-0.5
		c0.1-0.1,0.2-0.3,0.3-0.4c0.1-0.2,0.2-0.3,0.4-0.5H94l0,2.2c0,0.3,0,0.7,0,1.2c0,0.4,0,0.8,0,1.1l0,0c0.7-0.9,1.3-1.5,1.6-2
		c0.3-0.5,0.5-0.9,0.5-1.2c0-0.2,0-0.3-0.1-0.4c-0.1-0.1-0.2-0.1-0.3-0.1l-0.1-0.1c0.1-0.1,0.3-0.2,0.4-0.3c0.1-0.1,0.2-0.2,0.3-0.4
		c0.2,0,0.3,0.1,0.4,0.2c0.1,0.1,0.2,0.2,0.2,0.4c0,0.1,0.1,0.2,0.1,0.4c0,0.2-0.1,0.5-0.2,0.7c-0.1,0.2-0.3,0.5-0.4,0.8
		c-0.2,0.2-0.4,0.5-0.7,0.9c-0.3,0.4-0.6,0.7-0.9,1.1c-0.3,0.3-0.6,0.6-0.8,0.9c-0.2,0.3-0.4,0.4-0.4,0.4h-0.4l0.1-4.1l0,0
		c-0.3,0.4-0.6,0.9-1,1.6l-1.5,2.3c-0.1,0.1-0.2,0.2-0.2,0.3H90c0.1-1.1,0.2-2.2,0.2-3.3c0-0.4,0-0.7,0-1c0-0.3-0.1-0.5-0.2-0.5
		c-0.1,0-0.3,0.2-0.7,0.5C89.2,7.6,89.2,7.7,89.1,7.7"/>
	<path class="st0" d="M102.5,10.2l0.2,0.2c-0.4,0.4-0.8,0.7-1.1,0.9c-0.4,0.3-0.7,0.4-1,0.4c-0.1,0-0.2,0-0.3-0.1
		c-0.1-0.1-0.1-0.1-0.1-0.2c0-0.1,0-0.4,0.1-0.7c0.1-0.3,0.3-0.8,0.5-1.4c0.2-0.7,0.4-1.2,0.5-1.5c0.1-0.3,0.2-0.6,0.2-0.7
		c0-0.1,0-0.1-0.1-0.2c0,0-0.1-0.1-0.1-0.1c-0.1,0-0.2,0.1-0.4,0.2c-0.2,0.1-0.4,0.3-0.6,0.4c-0.2,0.2-0.4,0.4-0.7,0.7
		c-0.3,0.3-0.5,0.6-0.7,0.9c-0.2,0.3-0.3,0.5-0.4,0.8c-0.1,0.3-0.2,0.7-0.4,1.2c-0.1,0.2-0.1,0.4-0.1,0.5c-0.4,0-0.7,0-1,0.1
		c0.1-0.2,0.2-0.6,0.4-1.2c0-0.1,0.1-0.2,0.1-0.4c0.1-0.2,0.1-0.3,0.1-0.4c0.3-1,0.5-1.6,0.6-1.8c0.1-0.2,0.1-0.4,0.1-0.5
		c0-0.1,0-0.1-0.1-0.1c-0.1,0-0.2,0.1-0.4,0.2c-0.2,0.2-0.3,0.3-0.4,0.4l-0.2-0.3c0.2-0.3,0.5-0.5,0.7-0.6c0.2-0.2,0.4-0.3,0.6-0.4
		c0.2-0.1,0.4-0.2,0.5-0.3c0.1-0.1,0.2-0.1,0.3-0.1c0.1,0,0.1,0,0.2,0.1c0.1,0,0.1,0.1,0.1,0.2c0,0.2-0.1,0.6-0.3,1.1
		c-0.2,0.5-0.4,1-0.6,1.4l0,0c0.3-0.4,0.6-0.9,1-1.3c0.3-0.4,0.7-0.8,1.2-1.1c0.4-0.3,0.9-0.5,1.3-0.5c0.3,0,0.5,0.2,0.5,0.5
		c0,0.1,0,0.3-0.1,0.5c0,0.1-0.1,0.3-0.3,0.8c-0.2,0.5-0.3,0.9-0.3,1c-0.1,0.2-0.1,0.4-0.2,0.7c-0.1,0.3-0.2,0.5-0.2,0.6
		c0,0.1,0,0.2,0,0.3c0,0.1,0,0.2,0.1,0.2C101.8,10.8,102.1,10.6,102.5,10.2"/>
	<path class="st0" d="M107.2,9.8c0,0.3,0.1,0.7,0.2,1c0.1,0.3,0.4,0.5,0.8,0.5c0.4,0,0.7-0.2,1-0.5c0.3-0.3,0.5-0.7,0.7-1.2
		c0.2-0.5,0.3-1,0.3-1.5c0-0.3-0.1-0.7-0.2-1c-0.1-0.3-0.4-0.5-0.8-0.5c-0.4,0-0.7,0.2-1,0.5c-0.3,0.3-0.5,0.8-0.7,1.3
		C107.3,8.9,107.2,9.4,107.2,9.8 M106.2,9.9c0-0.5,0.1-1,0.3-1.5c0.2-0.5,0.5-0.9,0.8-1.2c0.3-0.3,0.7-0.6,1.1-0.8
		c0.4-0.2,0.8-0.3,1.1-0.3c0.4,0,0.7,0.1,0.9,0.4c0.2,0.2,0.4,0.5,0.4,0.8c0.1,0.3,0.1,0.6,0.1,0.8c0,0.5-0.1,1-0.3,1.4
		c-0.2,0.4-0.5,0.8-0.8,1.2c-0.3,0.3-0.7,0.6-1.1,0.8c-0.4,0.2-0.8,0.3-1.1,0.3c-0.5,0-0.9-0.2-1.1-0.6
		C106.4,10.8,106.2,10.4,106.2,9.9"/>
	<path class="st0" d="M112.1,6.8l0.1-0.3c0.3-0.1,0.6-0.2,0.9-0.3c0.1-0.5,0.3-0.9,0.4-1.2c0.1-0.3,0.2-0.5,0.4-0.7
		c0.1-0.2,0.3-0.4,0.6-0.6c0.6-0.5,1.1-0.7,1.7-0.7c0.2,0,0.4,0,0.6,0.1c0.2,0.1,0.3,0.1,0.5,0.2c-0.1,0.3-0.2,0.4-0.2,0.5
		c0,0.1-0.1,0.3-0.1,0.5l-0.3,0c0-0.2-0.1-0.4-0.2-0.6c-0.1-0.2-0.3-0.2-0.6-0.2c-0.2,0-0.4,0.1-0.5,0.2c-0.2,0.1-0.3,0.3-0.4,0.5
		c-0.1,0.2-0.2,0.4-0.3,0.7c-0.1,0.3-0.2,0.7-0.4,1.2c0,0,0,0.1-0.1,0.3c0.3,0,0.8,0,1.3,0l0.1,0.1c-0.1,0.2-0.2,0.3-0.3,0.5
		c-0.3,0-0.7,0-1.2,0c-0.3,1.1-0.5,1.9-0.7,2.5c-0.2,0.8-0.4,1.4-0.5,1.9c-0.2,0.5-0.3,1-0.5,1.3c-0.1,0.3-0.3,0.5-0.4,0.7
		c-0.2,0.2-0.4,0.4-0.6,0.5c-0.4,0.3-0.8,0.5-1.2,0.5c-0.2,0-0.3,0-0.5-0.1c-0.1,0-0.3-0.1-0.4-0.2c0.1-0.2,0.2-0.3,0.3-0.4
		c0.1-0.1,0.1-0.2,0.2-0.4h0.1c0.1,0.1,0.2,0.3,0.3,0.3c0.1,0.1,0.3,0.1,0.5,0.1c0.3,0,0.6-0.2,0.7-0.5c0.2-0.3,0.4-0.8,0.6-1.6
		c0.1-0.3,0.2-0.6,0.3-1.1c0.1-0.5,0.4-1.6,0.8-3.3c0,0,0-0.1,0-0.2c0-0.1,0-0.2,0.1-0.2C112.7,6.8,112.4,6.8,112.1,6.8"/>
	<path class="st0" d="M65,57.8c2.5,0,4.3-0.9,4.3-2.6c0-1.4-1-1.9-3-1.9h-0.2L65,57.8z M63.6,63.6c1.6,0,3.3-0.2,4.1-0.7
		c0.6-0.4,1.1-1,1.1-2c0-1.5-1.1-2.4-3.9-2.3C64.4,60.2,64,61.8,63.6,63.6 M63.3,52.7c0.8-0.1,2.7-0.2,3.8-0.2c2.2,0,4,0.6,4,2.6
		c0,1.8-1.6,2.7-3.4,2.9l0,0.1c1.9,0.3,3,1.2,3,2.8c0,2.3-2.2,3.6-6.1,3.5c-1.5,0-3,0-4.2-0.1l0.2-0.6l1.5-0.4
		c0.1-0.2,0.5-1.7,1.1-4.1l1.4-5.7L63,53.3L63.3,52.7z"/>
	<path class="st0" d="M72,58.9c0.7-2.2,1.7-2.6,2.2-2.7c0.5,0,1,0.4,1.3,1.9c0.3,1.4,0.4,3,0.4,4.9H76c0.9-1.4,2-4.2,2-5.4l-0.6-0.8
		l0.1-0.2c0.4-0.2,1.1-0.4,1.6-0.4c0.1,0,0.3,0.1,0.2,0.2c-0.2,1.1-0.5,2.1-1.1,3.5c-1,2.4-2.2,4.4-3.3,5.8c-1.6,2.1-3,2.9-3.3,2.9
		c-0.2,0-0.9-0.4-1.1-1.7l0.1-0.2c0.5,0,1.1,0.2,1.7,0.4c0.1,0,0.9-0.6,1.5-1.4c0.5-0.7,0.8-1.4,0.8-2.7c0-1.8-0.3-3.9-0.7-4.9
		c-0.2-0.4-0.2-0.5-0.4-0.5c-0.2,0-0.7,0.7-1.1,1.8L72,58.9z"/>
	<path class="st0" d="M88.8,53.8l0.1,0.1l-0.8,2.6h2.3L90,57.2l-2.1,0.2c-0.4,1.3-1.2,4.4-1.6,6.1l0,0c1-0.2,2.2-1,3.1-2.1l0.1,0.5
		c-0.9,2.4-2.9,2.7-3.6,2.7c-0.7,0-1.2-0.3-1-1.5c0.2-0.8,1.1-4.3,1.5-5.7L85,57.2l0.4-0.7h1.3l0.5-1.8L88.8,53.8z"/>
	<path class="st0" d="M90.4,64.5c0.4-1.5,0.9-3.3,1.6-6.3c0.7-3,1.1-4.5,1.2-5.2l-1.3-0.2l0.2-0.5c0.7-0.3,2.3-0.6,2.8-0.6l0,0
		c-0.2,0.7-0.8,2.8-2.3,8.7h0.1c1.2-1.8,2.6-3.4,4-4c0.4-0.1,0.9-0.3,1.3-0.3c0.6,0,0.8,0.1,0.5,1c-0.7,2.4-1.4,4.9-1.5,5.9l1.6-0.3
		l-0.3,0.7c-0.9,0.3-2.6,0.9-3.1,1.1l-0.2-0.1c0.1-0.5,1.6-5.5,1.9-6.8c0.1-0.3,0-0.4-0.2-0.4c-1,0-2.9,2.2-3.8,3.7
		c-0.6,1.1-0.9,1.9-1.4,3.3L90.4,64.5z"/>
	<path class="st0" d="M104.7,57c-1,0-2.2,1.3-2.7,3.2c0.8-0.2,2.9-0.7,3.3-1.4c0.2-0.2,0.2-0.5,0.2-0.9
		C105.5,57.3,105.1,57,104.7,57L104.7,57z M106.4,62.3c-0.9,1.4-2.3,2.3-3.8,2.3c-1.2,0-2.4-0.6-2.5-2.7c0-2.4,2-5.6,4.8-5.6
		c1.2,0,1.9,0.8,1.9,1.8c0,0.5-0.2,1-0.6,1.3c-0.7,0.7-3.4,1.4-4.5,1.6c-0.1,0.3-0.1,0.5-0.1,0.8c0,0.9,0.4,1.8,1.5,1.8
		c1.2,0,2.5-1.1,3.1-1.9h0.1L106.4,62.3z"/>
	<path class="st0" d="M114.4,52.6c0.7,0,1.3,0,2,0c0.8,0,1.6,0,2.4,0l-0.3,0.6l-1.3,0.4l-1.1,4.5c-0.7,2.9-1.2,5.1-1.2,5.2l3.5,0.1
		c0.7-0.7,1.8-1.9,2.4-2.4l0.4,0.1c-0.3,0.7-1,2.4-1.3,3.1c-0.6,0-1.6-0.1-5.9-0.1h-2.3l0.2-0.5l1.4-0.5c0.1-0.2,0.6-2.3,1.3-5.1
		l1.2-4.6l-1.4-0.5L114.4,52.6z"/>
	<path class="st0" d="M124.1,63.5c0.6,0,1.9-0.9,3.4-3.1c0.6-0.9,0.9-1.6,1.2-2.8c-0.2-0.2-0.4-0.3-0.8-0.3c-0.5,0-1.3,0.2-2.1,1.1
		c-1.4,1.4-2,3.3-2,4.4C123.7,63.3,123.9,63.5,124.1,63.5L124.1,63.5z M130.6,56.2l0.1,0.2l-0.7,0.9c-0.7,2.1-1.3,4.6-1.6,6l0.1,0
		c1-0.3,1.7-1.1,2.1-1.6l0.1,0.3c-0.1,1.1-1.5,2.6-3.3,2.6c-0.2,0-0.4,0-0.6-0.1c0.2-0.8,0.7-2.5,0.9-3.5h-0.1
		c-1.3,1.9-3,3.5-4.4,3.5c-0.9,0-1.3-0.7-1.3-1.8c0-1.3,0.8-3.7,2.9-5.3c1.1-0.8,2-1.1,2.7-1.1c0.6,0,0.9,0.2,1.2,0.4l0.1-0.4
		L130.6,56.2z"/>
	<path class="st0" d="M140.2,57c-1.3,0.3-1.5,0.4-1.9,0.6c-0.4,0.3-0.9,0.7-2.1,1.8v0c0.5,1,2.1,3.7,2.8,5.1l-0.2,0.2
		c-1-0.1-1.5-0.3-2.2-1.4c-0.7-1.1-1.8-3.1-1.9-3.4l0.1-0.1c0.9-0.8,1.5-1.4,2.7-2.5c0.4-0.4,0.4-0.4,0.6-1.1
		c0.4-0.1,2.2,0.1,2.6,0.2L140.2,57z M133.6,52.8l0.2-0.5c0.7-0.3,2.2-0.6,2.8-0.6l0,0c-0.5,1.6-2.2,7.7-3.4,12.5
		c-0.5,0.1-1,0.1-1.5,0.2c1.2-4,2.3-8.2,3.1-11.4L133.6,52.8z"/>
	<path class="st0" d="M144.9,57c-1,0-2.2,1.3-2.7,3.2c0.8-0.2,2.9-0.7,3.3-1.4c0.2-0.2,0.2-0.5,0.2-0.9
		C145.7,57.3,145.3,57,144.9,57L144.9,57z M146.7,62.3c-0.9,1.4-2.3,2.3-3.8,2.3c-1.2,0-2.4-0.6-2.5-2.7c0-2.4,2-5.6,4.8-5.6
		c1.2,0,1.9,0.8,1.9,1.8c0,0.5-0.2,1-0.6,1.3c-0.7,0.7-3.4,1.4-4.5,1.6c-0.1,0.3-0.1,0.5-0.1,0.8c0,0.9,0.4,1.8,1.5,1.8
		c1.2,0,2.5-1.1,3.1-1.9h0.1L146.7,62.3z"/>
</g>
</svg>
