<svg width="264" height="82" viewBox="0 0 264 82" fill="none" xmlns="http://www.w3.org/2000/svg">
<path d="M170.736 75.482C155.838 75.482 149.382 68.751 146.862 64.7408C143.979 60.0982 143.606 53.8133 143.606 48.8521V16.4029C143.606 16.0892 143.611 15.7754 143.616 15.4519C143.67 12.0692 143.724 8.87282 138.469 8.70614H136.797V6H163.736L163.755 8.72575L163.275 8.72084C161.265 8.70123 159.735 9.2356 158.647 10.3092C157.358 11.5888 156.701 13.638 156.701 16.4029V52.0974C156.701 64.1819 161.956 70.3099 172.32 70.3099C178.183 70.3099 183.115 68.5794 186.199 65.4369C191.184 60.2845 191.582 53.6074 191.582 45.4105V16.3049C191.582 12.0006 191.155 8.71104 185.762 8.71104H184.36V6H204.23V8.71104H203.391C199.411 8.71104 197.107 9.95135 197.107 16.3049V45.9057C197.111 65.8095 188.483 75.482 170.736 75.482Z" fill="#DC0D1D"/>
<path d="M237.439 74.0407H210.475V71.3443L210.931 71.3296C217.251 71.1482 217.574 69.1285 217.574 63.324V16.3637C217.574 10.3239 217.339 8.89243 211.196 8.71104L210.74 8.69633V6H238.248C254.499 6 263 15.5254 263 24.9331C263 35.6989 253.401 44.131 241.15 44.131L235.081 44.0428V39.2776C235.081 39.2776 237.38 39.2531 238.218 39.2531C245.758 39.2531 249.636 33.5516 249.636 25.0655C249.636 16.2264 243.969 10.2847 235.537 10.2847L230.115 10.27V64.4172C230.115 70.104 231.144 71.1335 236.988 71.3247L237.444 71.3394V74.0407H237.439Z" fill="#DC0D1D"/>
<path d="M138.542 74.0407H119.114L98.3277 42.4299V38.5717L98.7493 38.5276C106.039 37.7579 112.883 33.5614 112.883 24.085C112.883 16.1333 107.162 10.5838 98.9699 10.5838H93.3616V64.4172C93.3616 70.2805 96.053 70.8639 99.8573 71.0404L100.303 71.06V74.0358H73.9431V71.3002L74.3892 71.2757C80.1054 70.9571 80.9143 69.5255 80.9143 64.4123V15.6185C80.7035 9.57877 80.3309 8.80418 74.4088 8.71104L73.948 8.70614V6H102.343C113.172 6 125.82 10.7602 125.82 24.1831C125.82 32.1838 120.972 37.9246 111.402 41.2533L122.188 57.1764C123.364 58.9804 127.688 64.226 129.625 66.3635C133.316 70.3344 135.973 70.8835 137.733 71.2463L138.542 71.4179V74.0407Z" fill="#DC0D1D"/>
<path d="M69.2613 74.0407H43.5383V71.3836L43.9942 71.3689C47.1367 71.261 49.0829 70.5747 49.0829 67.5058C49.0829 66.1331 48.0093 63.4466 47.4308 62.0003L43.2491 51.9994H20.0165L15.7465 61.7258C14.3297 64.9369 13.9179 66.0988 13.9179 67.6038C13.9179 69.8148 13.9179 71.2757 19.0899 71.3689L19.5508 71.3787V74.0456H1V71.3836L1.46083 71.3738C5.13764 71.2904 7.04959 69.4226 9.64787 63.3779L34.812 6H37.3956L37.5181 6.28434L62.7558 65.7115C64.5746 70.1384 65.006 71.1875 68.8152 71.3443L69.2662 71.364V74.0407H69.2613ZM21.9235 47.396H41.3665L31.8607 24.3351L21.9235 47.396Z" fill="#DC0D1D"/>
</svg>
