<svg id="Group_1" data-name="Group 1" xmlns="http://www.w3.org/2000/svg" viewBox="0 0 225 62.267">
  <defs>
    <style>
      .cls-1 {
        fill: #e82012;
      }
    </style>
  </defs>
  <path id="Path_1" data-name="Path 1" class="cls-1" d="M210.265,60.8c-1.656,0-3.261.052-4.865.155h15.476c-1.6-.052-3.209-.1-4.865-.155h-5.745" transform="translate(-99.085 -29.33)"/>
  <path id="Path_2" data-name="Path 2" class="cls-1" d="M214.8,60.764h2.9a27.071,27.071,0,0,0-2.9,0" transform="translate(-103.62 -29.294)"/>
  <rect id="Rectangle_2" data-name="Rectangle 2" class="cls-1" width="221.377" height="0.466" transform="translate(0.466 57.298)"/>
  <path id="Path_3" data-name="Path 3" class="cls-1" d="M222.309,118.1H0v1.139H222.723V118.1Z" transform="translate(0 -56.972)"/>
  <path id="Path_4" data-name="Path 4" class="cls-1" d="M229.5,33.6Z" transform="translate(-110.711 -16.209)"/>
  <path id="Path_5" data-name="Path 5" class="cls-1" d="M229.552,33.6m-.052,0Z" transform="translate(-110.711 -16.209)"/>
  <path id="Path_6" data-name="Path 6" class="cls-1" d="M14.282,46.546a7.207,7.207,0,0,1,1.915.518,4.6,4.6,0,0,1,2.07,2.019,8.06,8.06,0,0,1,.725,3.727c0,2.329-.621,3.986-1.812,4.969a6.044,6.044,0,0,1-2.9,1.242v1.553a7.667,7.667,0,0,1,4.193,1.6q2.019,1.786,2.019,5.59c0,2.484-.569,4.348-1.76,5.59a6.893,6.893,0,0,1-4.451,1.812v1.087a28.055,28.055,0,0,0,4.969-.621,8.216,8.216,0,0,0,4.4-2.743,7.622,7.622,0,0,0,1.708-4.969,7.1,7.1,0,0,0-2.536-5.538c-1.708-1.449-4.244-2.329-7.764-2.64a12.938,12.938,0,0,0,6.47-2.433A6.091,6.091,0,0,0,23.651,52.5q0-6.289-9.472-7.143v1.19m-8.7-1.139-5.021.155V46.6h.569a7.145,7.145,0,0,1,3,.414,1.929,1.929,0,0,1,.88,1.5,31.091,31.091,0,0,1,.207,4.814V68.285A40.889,40.889,0,0,1,4.914,73.2a2.342,2.342,0,0,1-.983,1.553,5.43,5.43,0,0,1-2.692.518H.1v1.035H12.057c.776,0,1.5,0,2.174-.052V75.169a5.944,5.944,0,0,1-.983.052,4.073,4.073,0,0,1-2.692-.621,2.736,2.736,0,0,1-.88-1.76c-.1-.828-.155-2.64-.155-5.59V60.417c.569-.052,1.19-.052,1.708-.052a17.833,17.833,0,0,1,3,.207V59.02a19.29,19.29,0,0,1-3.727.311,6.281,6.281,0,0,1-.932-.052V46.39c.621,0,1.19-.052,1.76-.052a23.286,23.286,0,0,1,2.9.155V45.3a28.606,28.606,0,0,0-3.054-.1l-5.694.207" transform="translate(-0.048 -21.805)"/>
  <path id="Path_7" data-name="Path 7" class="cls-1" d="M68.221,82.9h.052v-.776h-.052Zm0-22.257a4.157,4.157,0,0,1,2.743,1.294,5.8,5.8,0,0,1,1.19,3.882,7.461,7.461,0,0,1-.311,2.329,4.214,4.214,0,0,1-.983,1.553,3.7,3.7,0,0,1-1.6.88,6.106,6.106,0,0,1-1.035.207v3.157c.776.932,1.5,1.915,2.174,2.9,2.226,3.261,3.934,5.28,5.021,6.056h6.159v-.776a6.336,6.336,0,0,1-3.52-1.139,25.062,25.062,0,0,1-4.089-4.607c-2.122-2.9-3.675-4.555-4.607-5.021a8.423,8.423,0,0,0,4.865-1.967,5.13,5.13,0,0,0,1.656-3.83,4.92,4.92,0,0,0-1.242-3.364,7.453,7.453,0,0,0-3.313-2.019,16.146,16.146,0,0,0-3.106-.518v.983m-7.453-.932-3.261.155v.776h.362a5.251,5.251,0,0,1,2.277.311,1.656,1.656,0,0,1,.673,1.087,24.77,24.77,0,0,1,.155,3.571V76.84a25.564,25.564,0,0,1-.155,3.675A1.693,1.693,0,0,1,60.1,81.7a3.757,3.757,0,0,1-2.019.362H57.3v.776H68.221v-.776H67.186a3.966,3.966,0,0,1-2.122-.414,1.832,1.832,0,0,1-.673-1.242,25.279,25.279,0,0,1-.155-3.571V71.767h.932a2.239,2.239,0,0,1,1.346.311,9.783,9.783,0,0,1,1.6,1.76l.052.1V70.784c-.414.052-.828.1-1.346.155-.88.052-1.76.1-2.64.1V60.483c.569-.052,1.035-.1,1.449-.1a16.551,16.551,0,0,1,2.484.207V59.6c-.673-.052-1.449-.1-2.277-.1-1.19.052-2.9.1-5.072.207" transform="translate(-27.642 -28.703)"/>
  <path id="Path_8" data-name="Path 8" class="cls-1" d="M114.959,63.9h0m-5.694,11.7c-.466,1.139-.776,1.812-.828,1.967a12.455,12.455,0,0,1-1.76,3.52,3.645,3.645,0,0,1-2.277,1.087v.776h6.832v-.776a2.89,2.89,0,0,1-1.812-.518,1.833,1.833,0,0,1-.673-1.553,16.2,16.2,0,0,1,1.294-4.141l.621-1.5h4.348v-.776h-4.089l4.037-9.783V61.877l-5.694,13.716M115.942,59.6l-.932,2.277v2.07l4.089,9.731h-4.089v.776h4.348l1.76,4.244a9.9,9.9,0,0,1,.776,2.226.957.957,0,0,1-.569.983,6.921,6.921,0,0,1-2.226.259v.776h9.006v-.776a3.338,3.338,0,0,1-1.76-.569,3.187,3.187,0,0,1-.983-1.294l-1.035-2.381L116.615,59.6h-.673" transform="translate(-50.363 -28.751)"/>
  <path id="Path_9" data-name="Path 9" class="cls-1" d="M201.655,60.252,201.5,65.79h.776a8.594,8.594,0,0,1,1.035-3.209,2.534,2.534,0,0,1,1.4-1.294,12.815,12.815,0,0,1,3-.207h3.416v16.2a25.565,25.565,0,0,1-.155,3.675,1.693,1.693,0,0,1-.725,1.19,3.757,3.757,0,0,1-2.019.362h-1.19v.776h11.439v-.776h-1.19a4.1,4.1,0,0,1-2.122-.414,1.832,1.832,0,0,1-.673-1.242,24.38,24.38,0,0,1-.155-3.52v-16.3h3.675a15.187,15.187,0,0,1,2.692.207,2.89,2.89,0,0,1,1.449,1.242,7.754,7.754,0,0,1,1.035,3.261h.725l-.1-5.538H201.655" transform="translate(-97.204 -29.041)"/>
  <path id="Path_10" data-name="Path 10" class="cls-1" d="M248.452,60.3v.776h.414a5.251,5.251,0,0,1,2.277.311,1.656,1.656,0,0,1,.673,1.087,24.771,24.771,0,0,1,.155,3.571V77.277a25.566,25.566,0,0,1-.155,3.675,1.693,1.693,0,0,1-.725,1.19,3.757,3.757,0,0,1-2.019.362H248.4v.776h10.663V82.5h-.776a3.966,3.966,0,0,1-2.122-.414,1.653,1.653,0,0,1-.673-1.242,25.279,25.279,0,0,1-.155-3.571V71.584h2.122a5.413,5.413,0,0,1,2.277.311,1.83,1.83,0,0,1,.88,1.19,7.215,7.215,0,0,1,.259,2.329h.828V67.288h-.828a4.229,4.229,0,0,1-.673,2.847,4.065,4.065,0,0,1-2.8.673h-2.122V61.076h4.5a10.481,10.481,0,0,1,3.054.311,3.377,3.377,0,0,1,1.708,1.553,6.324,6.324,0,0,1,1.035,3.106h.828l-.207-5.745H248.452" transform="translate(-119.829 -29.089)"/>
  <path id="Path_11" data-name="Path 11" class="cls-1" d="M299.271,59.4a12.6,12.6,0,0,0-8.851,3.209,10.981,10.981,0,0,0-3.52,8.54,11.731,11.731,0,0,0,3.468,8.8,12.442,12.442,0,0,0,8.954,3.313v-.828a7.8,7.8,0,0,1-6.366-2.8c-1.5-1.863-2.226-4.607-2.226-8.333,0-3.623.725-6.366,2.226-8.23a7.575,7.575,0,0,1,6.366-2.8h.052v-.828h-.1m.052.828a7.754,7.754,0,0,1,6.366,2.847c1.5,1.915,2.226,4.658,2.226,8.178,0,3.675-.776,6.418-2.277,8.282a7.4,7.4,0,0,1-6.108,2.8h-.207v.828A12.525,12.525,0,0,0,308.38,79.9a11.5,11.5,0,0,0,3.416-8.644,11.055,11.055,0,0,0-3.571-8.7,12.84,12.84,0,0,0-8.9-3.157v.88" transform="translate(-138.401 -28.655)"/>
  <path id="Path_12" data-name="Path 12" class="cls-1" d="M351.021,82.9h.052v-.776h-.052Zm0-22.257a4.157,4.157,0,0,1,2.743,1.294,5.8,5.8,0,0,1,1.19,3.882,6.117,6.117,0,0,1-.362,2.329,3.645,3.645,0,0,1-.983,1.553,3.7,3.7,0,0,1-1.6.88,6.106,6.106,0,0,1-1.035.207v3.157c.776.932,1.5,1.915,2.174,2.9,2.277,3.261,3.934,5.28,5.021,6.056h6.211v-.776a6.2,6.2,0,0,1-3.52-1.139,23.264,23.264,0,0,1-4.089-4.607c-2.122-2.9-3.675-4.555-4.607-5.021a8.423,8.423,0,0,0,4.865-1.967,4.95,4.95,0,0,0,1.656-3.83,4.731,4.731,0,0,0-1.294-3.364,7.178,7.178,0,0,0-3.313-2.019,16.276,16.276,0,0,0-3.054-.518v.983m-7.453-.932-3.313.155v.776h.414a5.251,5.251,0,0,1,2.277.311,1.656,1.656,0,0,1,.673,1.087,24.767,24.767,0,0,1,.155,3.571V76.84a25.566,25.566,0,0,1-.155,3.675,1.693,1.693,0,0,1-.725,1.19,3.878,3.878,0,0,1-2.019.362H340.1v.776h10.921v-.776h-1.035a3.751,3.751,0,0,1-2.07-.414,1.832,1.832,0,0,1-.673-1.242,25.279,25.279,0,0,1-.155-3.571V71.767h.932a2.349,2.349,0,0,1,1.346.311,9.782,9.782,0,0,1,1.6,1.76l.052.1V70.784c-.414.052-.88.1-1.346.155-.88.052-1.76.1-2.64.1V60.483c.518-.052,1.035-.1,1.449-.1a17.176,17.176,0,0,1,2.484.207V59.6c-.673-.052-1.449-.1-2.277-.1-1.19.052-2.95.1-5.124.207" transform="translate(-164.065 -28.703)"/>
  <path id="Path_13" data-name="Path 13" class="cls-1" d="M402.213,60.942l.518.155a7.2,7.2,0,0,1,3.106,1.967,9.724,9.724,0,0,1,2.174,3.727,16.224,16.224,0,0,1,.776,5.176,13.418,13.418,0,0,1-1.294,6.159,6.63,6.63,0,0,1-3.209,3.209,7.147,7.147,0,0,1-2.019.569v.932c.311-.052.621-.052.932-.1a11.391,11.391,0,0,0,3.364-.932,9.39,9.39,0,0,0,3.054-2.07,9.25,9.25,0,0,0,2.07-3.468,13.239,13.239,0,0,0,.776-4.607,13.026,13.026,0,0,0-1.4-6.159,10.467,10.467,0,0,0-4.244-4.244,14.8,14.8,0,0,0-4.555-1.346v1.035m-9.834-.932-3.778.207v.776h.673a6.849,6.849,0,0,1,2.277.259,1.656,1.656,0,0,1,.673,1.139,24.271,24.271,0,0,1,.155,3.571V77.04a25.566,25.566,0,0,1-.155,3.675,1.693,1.693,0,0,1-.725,1.19,3.877,3.877,0,0,1-2.019.362H388.6v.776h10.145c1.4,0,2.588-.052,3.468-.1v-.932a16.583,16.583,0,0,1-2.9.207,5.285,5.285,0,0,1-2.691-.414,1.863,1.863,0,0,1-.776-1.346,37.4,37.4,0,0,1-.155-4.4V60.632c.88-.052,1.76-.1,2.588-.1a16.481,16.481,0,0,1,3.882.362v-.983a23.3,23.3,0,0,0-3.416-.207c-1.035.052-3.157.1-6.315.311" transform="translate(-187.461 -28.799)"/>
  <path id="Path_14" data-name="Path 14" class="cls-1" d="M156.775.466C144.612,2.277,132.5,9.161,132.5,18.841c2.174,13.3,25.207,10.3,37.267,6.729,0-.414.052-.776.052-1.139a8.739,8.739,0,0,0-1.242.414c-11.077,2.226-24.017,6-31.418-2.743C130.9,11.439,144.3,3.571,157.6,1.656c18.789-1.76,40.631.569,51.5,13.3l1.656-.207a2.549,2.549,0,0,1-.311-.88,122.428,122.428,0,0,1,15.166-2.329,4,4,0,0,1,.1-.776c-2.743.1-2.743.1-4.607.259-.052,0-10.973,2.07-11.853,1.708C198.908,3.106,183.639,0,168.007,0c-3.727,0-7.505.155-11.232.466" transform="translate(-63.918)"/>
  <path id="Path_15" data-name="Path 15" class="cls-1" d="M103.973,55.811h-.155s.311.052.155,0m-46.17-5.9v.311l-.1.311.1.259h7.919c1.812.052,3.416.052,5.072.052h4.141c3.416.052,7.816,0,11.025,0H94.5q.854.7,1.863,1.4a20.377,20.377,0,0,0,2.07,1.346,23.621,23.621,0,0,0,2.277,1.242,10.638,10.638,0,0,0,3.157.932h.052c.207,0,.311.052.725.1h1.346c.259,0,.1-.1.1-.155a.962.962,0,0,0,0-.414c0-.1.1-.259-.1-.259-.207-.052-1.19-.052-1.708-.1a4.689,4.689,0,0,1-1.449-.311,11.97,11.97,0,0,1-2.329-1.087c-.673-.414-1.346-.828-1.967-1.242s-1.19-.88-1.76-1.346A18.508,18.508,0,0,1,95.329,49.6H57.7l.1.311" transform="translate(-27.835 -23.927)"/>
  <path id="Path_16" data-name="Path 16" class="cls-1" d="M167.518,60.3v.776a6.478,6.478,0,0,1,2.329.362,2.18,2.18,0,0,1,1.294.983,5.044,5.044,0,0,1,.311,2.122V78.261L157.891,60.3h-6.781v.776a7.165,7.165,0,0,1,2.381.259,1.788,1.788,0,0,1,.776,1.139,17.933,17.933,0,0,1,.207,3.571V78.209a13.032,13.032,0,0,1-.155,2.64c-.1.414-.466.725-1.035,1.035a6.644,6.644,0,0,1-2.484.621v.776h8.54V82.5a5.488,5.488,0,0,1-2.743-.518,2.194,2.194,0,0,1-1.139-1.139,9.622,9.622,0,0,1-.207-2.64V62.267l16.2,21.532h.725V64.751a8.708,8.708,0,0,1,.207-2.07,2.01,2.01,0,0,1,1.035-1.035,6.379,6.379,0,0,1,2.329-.569V60.3h-8.23" transform="translate(-72.746 -29.089)"/>
  <path id="Path_17" data-name="Path 17" class="cls-1" d="M234.137,26.284a2.321,2.321,0,0,0-.569-.052l-1.553.259-.207.207q-18.323,5.357-36.542,10.714a4.452,4.452,0,0,1-.828.052v-.88c12.164-3.52,24.224-7.195,36.491-10.663a1.062,1.062,0,0,0-.776-.88c-11.9,3-23.706,7.039-35.3,10.3.88-3.727,5.9-6.884,11.232-5.642,3.934,2.381,4.969-1.139-.414-1.915-8.644.362-12.267,4.348-12.94,10.248-2.743,1.346-9.317,2.433-12.526,3.209l-.1.259c1.139,0,2.277,0,3.364.052,4.037.052,7.919.155,11.957-1.035,7.609-2.484,35.041-11.9,38.147-11.9,4.762,6.936,3.261,16.3-6.108,20.963-11.128,4.244-30.745,1.76-32.868-8.54a3.559,3.559,0,0,0-1.346.414c3.416,7.3,9.11,10.352,20.031,11.128h6.211c16.46-2.484,20.342-11.8,16.511-22.774-.828-1.242-.828-1.242-.932-1.708A78.448,78.448,0,0,1,255.2,25.3c10.2,1.294,12.112,8.54,2.277,11.957l-.1,1.035,43.53-.052V36.9H261.259l.155-.466c3.934-3,5.435-6.366,1.708-9.731-3.054-2.122-7.246-2.9-11.646-2.9-6.108.1-12.629,1.5-17.34,2.484" transform="translate(-86.881 -11.481)"/>
</svg>
