<svg width="160" height="160" viewBox="0 0 160 160" fill="none" xmlns="http://www.w3.org/2000/svg">
<g clip-path="url(#clip0_1716_5555)">
<path d="M79.9528 28.1246C109.959 28.1246 135.92 36.8724 151.252 50.5115V0H8.65356V50.6055C23.9857 36.9665 49.9469 28.1246 79.9528 28.1246Z" fill="black"/>
<path d="M79.9528 131.876C49.9469 131.876 23.9857 123.128 8.65356 109.489V160.095H151.346V109.489C135.92 123.034 109.959 131.876 79.9528 131.876Z" fill="black"/>
<path d="M79.953 33.9565C35.8377 33.9565 0 54.5562 0 79.953C0 105.35 35.8377 125.949 79.953 125.949C124.068 125.949 159.906 105.35 159.906 79.953C160 54.5562 124.162 33.9565 79.953 33.9565ZM32.5456 93.8742C35.5556 93.8742 39.7884 92.2752 39.7884 87.1958H32.5456V77.6955H52.863V103.563H46.4668C45.5262 101.493 45.1499 100.459 44.3033 98.6714C41.3874 102.058 37.0606 103.751 32.5456 104.127C29.7237 104.315 22.9512 104.221 17.8718 99.612C12.7925 94.9089 10.535 87.5721 10.535 80.2352C10.535 73.3687 12.4162 66.1259 17.8718 61.1406C22.669 56.7196 29.1593 56.0612 32.5456 56.0612C38.9418 56.0612 46.1846 58.8831 49.853 63.9624C51.6402 66.408 53.1452 69.7943 52.9571 73.3686H39.5062C38.9418 69.9824 36.9665 65.8437 32.5456 65.8437C29.1593 65.7496 25.3968 68.1012 25.3968 79.953C25.3968 91.8989 29.5356 93.8742 32.5456 93.8742ZM100.176 103.563H86.1611V85.0324H74.5914V103.563H60.5761V56.8137H74.5914V73.839H86.2551V56.8137H100.176V103.563ZM145.044 95.1911C140.153 101.775 133.286 103.375 125.667 103.563C125.009 103.563 107.889 103.563 107.889 103.563V56.8137C107.889 56.8137 119.647 56.8137 125.667 56.8137C136.202 56.8137 141.94 60.4821 145.044 64.9971C148.148 69.6062 149.465 74.7796 149.465 80.0471C149.465 85.3146 147.96 91.0524 145.044 95.1911ZM129.712 68.1012C127.36 66.5962 125.197 66.6902 122.187 66.7843V93.3099C125.103 93.498 127.36 93.498 129.712 91.993C131.687 90.7702 135.356 86.9136 135.356 80.0471C135.262 73.6508 132.063 69.6062 129.712 68.1012Z" fill="black"/>
</g>
<defs>
<clipPath id="clip0_1716_5555">
<rect width="160" height="160" fill="white"/>
</clipPath>
</defs>
</svg>
