<?xml version="1.0" encoding="utf-8"?>
<!-- Generator: Adobe Illustrator 24.3.0, SVG Export Plug-In . SVG Version: 6.00 Build 0)  -->
<svg version="1.0" id="katman_1" xmlns="http://www.w3.org/2000/svg" xmlns:xlink="http://www.w3.org/1999/xlink" x="0px" y="0px"
	 viewBox="0 0 841.89 595.28" style="enable-background:new 0 0 841.89 595.28;" xml:space="preserve">
<desc>.</desc>
<g id="Clip-2">
</g>
<g>
	<polygon points="329.62,264.09 204.21,264.09 204.21,147.04 143.79,147.04 143.79,439.8 204.21,439.8 204.21,322.66 329.62,322.66 
			"/>
	<path d="M363.27,147.04h-35.22V202h35.22c54.76,0,93.03,37.51,93.14,91.26c-0.11,53.73-38.37,91.6-93.14,91.6h-35.22v54.95h35.22
		c86.26,0,148.89-61.74,149.09-146.39h0.01v-0.33h-0.01C512.16,208.44,449.53,147.04,363.27,147.04z"/>
	<path d="M620.68,335.19c43.12-7.88,72.51-46.57,72.51-87.33c0-30.52-8.83-54.04-30.96-74.49c-22.94-21.22-48.44-26.32-86.81-26.32
		H512.3v52.66h67.3c20.3,0,34.04,4.18,43.95,13.75c9.04,8.73,13.72,20.25,13.72,33.25c0,29.6-25.98,47.21-54.93,47.21h-16.82
		l-19.71,41.82l110.09,112.1l42.83-35.29L620.68,335.19z"/>
</g>
</svg>
