<svg xmlns="http://www.w3.org/2000/svg" tabindex="-1" viewBox="0 0 364.04 158.75"><path fill="#c60c30" d="M0 0v158.48h54.03v-16.62H16.62V16.62h37.41V0H0zm310.01 0v16.62h37.41v125.24h-37.41v16.62h54.03V0h-54.03zM90.16 141.86h3.86v16.59h-3.86zm24.7 16.59-7.24-11.25s.07 2 .07 3.73v7.52h-3.76v-16.62h4.12l7 11.16s-.07-1.88-.07-3.63v-7.53h3.76v16.59zm23-1.08a6.91 6.91 0 0 1-4.45 1.37 8.93 8.93 0 0 1-5.81-2.5l1.86-2.84a6.78 6.78 0 0 0 4.31 2.09c1.23 0 2.19-.6 2.19-1.7s-1.22-1.56-1.93-1.83-1.95-.7-2.5-.94a6.29 6.29 0 0 1-1.95-1.2 4.1 4.1 0 0 1-1.29-3.2 4.69 4.69 0 0 1 1.72-3.63 6.63 6.63 0 0 1 4.31-1.32 7.8 7.8 0 0 1 5.24 2.05l-1.6 2.69a6 6 0 0 0-3.76-1.66c-1.24 0-2.1.5-2.1 1.49s.93 1.39 1.67 1.68 1.93.72 2.45.94a6.7 6.7 0 0 1 2.29 1.34 4.41 4.41 0 0 1 1.28 3.2 5 5 0 0 1-1.93 4m22.96-.65a8.17 8.17 0 0 1-10.64 0c-1.15-1.28-1.55-2.89-1.55-5.22v-9.7h3.88v9.67a4.21 4.21 0 0 0 .64 2.76 3.2 3.2 0 0 0 4.72 0 4.27 4.27 0 0 0 .64-2.76v-9.67h3.89v9.67c0 2.33-.41 3.94-1.58 5.22m19.88 1.73-3.48-6.34H176v6.34h-3.78v-16.62h5.9a7.12 7.12 0 0 1 4.34 1.18 5 5 0 0 1-1.4 8.56l4.17 6.85zm-1.18-13.15a3.18 3.18 0 0 0-2-.43h-1.53v4.25h1.53a3.24 3.24 0 0 0 2-.45 2.13 2.13 0 0 0 0-3.37m24.45 13.15-1.16-3.34h-5.86l-1.17 3.34h-4l6.19-16.62h4l6.19 16.61zm-4.09-12.33-2.05 6h4.09zm27.53 12.33-7.19-11.25s.07 2 .07 3.73v7.52h-3.76v-16.62h4.12l7.05 11.16s-.07-1.88-.07-3.63v-7.53h3.76v16.59zm21.62.29c-4.83 0-8.62-3.22-8.62-8.56s3.84-8.56 8.62-8.56a8.09 8.09 0 0 1 5.67 1.88l-1.21 3.22a6.29 6.29 0 0 0-4.24-1.73 5.11 5.11 0 0 0 0 10.22 6 6 0 0 0 4.43-1.76l1.28 3a7.65 7.65 0 0 1-5.93 2.28m14.6-.27v-16.6h10.65v3.11h-6.81v3.39h6.43v3.1h-6.43v3.85h7.03v3.15h-10.87z"/><path fill="#1e1e1e" d="M134.51 77.94c0-9.68-2.62-12.71-4.55-14.78a20.13 20.13 0 0 0-14.23-5.67 22.59 22.59 0 0 0-18.65 10V59.2h-22.1v2.9h9v51.11H69.04v-54H46.66v2.9h9.39v51.11h-9.53v2.91h59.82v-2.91h-9.26V88.99c.14-10.5.28-18.79 6.77-24.17a14.57 14.57 0 0 1 8.84-3.32 7.94 7.94 0 0 1 8.15 6.35c.28 1.38.42 2.49.55 8.15v37.16h-8.7v2.91h30.94v-2.91h-9.12zm91.32 35.78c-3.18 0-3.18-3.32-3.18-8V76.83c0-5.25 0-9.81-3.88-13.81-3.45-3.32-9.94-5.53-16.57-5.53-14 0-22.93 7.88-22.93 14.64 0 3.46 2.35 6.5 6.08 6.5a6.17 6.17 0 0 0 6.35-5.94c0-3.18-2.9-5-2.9-6.63 0-2.08 5.11-5.81 11.33-5.81 9.11 0 9.39 6.5 9.67 10.5v13.82a72.31 72.31 0 0 0-18.79 2.34c-9.26 2.91-15.61 8.85-15.61 17.27a15.29 15.29 0 0 0 .14 1.95c-.51 2.51-1.88 7.17-8.15 7.17-6.91 0-6.77-5.8-6.77-10.08V62.05h14.78v-2.9h-14.78V36.22h-2.07c-.69 2.9-1.66 7-7 13.54-3.46 4.28-7.6 8.14-12.71 10.36v1.93h9v34.78c0 7 0 10.08 1.1 12.7 2.07 5.53 7.6 8.15 14.37 8.15 8.16 0 11.91-3.62 13.74-7.11 2.52 4.56 7.81 7.11 14 7.11a20.06 20.06 0 0 0 18.51-11.46c.28 2.76.69 6.21 3.87 8.84a13 13 0 0 0 8 2.62 14 14 0 0 0 10.37-4.56l-1.66-1.93c-1 .83-2.49 2.49-4.28 2.49m-16-21.69c-.28 7-.56 11.88-5 16.16a11.62 11.62 0 0 1-7.74 3.18c-4.42 0-8.7-2.9-8.7-9.67 0-11.33 10.64-14.51 21.41-14.65zm49.81 22.69c-7.19 0-10.92-4-12.44-8.56-1.38-3.87-1.38-9.12-1.38-13.82 0-6.21.14-18.92 2.35-24.31 2.76-6.77 8.56-7.73 12.43-7.73 7.46 0 10.91 3.45 10.91 4.69 0 .55-.27.83-.68 1.38a9.22 9.22 0 0 0-2.77 6.5c0 3.73 2.49 7.32 6.5 7.32s7-3.32 7-7.74c0-6.91-7.88-14.92-20.72-14.92-16.3 0-30.12 12.85-30.12 30.67 0 16.3 12.3 29.56 28.46 29.56 14.92 0 22.24-10.36 24.17-20.17h-3.45c-1.93 8.29-8.7 17.13-20.3 17.13m59.3-9.25c-.42 2.21-1.39 7.87-8.29 7.87s-6.77-5.8-6.77-10.08V62.05h14.78v-2.9h-14.78V36.22h-2.08c-.69 2.9-1.65 7-7 13.54-3.45 4.28-7.6 8.14-12.71 10.36v1.93h9v34.78c0 7 0 10.08 1.1 12.7 2.08 5.53 7.61 8.15 14.37 8.15 12.85 0 14.78-9 15.48-12.29zM61.48 47.16a9.42 9.42 0 1 0-9.43-9.42 9.42 9.42 0 0 0 9.43 9.42"/></svg>