<svg xmlns="http://www.w3.org/2000/svg" viewBox="0 0 310.752 102.291">
  <defs>
    <style>
      .cls-1 {
        opacity: 0.33;
      }

      .cls-2, .cls-7, .cls-8 {
        fill-rule: evenodd;
      }

      .cls-3, .cls-8 {
        fill: #fff;
      }

      .cls-4 {
        opacity: 0.158;
      }

      .cls-5 {
        fill: #fdbb30;
      }

      .cls-6 {
        fill: #005295;
      }

      .cls-7 {
        fill: #8dc63f;
      }
    </style>
  </defs>
  <g id="Group_646" data-name="Group 646" transform="translate(-29 -24.221)">
    <g id="Group_410" data-name="Group 410" class="cls-1" transform="translate(29 243.221)">
      <g id="Group_411" data-name="Group 411" transform="translate(-4 -83)">
        <path id="Path_331" data-name="Path 331" d="M11.2,48.7h5.92L35.4,76.036h.087V48.7h4.527V81.956H34.27L15.814,54.62h-.087V81.956H11.2Z" transform="translate(4.55 -140.303)"/>
        <path id="Path_332" data-name="Path 332" d="M51.44,73.933c0,3.918,3.656,6.442,7.487,6.442,2.612,0,4.44-1.306,6.094-3.308L68.242,79.5c-2.351,3.047-5.572,4.527-9.838,4.527-7.052,0-11.4-5.049-11.4-11.666A11.256,11.256,0,0,1,58.492,60.7c7.835,0,10.8,6.007,10.8,11.753v1.48Zm13.32-3.4c-.087-3.743-2.176-6.442-6.442-6.442a6.812,6.812,0,0,0-6.878,6.442Z" transform="translate(-0.083 -141.856)"/>
        <path id="Path_333" data-name="Path 333" d="M72.4,61.3h4.7L82.15,77.928h.087L87.548,61.3h4.44l5.659,16.628h.087L102.522,61.3h4.44L99.823,83.5H95.557L89.725,66.872h-.087l-5.4,16.715H79.713Z" transform="translate(-3.37 -141.933)"/>
        <path id="Path_334" data-name="Path 334" d="M127.608,52.979H116.9V48.8h25.856v4.179H132.048v28.99h-4.527V52.979Z" transform="translate(-9.129 -140.316)"/>
        <path id="Path_335" data-name="Path 335" d="M143.227,73.933c0,3.918,3.569,6.442,7.487,6.442,2.612,0,4.44-1.306,6.094-3.308l3.221,2.438c-2.351,3.047-5.572,4.527-9.838,4.527-7.052,0-11.492-5.049-11.492-11.666A11.256,11.256,0,0,1,150.192,60.7c7.835,0,10.8,6.007,10.8,11.753v1.48Zm13.32-3.4c-.087-3.743-2.176-6.442-6.442-6.442a6.812,6.812,0,0,0-6.878,6.442Z" transform="translate(-11.951 -141.856)"/>
        <path id="Path_336" data-name="Path 336" d="M183.05,67.129a7.159,7.159,0,0,0-5.572-2.525c-4.614,0-6.965,3.743-6.965,7.922S173.3,80.1,177.653,80.1a6.571,6.571,0,0,0,5.4-2.525l2.96,2.96a10.912,10.912,0,0,1-8.445,3.4c-6.878,0-11.666-4.7-11.666-11.579S170.6,60.6,177.566,60.6a11.491,11.491,0,0,1,8.532,3.482Z" transform="translate(-15.471 -141.843)"/>
        <path id="Path_337" data-name="Path 337" d="M211.575,83.587H207.4v-3.4h-.087c-1.045,2.351-3.918,4-7.313,4-4.353,0-8.1-2.612-8.1-8.532V61.3h4.266V74.446c0,4.179,2.351,5.746,5.049,5.746,3.482,0,6.181-2.264,6.181-7.4V61.3h4.179Z" transform="translate(-18.836 -141.933)"/>
        <path id="Path_338" data-name="Path 338" d="M219,61.222h3.918V64.7H223c.435-1.306,3.134-4,7.139-4a7.211,7.211,0,0,1,6.965,4.092A8.068,8.068,0,0,1,244.16,60.7c6.878,0,8.445,4.875,8.445,9.838V83.509h-4.266V71.06c0-3.4-.7-6.442-4.788-6.442s-5.659,2.786-5.659,6.7V83.509h-4.179V71.843c0-4.179-.609-7.226-4.7-7.226-3.047,0-5.746,2.264-5.746,7.313V83.509H219Z" transform="translate(-22.343 -141.856)"/>
        <path id="Path_339" data-name="Path 339" d="M273.155,66.794a5.566,5.566,0,0,0-4.527-2.176c-2,0-3.743.871-3.743,2.525,0,2.7,3.831,3.047,5.659,3.482,3.656.871,6.442,2.264,6.442,6.442,0,5.049-4.614,6.965-8.967,6.965-3.656,0-6.355-.958-8.619-3.918l3.221-2.612a7.323,7.323,0,0,0,5.4,2.612c2.176,0,4.527-.871,4.527-2.786,0-2.525-3.482-2.96-5.311-3.4-3.656-.871-6.791-2.089-6.791-6.355,0-4.614,4.266-6.878,8.445-6.878,2.96,0,6.007,1.045,7.574,3.656Z" transform="translate(-27.572 -141.856)"/>
        <path id="Path_340" data-name="Path 340" d="M286.227,73.933c0,3.918,3.656,6.442,7.487,6.442,2.612,0,4.44-1.306,6.094-3.308l3.221,2.438c-2.351,3.047-5.572,4.527-9.838,4.527-7.052,0-11.492-5.049-11.492-11.666A11.256,11.256,0,0,1,293.192,60.7c7.835,0,10.8,6.007,10.8,11.753v1.48Zm13.32-3.4c-.087-3.743-2.176-6.442-6.442-6.442a6.812,6.812,0,0,0-6.878,6.442Z" transform="translate(-30.458 -141.856)"/>
        <path id="Path_341" data-name="Path 341" d="M310.687,60.368V54.1h4.179v6.268h6.094v3.656h-6.094v10.1c0,2.525,0,5.136,3.221,5.136a5.723,5.723,0,0,0,2.96-.7v3.831a10.388,10.388,0,0,1-3.831.784c-6.529,0-6.616-4-6.616-7.574V60.368Z" transform="translate(-34.198 -141.002)"/>
        <path id="Path_342" data-name="Path 342" d="M325.3,46.1h4.266V62.728h.087c1.045-2.351,3.918-4,7.313-4,4.353,0,8.1,2.612,8.1,8.532V81.533h-4.179V68.474c0-4.179-2.351-5.746-5.049-5.746-3.482,0-6.181,2.264-6.181,7.4v11.4h-4.266V46.1Z" transform="translate(-36.1 -139.966)"/>
        <g id="Group_325" data-name="Group 325" transform="translate(197.353 -55.3)">
          <path id="Path_349" data-name="Path 349" d="M235.209,93.976H228.68v17.673h-2.351V93.976H219.8V91.8h15.409Z" transform="translate(-219.8 -90.581)"/>
          <path id="Path_350" data-name="Path 350" d="M238.565,99.3a6.878,6.878,0,1,1-6.965,6.878A6.651,6.651,0,0,1,238.565,99.3Zm0,11.666a4.552,4.552,0,0,0,4.614-4.875,4.6,4.6,0,0,0-4.614-4.875,4.883,4.883,0,0,0,0,9.75Z" transform="translate(-221.327 -91.552)"/>
          <path id="Path_351" data-name="Path 351" d="M255.107,100.985h-3.831v6.529c0,1.654,0,3.047,1.915,3.047a5.1,5.1,0,0,0,1.915-.435l.087,2a6.438,6.438,0,0,1-2.525.435c-3.134,0-3.569-1.654-3.569-4.353V95.5h2.176v3.743h3.831Z" transform="translate(-223.592 -91.06)"/>
          <path id="Path_352" data-name="Path 352" d="M264.007,100.985h-3.831v6.529c0,1.654,0,3.047,1.915,3.047a5.094,5.094,0,0,0,1.915-.435l.087,2a6.438,6.438,0,0,1-2.525.435c-3.134,0-3.569-1.654-3.569-4.353V95.5h2.176v3.743h3.831Z" transform="translate(-224.744 -91.06)"/>
          <path id="Path_353" data-name="Path 353" d="M277.849,110.256a6.717,6.717,0,0,1-5.833,2.7c-4.092,0-6.616-3.047-6.616-6.878a6.54,6.54,0,0,1,6.7-6.878c3.656,0,6.181,2.525,6.181,6.878v.7H267.751a4.374,4.374,0,0,0,4.266,4.179,4.892,4.892,0,0,0,4.179-2Zm-1.915-5.311a3.64,3.64,0,0,0-3.918-3.656,4,4,0,0,0-4.266,3.656Z" transform="translate(-225.702 -91.539)"/>
          <path id="Path_354" data-name="Path 354" d="M281.787,102.682c0-1.219-.087-2.264-.087-3.134h2.089c0,.7.087,1.393.087,2.176h.087a4.724,4.724,0,0,1,4.353-2.525c3.4,0,4.962,2.176,4.962,5.311v8.1H291.1v-7.835c0-2.176-.958-3.569-2.96-3.569-2.786,0-4.092,2-4.092,5.049v6.355h-2.176v-9.925Z" transform="translate(-227.811 -91.539)"/>
          <path id="Path_355" data-name="Path 355" d="M296.487,90.4h2.176v9.838h.087a4.948,4.948,0,0,1,4.179-2.176c3.4,0,4.962,2.176,4.962,5.311v8.1h-2.264v-7.835c0-2.176-.958-3.569-2.96-3.569-2.786,0-4.092,2-4.092,5.049v6.355H296.4V90.4Z" transform="translate(-229.714 -90.4)"/>
          <path id="Path_356" data-name="Path 356" d="M311.609,101.3a7.152,7.152,0,0,1,5.223-2c3.831,0,5.485,1.828,5.485,5.572v5.659a18.374,18.374,0,0,0,.174,2.263H320.4a7.464,7.464,0,0,1-.174-1.915h-.087a5.029,5.029,0,0,1-4.266,2.264c-2.612,0-4.875-1.306-4.875-3.918,0-4.353,5.049-4.614,8.271-4.614h.871v-.348c0-1.915-1.219-2.873-3.221-2.873A5.846,5.846,0,0,0,313,102.782Zm6.355,5.049c-2.786,0-4.527.784-4.527,2.525,0,1.654,1.219,2.264,2.873,2.264a3.674,3.674,0,0,0,3.831-3.918v-.871Z" transform="translate(-231.603 -91.552)"/>
          <path id="Path_357" data-name="Path 357" d="M325.987,102.682c0-1.219-.087-2.264-.087-3.134h2.089c0,.7.087,1.393.087,2.176h.087a4.724,4.724,0,0,1,4.353-2.525c2.786,0,3.743,1.567,4.092,2.525a4.575,4.575,0,0,1,4.179-2.525c3.744,0,4.962,2.089,4.962,5.485v7.922h-2.176v-7.835c0-1.828-.609-3.569-3.221-3.569a3.519,3.519,0,0,0-3.4,3.831v7.574h-2.263v-7.4c0-2.873-.7-4-2.525-4-2.786,0-4.092,2-4.092,5.049v6.355h-2.089Z" transform="translate(-233.532 -91.539)"/>
        </g>
        <path id="Path_358" data-name="Path 358" class="cls-2" d="M107.4,103.667a1.567,1.567,0,1,1,1.567,1.567A1.561,1.561,0,0,1,107.4,103.667Z" transform="translate(-7.9 -147.214)"/>
        <path id="Path_359" data-name="Path 359" class="cls-2" d="M214.3,103.667a1.567,1.567,0,1,1,1.567,1.567A1.561,1.561,0,0,1,214.3,103.667Z" transform="translate(-21.735 -147.214)"/>
        <g id="Group_326" data-name="Group 326" transform="translate(110.731 -53.471)">
          <path id="Path_360" data-name="Path 360" d="M120.3,92.5h6.007c3.221,0,6.529,1.219,6.529,4.875a4.4,4.4,0,0,1-3.482,4.44v.087a4.849,4.849,0,0,1,4.44,4.875c0,4.353-4,5.485-7.661,5.485H120.3Zm2.351,8.271h3.221c2.176,0,4.44-.435,4.44-3.221,0-2.438-2.089-2.96-4.266-2.96h-3.482v6.181Zm0,9.228h3.918c2.264,0,4.788-.958,4.788-3.4,0-2.786-2.351-3.569-4.7-3.569h-4Z" transform="translate(-120.3 -92.5)"/>
          <path id="Path_361" data-name="Path 361" d="M149.262,110.369a6.662,6.662,0,0,1-5.746,2.7,6.444,6.444,0,0,1-6.616-6.791,6.589,6.589,0,0,1,6.7-6.878c3.656,0,6.181,2.525,6.181,6.791v.7H139.251a4.374,4.374,0,0,0,4.266,4.179,5,5,0,0,0,4.179-2Zm-1.828-5.311a3.64,3.64,0,0,0-3.918-3.656,4.057,4.057,0,0,0-4.266,3.656Z" transform="translate(-122.448 -93.393)"/>
          <path id="Path_362" data-name="Path 362" d="M164.762,110.369a6.662,6.662,0,0,1-5.746,2.7,6.444,6.444,0,0,1-6.616-6.791,6.589,6.589,0,0,1,6.7-6.878c3.656,0,6.181,2.525,6.181,6.791v.7H154.751a4.374,4.374,0,0,0,4.266,4.179,5,5,0,0,0,4.179-2Zm-1.828-5.311a3.64,3.64,0,0,0-3.918-3.656,4.057,4.057,0,0,0-4.266,3.656Z" transform="translate(-124.454 -93.393)"/>
          <path id="Path_363" data-name="Path 363" d="M174.707,100.985h-3.831v6.529c0,1.654,0,2.96,1.915,2.96a5.094,5.094,0,0,0,1.915-.435l.087,2a6.438,6.438,0,0,1-2.525.435c-3.047,0-3.569-1.654-3.569-4.353V95.5h2.176v3.656h3.831Z" transform="translate(-126.564 -92.888)"/>
          <path id="Path_364" data-name="Path 364" d="M182.165,99.3a6.651,6.651,0,0,1,6.965,6.878,6.967,6.967,0,0,1-13.929,0A6.7,6.7,0,0,1,182.165,99.3Zm0,11.666a4.552,4.552,0,0,0,4.614-4.875,4.6,4.6,0,0,0-4.614-4.875,4.883,4.883,0,0,0,0,9.75Z" transform="translate(-127.405 -93.38)"/>
          <path id="Path_365" data-name="Path 365" d="M192.787,103.208c0-1.219-.087-2.264-.087-3.047h2.089c0,.7.087,1.393.087,2.176h.087a4.668,4.668,0,0,1,4.353-2.438c3.4,0,4.962,2.176,4.962,5.311v8.009H202.1v-7.835c0-2.176-.958-3.569-2.96-3.569-2.786,0-4,2-4,4.962v6.355h-2.176v-9.925Z" transform="translate(-129.67 -93.458)"/>
        </g>
        <g id="Group_327" data-name="Group 327" transform="translate(15.75 -54.864)">
          <path id="Path_366" data-name="Path 366" d="M19.819,92.5H22l8.358,19.675h-2.7l-2-4.788H15.814l-2,4.788H11.2Zm1.045,2.96h0l-4.179,9.663h8.009Z" transform="translate(-11.2 -91.107)"/>
          <path id="Path_367" data-name="Path 367" d="M34.7,90.9h2.176v20.981H34.7Z" transform="translate(-14.241 -90.9)"/>
          <path id="Path_368" data-name="Path 368" d="M39.5,90.9h2.176v20.981H39.5Z" transform="translate(-14.863 -90.9)"/>
          <path id="Path_369" data-name="Path 369" d="M45.367,92.5a1.561,1.561,0,0,1,1.567,1.567,1.567,1.567,0,0,1-3.134,0A1.561,1.561,0,0,1,45.367,92.5Zm-1.045,6.616H46.5v12.972H44.322Z" transform="translate(-15.419 -91.107)"/>
          <path id="Path_370" data-name="Path 370" d="M50.041,109.225a4.082,4.082,0,0,0,3.308,1.741c1.393,0,2.873-.609,2.873-2s-1.393-1.741-2.786-2.089c-2.438-.522-4.614-1.045-4.614-3.743,0-2.525,2.438-3.831,4.875-3.831a4.762,4.762,0,0,1,4.44,2.351l-1.828,1.219a3.017,3.017,0,0,0-2.786-1.567c-1.219,0-2.525.609-2.525,1.828,0,1.045,1.567,1.567,3.308,1.915,2.264.435,4.266,1.306,4.266,3.918,0,2.96-2.612,4.092-5.223,4.092a5.555,5.555,0,0,1-5.049-2.438Z" transform="translate(-16.001 -91.987)"/>
          <path id="Path_371" data-name="Path 371" d="M67.507,100.985H63.676v6.529c0,1.654,0,2.96,1.915,2.96a5.1,5.1,0,0,0,1.915-.435l.087,2a6.438,6.438,0,0,1-2.525.435c-3.047,0-3.569-1.654-3.569-4.353V95.5h2.176v3.656h3.831Z" transform="translate(-17.71 -91.495)"/>
          <path id="Path_372" data-name="Path 372" d="M75.565,99.4a6.793,6.793,0,1,1-6.965,6.791A6.631,6.631,0,0,1,75.565,99.4Zm0,11.666a4.791,4.791,0,1,0-4.614-4.788A4.576,4.576,0,0,0,75.565,111.066Z" transform="translate(-18.629 -92)"/>
          <path id="Path_373" data-name="Path 373" d="M86.087,103.208c0-1.219-.087-2.264-.087-3.047h2.089c0,.7.087,1.393.087,2.176h.087A4.668,4.668,0,0,1,92.616,99.9c3.4,0,4.962,2.176,4.962,5.311v8.009H95.4v-7.835c0-2.176-.958-3.482-2.96-3.482-2.786,0-4,2-4,4.962v6.355H86.261V103.208Z" transform="translate(-20.881 -92.065)"/>
        </g>
      </g>
    </g>
    <g id="Group_409" data-name="Group 409" transform="translate(29 24.221)">
      <g id="Group_323" data-name="Group 323" transform="translate(9.75 40.134)">
        <path id="Path_331-2" data-name="Path 331" class="cls-3" d="M11.2,48.7h5.92L35.4,76.036h.087V48.7h4.527V81.956H34.27L15.814,54.62h-.087V81.956H11.2Z" transform="translate(-11.2 -46.437)"/>
        <path id="Path_332-2" data-name="Path 332" class="cls-3" d="M51.44,73.933c0,3.918,3.656,6.442,7.487,6.442,2.612,0,4.44-1.306,6.094-3.308L68.242,79.5c-2.351,3.047-5.572,4.527-9.838,4.527-7.052,0-11.4-5.049-11.4-11.666A11.256,11.256,0,0,1,58.492,60.7c7.835,0,10.8,6.007,10.8,11.753v1.48Zm13.32-3.4c-.087-3.743-2.176-6.442-6.442-6.442a6.812,6.812,0,0,0-6.878,6.442Z" transform="translate(-15.833 -47.99)"/>
        <path id="Path_333-2" data-name="Path 333" class="cls-3" d="M72.4,61.3h4.7L82.15,77.928h.087L87.548,61.3h4.44l5.659,16.628h.087L102.522,61.3h4.44L99.823,83.5H95.557L89.725,66.872h-.087l-5.4,16.715H79.713Z" transform="translate(-19.121 -48.067)"/>
        <path id="Path_334-2" data-name="Path 334" class="cls-3" d="M127.608,52.979H116.9V48.8h25.856v4.179H132.048v28.99h-4.527V52.979Z" transform="translate(-24.88 -46.449)"/>
        <path id="Path_335-2" data-name="Path 335" class="cls-3" d="M143.227,73.933c0,3.918,3.569,6.442,7.487,6.442,2.612,0,4.44-1.306,6.094-3.308l3.221,2.438c-2.351,3.047-5.572,4.527-9.838,4.527-7.052,0-11.492-5.049-11.492-11.666A11.256,11.256,0,0,1,150.192,60.7c7.835,0,10.8,6.007,10.8,11.753v1.48Zm13.32-3.4c-.087-3.743-2.176-6.442-6.442-6.442a6.812,6.812,0,0,0-6.878,6.442Z" transform="translate(-27.701 -47.99)"/>
        <path id="Path_336-2" data-name="Path 336" class="cls-3" d="M183.05,67.129a7.159,7.159,0,0,0-5.572-2.525c-4.614,0-6.965,3.743-6.965,7.922S173.3,80.1,177.653,80.1a6.571,6.571,0,0,0,5.4-2.525l2.96,2.96a10.912,10.912,0,0,1-8.445,3.4c-6.878,0-11.666-4.7-11.666-11.579S170.6,60.6,177.566,60.6a11.491,11.491,0,0,1,8.532,3.482Z" transform="translate(-31.221 -47.977)"/>
        <path id="Path_337-2" data-name="Path 337" class="cls-3" d="M211.575,83.587H207.4v-3.4h-.087c-1.045,2.351-3.918,4-7.313,4-4.353,0-8.1-2.612-8.1-8.532V61.3h4.266V74.446c0,4.179,2.351,5.746,5.049,5.746,3.482,0,6.181-2.264,6.181-7.4V61.3h4.179Z" transform="translate(-34.586 -48.067)"/>
        <path id="Path_338-2" data-name="Path 338" class="cls-3" d="M219,61.222h3.918V64.7H223c.435-1.306,3.134-4,7.139-4a7.211,7.211,0,0,1,6.965,4.092A8.068,8.068,0,0,1,244.16,60.7c6.878,0,8.445,4.875,8.445,9.838V83.509h-4.266V71.06c0-3.4-.7-6.442-4.788-6.442s-5.659,2.786-5.659,6.7V83.509h-4.179V71.843c0-4.179-.609-7.226-4.7-7.226-3.047,0-5.746,2.264-5.746,7.313V83.509H219Z" transform="translate(-38.094 -47.99)"/>
        <path id="Path_339-2" data-name="Path 339" class="cls-3" d="M273.155,66.794a5.566,5.566,0,0,0-4.527-2.176c-2,0-3.743.871-3.743,2.525,0,2.7,3.831,3.047,5.659,3.482,3.656.871,6.442,2.264,6.442,6.442,0,5.049-4.614,6.965-8.967,6.965-3.656,0-6.355-.958-8.619-3.918l3.221-2.612a7.323,7.323,0,0,0,5.4,2.612c2.176,0,4.527-.871,4.527-2.786,0-2.525-3.482-2.96-5.311-3.4-3.656-.871-6.791-2.089-6.791-6.355,0-4.614,4.266-6.878,8.445-6.878,2.96,0,6.007,1.045,7.574,3.656Z" transform="translate(-43.322 -47.99)"/>
        <path id="Path_340-2" data-name="Path 340" class="cls-3" d="M286.227,73.933c0,3.918,3.656,6.442,7.487,6.442,2.612,0,4.44-1.306,6.094-3.308l3.221,2.438c-2.351,3.047-5.572,4.527-9.838,4.527-7.052,0-11.492-5.049-11.492-11.666A11.256,11.256,0,0,1,293.192,60.7c7.835,0,10.8,6.007,10.8,11.753v1.48Zm13.32-3.4c-.087-3.743-2.176-6.442-6.442-6.442a6.812,6.812,0,0,0-6.878,6.442Z" transform="translate(-46.208 -47.99)"/>
        <path id="Path_341-2" data-name="Path 341" class="cls-3" d="M310.687,60.368V54.1h4.179v6.268h6.094v3.656h-6.094v10.1c0,2.525,0,5.136,3.221,5.136a5.723,5.723,0,0,0,2.96-.7v3.831a10.388,10.388,0,0,1-3.831.784c-6.529,0-6.616-4-6.616-7.574V60.368Z" transform="translate(-49.948 -47.135)"/>
        <path id="Path_342-2" data-name="Path 342" class="cls-3" d="M325.3,46.1h4.266V62.728h.087c1.045-2.351,3.918-4,7.313-4,4.353,0,8.1,2.612,8.1,8.532V81.533h-4.179V68.474c0-4.179-2.351-5.746-5.049-5.746-3.482,0-6.181,2.264-6.181,7.4v11.4h-4.266V46.1Z" transform="translate(-51.851 -46.1)"/>
      </g>
      <g id="Group_520" data-name="Group 520" class="cls-4" transform="translate(1 2)">
        <path id="Path_343" data-name="Path 343" d="M308.73,17.76c-27.859-14.278-42.4-12.275-69.211-9.838-16.28,1.48-38.567,7.487-48.23,8.1h0c-21.242.871-30.819-.261-47.447-8.619h0C139.75,5.4,135.223,2.873,130,0c0,0,3.656,2.873,10.012,6.965h0C160.644,20.2,207.917,41,253.1,27.162,278.782,19.153,293.234-.609,308.73,17.76Z" transform="translate(-16.825)"/>
        <path id="Path_344" data-name="Path 344" d="M151.2,36.368a217.8,217.8,0,0,0,40.134,6.442C176.012,37.151,166.609,35.5,151.2,36.368Z" transform="translate(-19.568 -4.678)"/>
        <path id="Path_345" data-name="Path 345" d="M193.772,17.071c-7.139-1.393-14.713-2.612-23.157-4.353C162.257,11.064,154.074,9.671,146.5,8.8,163.041,17.071,172.443,18.463,193.772,17.071Z" transform="translate(-18.96 -1.139)"/>
        <path id="Path_346" data-name="Path 346" d="M19.7,23.868c2.176-1.48,14.974-9.75,40.395-14.278C26.752,5.238,22.138,21.518,19.7,23.868Z" transform="translate(-2.55 -1.146)"/>
        <path id="Path_347" data-name="Path 347" d="M292.96,25l-5.833,1.045C273.894,28.22,263.36,29,251.172,28.22c-1.741.609-3.569,1.393-5.572,2-45.967,14.8-93.152-9.141-113.7-22.287C104.044,4.8,82.628,6.195,66,9.155a180.231,180.231,0,0,1,30.122,6.878c43.7-2.264,86.971,22.635,87.929,23.157,40.83,2.351,80.18-4.962,105.775-11.318l5.4-1.393c14.365-3.743,23.07-6.878,23.07-6.878C308.631,21.865,300.36,23.606,292.96,25Z" transform="translate(-8.542 -0.797)"/>
        <path id="Path_348" data-name="Path 348" class="cls-2" d="M0,21.524s22.809,25.682,83.227,18.2c60.418-7.4,63.291-9.228,100.552,5.746,0,0-69.995-39.263-125.625-18.282C2.438,48.251,1.915,22.743,0,21.524Z" transform="translate(0 -2.72)"/>
      </g>
      <g id="Group_324" data-name="Group 324">
        <path id="Path_343-2" data-name="Path 343" class="cls-5" d="M308.73,17.76c-27.859-14.278-42.4-12.275-69.211-9.838-16.28,1.48-38.567,7.487-48.23,8.1h0c-21.242.871-30.819-.261-47.447-8.619h0C139.75,5.4,135.223,2.873,130,0c0,0,3.656,2.873,10.012,6.965h0C160.644,20.2,207.917,41,253.1,27.162,278.782,19.153,293.234-.609,308.73,17.76Z" transform="translate(-16.825)"/>
        <path id="Path_344-2" data-name="Path 344" class="cls-6" d="M151.2,36.368a217.8,217.8,0,0,0,40.134,6.442C176.012,37.151,166.609,35.5,151.2,36.368Z" transform="translate(-19.568 -4.678)"/>
        <path id="Path_345-2" data-name="Path 345" class="cls-6" d="M193.772,17.071c-7.139-1.393-14.713-2.612-23.157-4.353C162.257,11.064,154.074,9.671,146.5,8.8,163.041,17.071,172.443,18.463,193.772,17.071Z" transform="translate(-18.96 -1.139)"/>
        <path id="Path_346-2" data-name="Path 346" class="cls-6" d="M19.7,23.868c2.176-1.48,14.974-9.75,40.395-14.278C26.752,5.238,22.138,21.518,19.7,23.868Z" transform="translate(-2.55 -1.146)"/>
        <path id="Path_347-2" data-name="Path 347" class="cls-6" d="M292.96,25l-5.833,1.045C273.894,28.22,263.36,29,251.172,28.22c-1.741.609-3.569,1.393-5.572,2-45.967,14.8-93.152-9.141-113.7-22.287C104.044,4.8,82.628,6.195,66,9.155a180.231,180.231,0,0,1,30.122,6.878c43.7-2.264,86.971,22.635,87.929,23.157,40.83,2.351,80.18-4.962,105.775-11.318l5.4-1.393c14.365-3.743,23.07-6.878,23.07-6.878C308.631,21.865,300.36,23.606,292.96,25Z" transform="translate(-8.542 -0.797)"/>
        <path id="Path_348-2" data-name="Path 348" class="cls-7" d="M0,21.524s22.809,25.682,83.227,18.2c60.418-7.4,63.291-9.228,100.552,5.746,0,0-69.995-39.263-125.625-18.282C2.438,48.251,1.915,22.743,0,21.524Z" transform="translate(0 -2.72)"/>
      </g>
      <g id="Group_328" data-name="Group 328" transform="translate(9.75 78.7)">
        <g id="Group_325-2" data-name="Group 325" transform="translate(181.603)">
          <path id="Path_349-2" data-name="Path 349" class="cls-3" d="M235.209,93.976H228.68v17.673h-2.351V93.976H219.8V91.8h15.409Z" transform="translate(-219.8 -90.581)"/>
          <path id="Path_350-2" data-name="Path 350" class="cls-3" d="M238.565,99.3a6.878,6.878,0,1,1-6.965,6.878A6.651,6.651,0,0,1,238.565,99.3Zm0,11.666a4.552,4.552,0,0,0,4.614-4.875,4.6,4.6,0,0,0-4.614-4.875,4.883,4.883,0,0,0,0,9.75Z" transform="translate(-221.327 -91.552)"/>
          <path id="Path_351-2" data-name="Path 351" class="cls-3" d="M255.107,100.985h-3.831v6.529c0,1.654,0,3.047,1.915,3.047a5.1,5.1,0,0,0,1.915-.435l.087,2a6.438,6.438,0,0,1-2.525.435c-3.134,0-3.569-1.654-3.569-4.353V95.5h2.176v3.743h3.831Z" transform="translate(-223.592 -91.06)"/>
          <path id="Path_352-2" data-name="Path 352" class="cls-3" d="M264.007,100.985h-3.831v6.529c0,1.654,0,3.047,1.915,3.047a5.094,5.094,0,0,0,1.915-.435l.087,2a6.438,6.438,0,0,1-2.525.435c-3.134,0-3.569-1.654-3.569-4.353V95.5h2.176v3.743h3.831Z" transform="translate(-224.744 -91.06)"/>
          <path id="Path_353-2" data-name="Path 353" class="cls-3" d="M277.849,110.256a6.717,6.717,0,0,1-5.833,2.7c-4.092,0-6.616-3.047-6.616-6.878a6.54,6.54,0,0,1,6.7-6.878c3.656,0,6.181,2.525,6.181,6.878v.7H267.751a4.374,4.374,0,0,0,4.266,4.179,4.892,4.892,0,0,0,4.179-2Zm-1.915-5.311a3.64,3.64,0,0,0-3.918-3.656,4,4,0,0,0-4.266,3.656Z" transform="translate(-225.702 -91.539)"/>
          <path id="Path_354-2" data-name="Path 354" class="cls-3" d="M281.787,102.682c0-1.219-.087-2.264-.087-3.134h2.089c0,.7.087,1.393.087,2.176h.087a4.724,4.724,0,0,1,4.353-2.525c3.4,0,4.962,2.176,4.962,5.311v8.1H291.1v-7.835c0-2.176-.958-3.569-2.96-3.569-2.786,0-4.092,2-4.092,5.049v6.355h-2.176v-9.925Z" transform="translate(-227.811 -91.539)"/>
          <path id="Path_355-2" data-name="Path 355" class="cls-3" d="M296.487,90.4h2.176v9.838h.087a4.948,4.948,0,0,1,4.179-2.176c3.4,0,4.962,2.176,4.962,5.311v8.1h-2.264v-7.835c0-2.176-.958-3.569-2.96-3.569-2.786,0-4.092,2-4.092,5.049v6.355H296.4V90.4Z" transform="translate(-229.714 -90.4)"/>
          <path id="Path_356-2" data-name="Path 356" class="cls-3" d="M311.609,101.3a7.152,7.152,0,0,1,5.223-2c3.831,0,5.485,1.828,5.485,5.572v5.659a18.374,18.374,0,0,0,.174,2.263H320.4a7.464,7.464,0,0,1-.174-1.915h-.087a5.029,5.029,0,0,1-4.266,2.264c-2.612,0-4.875-1.306-4.875-3.918,0-4.353,5.049-4.614,8.271-4.614h.871v-.348c0-1.915-1.219-2.873-3.221-2.873A5.846,5.846,0,0,0,313,102.782Zm6.355,5.049c-2.786,0-4.527.784-4.527,2.525,0,1.654,1.219,2.264,2.873,2.264a3.674,3.674,0,0,0,3.831-3.918v-.871Z" transform="translate(-231.603 -91.552)"/>
          <path id="Path_357-2" data-name="Path 357" class="cls-3" d="M325.987,102.682c0-1.219-.087-2.264-.087-3.134h2.089c0,.7.087,1.393.087,2.176h.087a4.724,4.724,0,0,1,4.353-2.525c2.786,0,3.743,1.567,4.092,2.525a4.575,4.575,0,0,1,4.179-2.525c3.744,0,4.962,2.089,4.962,5.485v7.922h-2.176v-7.835c0-1.828-.609-3.569-3.221-3.569a3.519,3.519,0,0,0-3.4,3.831v7.574h-2.263v-7.4c0-2.873-.7-4-2.525-4-2.786,0-4.092,2-4.092,5.049v6.355h-2.089Z" transform="translate(-233.532 -91.539)"/>
        </g>
        <path id="Path_358-2" data-name="Path 358" class="cls-8" d="M107.4,103.667a1.567,1.567,0,1,1,1.567,1.567A1.561,1.561,0,0,1,107.4,103.667Z" transform="translate(-23.65 -91.914)"/>
        <path id="Path_359-2" data-name="Path 359" class="cls-8" d="M214.3,103.667a1.567,1.567,0,1,1,1.567,1.567A1.561,1.561,0,0,1,214.3,103.667Z" transform="translate(-37.485 -91.914)"/>
        <g id="Group_326-2" data-name="Group 326" transform="translate(94.98 1.828)">
          <path id="Path_360-2" data-name="Path 360" class="cls-3" d="M120.3,92.5h6.007c3.221,0,6.529,1.219,6.529,4.875a4.4,4.4,0,0,1-3.482,4.44v.087a4.849,4.849,0,0,1,4.44,4.875c0,4.353-4,5.485-7.661,5.485H120.3Zm2.351,8.271h3.221c2.176,0,4.44-.435,4.44-3.221,0-2.438-2.089-2.96-4.266-2.96h-3.482v6.181Zm0,9.228h3.918c2.264,0,4.788-.958,4.788-3.4,0-2.786-2.351-3.569-4.7-3.569h-4Z" transform="translate(-120.3 -92.5)"/>
          <path id="Path_361-2" data-name="Path 361" class="cls-3" d="M149.262,110.369a6.662,6.662,0,0,1-5.746,2.7,6.444,6.444,0,0,1-6.616-6.791,6.589,6.589,0,0,1,6.7-6.878c3.656,0,6.181,2.525,6.181,6.791v.7H139.251a4.374,4.374,0,0,0,4.266,4.179,5,5,0,0,0,4.179-2Zm-1.828-5.311a3.64,3.64,0,0,0-3.918-3.656,4.057,4.057,0,0,0-4.266,3.656Z" transform="translate(-122.448 -93.393)"/>
          <path id="Path_362-2" data-name="Path 362" class="cls-3" d="M164.762,110.369a6.662,6.662,0,0,1-5.746,2.7,6.444,6.444,0,0,1-6.616-6.791,6.589,6.589,0,0,1,6.7-6.878c3.656,0,6.181,2.525,6.181,6.791v.7H154.751a4.374,4.374,0,0,0,4.266,4.179,5,5,0,0,0,4.179-2Zm-1.828-5.311a3.64,3.64,0,0,0-3.918-3.656,4.057,4.057,0,0,0-4.266,3.656Z" transform="translate(-124.454 -93.393)"/>
          <path id="Path_363-2" data-name="Path 363" class="cls-3" d="M174.707,100.985h-3.831v6.529c0,1.654,0,2.96,1.915,2.96a5.094,5.094,0,0,0,1.915-.435l.087,2a6.438,6.438,0,0,1-2.525.435c-3.047,0-3.569-1.654-3.569-4.353V95.5h2.176v3.656h3.831Z" transform="translate(-126.564 -92.888)"/>
          <path id="Path_364-2" data-name="Path 364" class="cls-3" d="M182.165,99.3a6.651,6.651,0,0,1,6.965,6.878,6.967,6.967,0,0,1-13.929,0A6.7,6.7,0,0,1,182.165,99.3Zm0,11.666a4.552,4.552,0,0,0,4.614-4.875,4.6,4.6,0,0,0-4.614-4.875,4.883,4.883,0,0,0,0,9.75Z" transform="translate(-127.405 -93.38)"/>
          <path id="Path_365-2" data-name="Path 365" class="cls-3" d="M192.787,103.208c0-1.219-.087-2.264-.087-3.047h2.089c0,.7.087,1.393.087,2.176h.087a4.668,4.668,0,0,1,4.353-2.438c3.4,0,4.962,2.176,4.962,5.311v8.009H202.1v-7.835c0-2.176-.958-3.569-2.96-3.569-2.786,0-4,2-4,4.962v6.355h-2.176v-9.925Z" transform="translate(-129.67 -93.458)"/>
        </g>
        <g id="Group_327-2" data-name="Group 327" transform="translate(0 0.435)">
          <path id="Path_366-2" data-name="Path 366" class="cls-3" d="M19.819,92.5H22l8.358,19.675h-2.7l-2-4.788H15.814l-2,4.788H11.2Zm1.045,2.96h0l-4.179,9.663h8.009Z" transform="translate(-11.2 -91.107)"/>
          <path id="Path_367-2" data-name="Path 367" class="cls-3" d="M34.7,90.9h2.176v20.981H34.7Z" transform="translate(-14.241 -90.9)"/>
          <path id="Path_368-2" data-name="Path 368" class="cls-3" d="M39.5,90.9h2.176v20.981H39.5Z" transform="translate(-14.863 -90.9)"/>
          <path id="Path_369-2" data-name="Path 369" class="cls-3" d="M45.367,92.5a1.561,1.561,0,0,1,1.567,1.567,1.567,1.567,0,0,1-3.134,0A1.561,1.561,0,0,1,45.367,92.5Zm-1.045,6.616H46.5v12.972H44.322Z" transform="translate(-15.419 -91.107)"/>
          <path id="Path_370-2" data-name="Path 370" class="cls-3" d="M50.041,109.225a4.082,4.082,0,0,0,3.308,1.741c1.393,0,2.873-.609,2.873-2s-1.393-1.741-2.786-2.089c-2.438-.522-4.614-1.045-4.614-3.743,0-2.525,2.438-3.831,4.875-3.831a4.762,4.762,0,0,1,4.44,2.351l-1.828,1.219a3.017,3.017,0,0,0-2.786-1.567c-1.219,0-2.525.609-2.525,1.828,0,1.045,1.567,1.567,3.308,1.915,2.264.435,4.266,1.306,4.266,3.918,0,2.96-2.612,4.092-5.223,4.092a5.555,5.555,0,0,1-5.049-2.438Z" transform="translate(-16.001 -91.987)"/>
          <path id="Path_371-2" data-name="Path 371" class="cls-3" d="M67.507,100.985H63.676v6.529c0,1.654,0,2.96,1.915,2.96a5.1,5.1,0,0,0,1.915-.435l.087,2a6.438,6.438,0,0,1-2.525.435c-3.047,0-3.569-1.654-3.569-4.353V95.5h2.176v3.656h3.831Z" transform="translate(-17.71 -91.495)"/>
          <path id="Path_372-2" data-name="Path 372" class="cls-3" d="M75.565,99.4a6.793,6.793,0,1,1-6.965,6.791A6.631,6.631,0,0,1,75.565,99.4Zm0,11.666a4.791,4.791,0,1,0-4.614-4.788A4.576,4.576,0,0,0,75.565,111.066Z" transform="translate(-18.629 -92)"/>
          <path id="Path_373-2" data-name="Path 373" class="cls-3" d="M86.087,103.208c0-1.219-.087-2.264-.087-3.047h2.089c0,.7.087,1.393.087,2.176h.087A4.668,4.668,0,0,1,92.616,99.9c3.4,0,4.962,2.176,4.962,5.311v8.009H95.4v-7.835c0-2.176-.958-3.482-2.96-3.482-2.786,0-4,2-4,4.962v6.355H86.261V103.208Z" transform="translate(-20.881 -92.065)"/>
        </g>
      </g>
    </g>
  </g>
</svg>
