<svg xmlns="http://www.w3.org/2000/svg" width="556.7" height="159.9" viewBox="0 0 556.7 159.9"><style>.Arched_x0020_Green{fill:url(#SVGID_1_);stroke:#fff;stroke-width:.25;stroke-miterlimit:1}.st0{fill:none}.st1{fill:#6cb33f}.st2{fill:#00502f}</style><linearGradient id="SVGID_1_" gradientUnits="userSpaceOnUse" x1="-35.142" y1="178.293" x2="-34.435" y2="177.586"><stop offset="0" stop-color="#20AC4B"/><stop offset=".983" stop-color="#19361A"/></linearGradient><path class="st0" d="M248.4 60.5c-1.4 0-2.9.6-4.4 1.8-2.5 2-5.5 5.5-9.1 10.8-4.1 6.2-6.2 10.9-6.2 14.1 0 3 1.5 4.5 4.4 4.5 3.9 0 8.2-3.2 12.8-9.6 4.4-6.1 6.5-11.6 6.5-16.2.2-3.6-1.2-5.4-4-5.4zm48 30.4c3.1 0 9.1-6.8 17.8-20.4.8-2.6 1.7-5.5 2.9-8.5-1.3.4-2.5.9-3.8 1.7-3.6 2.2-7.3 5.5-10.9 9.8-3.9 4.5-6.5 8.6-7.7 12.4-.3.7-.4 1.4-.4 2.1.1 1.9.7 2.9 2.1 2.9z"/><path class="st1" d="M446.3 32.7h-11.4v53.5c3.8-.9 7.6-1.7 11.4-2.4V32.7zm24.8 0h-11.4v49.4c3.8-.3 7.6-.6 11.4-.6V32.7zM421 57.6h-10.7v36.5c3.5-1.4 7.1-2.7 10.7-3.9V57.6zm-10.7-24.9H421v14.4h-10.7zm-44.9 0H354v69.5c3.8.2 7.6.7 11.4 1.3V67.7h19.7v39.2c3.7-2.3 7.5-4.4 11.4-6.4V32.7h-11.4v23.5h-19.7V32.7zm-16 78.9c-39.2-1-73.6 19-89 48.3 19.4-22.2 52.1-36.3 88.6-35.3 3.8.1 7.5.4 11.2.8l6.3-5.4c2-1.7 4.2-3.5 6.4-5.2-7.4-1.9-15.3-3-23.5-3.2z"/><path class="st2" d="M435 96c-18.9 4.8-36 12.7-50.3 22.5-4.1 2.8-8.1 5.8-11.7 8.9 4.6 1 9.1 2.2 13.4 3.7 3.7-2.2 7.5-4.4 11.5-6.4 12.4-6.3 26-11.5 40.6-15.2 45.3-11.5 89.1-6.2 118.3 11.3-26-26.2-73.2-37.2-121.8-24.8zM135 77.9c-.4 0-1 .5-1.6 1.4-3.1 4.3-6.1 7.5-8.9 9.8-2.2 1.7-4.4 2.5-6.5 2.5-2.6 0-3.9-1.5-3.9-4.6 0-1.1.2-2.4.5-3.9.8-3 2.8-6.8 6-11.3 3.1-4.2 5.9-7.3 8.4-9.4 1.6-1.3 3.1-2 4.5-2s2.1.9 2.1 2.7c.7-.4 1-1.3 1-2.8-.1-1.3-.3-2.2-.6-2.7-1.3-2-3.4-3.1-6.3-3.1-3.5 0-7.2 2-11 5.9-3.8 3.9-6.6 8.3-8.5 13.3 0 .1-.1.2-.1.2-4.3 6.5-8.2 11.5-11.7 14.9-1.3 1.3-2.6 2-3.9 2-1.3 0-2.1-.9-2.1-2.8-.2-8.5 4.2-17.6 13-27.4-2.5-2.3-4.5-3.5-5.9-3.5-.3 0-.7 0-1 .1-1.1.4-2.8 2.2-5.2 5.5-1.6 2.5-3.2 5-4.9 7.4-.5.7-.4 1.4.4 1.8-.4.9-.7 1.7-1 2.6l-.6.9C82 83 79 87.5 77.9 88.8c-2.4 2.9-4.5 4.3-6.5 4.3-4.3 0-7.8-5.7-10.4-17-1.7-7.3-2.7-13.8-2.9-19.6-3.3.4-7.1 1-9.4 1.6C53.5 85 59.8 98.6 67.7 99c4.8.3 9.4-2.9 13.8-9.6 1.9-2.9 3.4-5.4 4.7-7.5l-.1 1.8c0 7.2 2.8 10.8 8.3 10.8 2.3 0 4.6-1.2 6.8-3.6 2.9-4 5.3-7.3 7.2-10.2-.1.7-.1 1.5-.1 2.2 0 3.5.9 6.4 2.6 8.5 1.8 2.1 4 3.2 6.8 3.2 2.5 0 5.1-.9 7.7-2.8 2.3-1.6 4.6-4 6.9-7.1 2-2.8 3-4.8 3-6.2.1-.4 0-.6-.3-.6zm24.6 5.3c2.3-4.3 4.5-7.8 6.5-10.6 4.7-6.4 7-10.8 7-13.1 0-1.3-.5-2.2-1.5-2.8-.6-.4-1.7-.7-3.4-.9-1.7-.2-2.7-.5-3.1-.9-8.7 9.9-15.5 17.6-20.3 23.1-.7.7-1.1 1.1-1.4 1.1-.3 0-.4-.4-.3-1.1 1.3-8.3 5.9-18.8 13.6-31.5 4.6-7.4 10.9-15.7 18.7-25 3.7-4.4 6.1-6.6 7.3-6.6.3 0 .4.2.4.6 0 1.3-1.4 4-4.3 8-2 2.8-4.7 6.2-8.2 10.3-2.9 3.5-6.7 8.7-11.3 15.5-5.8 8.5-9 14.1-9.6 16.8-.3 1-.2 1.5.3 1.5.3 0 .6-.4.9-1.1 1.1-2.8 4.8-8.1 11.2-15.9 5.2-6.2 10.4-12.3 15.6-18.6 6.9-8.1 10.5-14.8 10.9-20.1-.8-.4-1.8-1.7-3.1-4.1-1.2-1.9-2.6-2.9-4.4-3.1-3.1-.4-7.9 3.7-14.5 12.2-6 8-11.6 17.1-16.6 27.1-3.2 6.5-6.7 15.4-10.4 26.7-3.2 9.6-4.8 14.9-4.8 15.8 0 3.7 1.4 5.6 4.3 5.6 1 0 1.7-.4 2.1-1.1 3.1-5.5 5.5-9.7 7-12.7 1.7-2.6 4-5.5 6.9-8.7 2.9-3.2 4.8-4.8 5.6-4.8.3 0 .4.2.4.6 0 .7-.5 2-1.5 4.1-6.5 13-9.7 21.9-9.7 26.7 0 4.8 2.1 7.3 6.2 7.3 2.2 0 4.2-2.1 5.9-6.3.3-.7.3-1.2 0-1.3-.3-.1-.5.1-.9.7-1.7 1.5-2.9 2.6-3.8 3.4-.8.8-1.5 1.2-2 1.2-.8 0-1.3-.9-1.3-2.8 0-.9.1-1.9.3-2.9.6-3 2.4-7 5.3-12.3zm60.9-24.7c-1.8-1.6-3.6-2.4-5.7-2.4-1.7 0-4.7 3.1-9.1 9.4l-7.8 11.2c2.1-6 3.2-9.6 3.3-10.9.3-2-.3-3.6-1.6-5s-3.2-2.1-5.6-2.1c-1.3 0-2.6.7-3.8 2.2-1.2 1.4-2.3 3-3.4 4.5-.5.7-2.1 3.3-4.9 7.8-2.4 4.1-3.8 6.2-4 6.2v-.1c0-1.7 3.2-8.5 9.7-20.4 1.6-3 1.1-4.4-1.4-4.4s-4.5.6-5.9 1.8c-2 4.2-3.2 6.7-3.6 7.4-.4.9-.2 1.8.6 2.5-5.5 13.2-8.3 20.2-8.4 21-.2 1.8.3 3.2 1.3 4.3.8.9 1.7 1.4 2.9 1.4 1.1 0 1.7-.4 1.9-1.3.6-3.2 2.9-8.1 6.9-14.8 3.8-6.4 6.9-10.8 9.4-13.3 1-1 1.8-1.6 2.3-1.6.8 0 1.1.7 1.1 2.1 0 2.6-1.1 6.9-3.3 12.9-1.7 4.2-3.4 8.4-5 12.6 1.7 2.2 3.2 3.2 4.5 3.2 1.3 0 2.3-.9 3-2.8 1-2.3 3.1-6.2 6.4-11.7 3.8-6.3 6.9-11 9.4-13.8 1.5-1.7 2.7-2.5 3.7-2.5.6 0 .9.5.9 1.4 0 .6-.1 1.3-.4 2.3-.3 1-2.5 6-6.6 15C204.4 87 203 92.1 203 96c0 4.8 2.1 7.3 6.2 7.3 2.2 0 4.2-2.1 5.9-6.3.3-.7.3-1.2 0-1.3-.3-.1-.6.1-1 .7-1.6 1.5-2.8 2.6-3.6 3.4-.8.8-1.5 1.2-2 1.2-.8 0-1.3-.9-1.3-2.8 0-.9.1-1.9.3-2.9.8-4.5 4.8-12.1 11.8-22.8 1.8-2.9 3-5.9 3.5-9.1.2-1.6-.5-3.3-2.3-4.9zm33.2 1.2c-.7-1.2-1.4-1.8-2.1-1.7-1-.2-2.1-.9-3.3-2-1.2-1.2-2-1.7-2.5-1.7-3.6 0-7.5 2-11.6 6.1s-7.1 8.5-8.9 13.3c-1.3 3.2-1.9 6.2-1.9 9.1 0 3.4.8 6.1 2.5 8.2 1.7 2.1 3.8 3.3 6.4 3.5 3.8.2 7.9-1.9 12.3-6.3 7.1-6.9 10.7-14.2 10.7-21.9.1-2.5-.5-4.7-1.6-6.6zM246 82.1c-4.6 6.4-8.9 9.6-12.8 9.6-2.9 0-4.4-1.5-4.4-4.5 0-3.3 2.1-8 6.2-14.1 3.5-5.2 6.5-8.8 9.1-10.8 1.5-1.2 3-1.8 4.4-1.8 2.8 0 4.2 1.8 4.2 5.3-.1 4.7-2.3 10.1-6.7 16.3zm21.2-4.9c6.2-9 10-13.6 11.5-13.6.2 0 .3.1.3.4 0 .7-.7 2.5-2 5.3-3.4 6.7-5.1 12.4-5.1 17.1 0 5.4 2.3 7.9 7 7.5 2.9-.2 6.5-3.7 10.8-10.3-.1.6-.1 1.2-.1 1.8 0 1.6.8 3.3 2.5 5.3 1.6 1.9 3.4 2.9 5.3 2.9 4.1 0 9.2-5.3 15.2-15.8-.3 2-.5 4-.5 5.7 0 3.1.7 5.5 2.1 7.3 1.4 1.8 3.1 2.7 5.2 2.7 2.4 0 4.7-1.2 6.9-3.6 1.8-2 4.1-5 6.8-8.9 3.4-5 5-8.4 5-10.1 0-.3-.1-.4-.2-.4-.4 0-1.3.9-2.5 2.8-4.6 7.2-8.6 12.4-12 15.5-1.3 1.3-2.4 2-3.5 2-1.8 0-2.8-1.8-2.8-5.5 0-6.8 3.1-16.6 9.4-29.4 6.3-12.8 13.6-24.4 22-35 10.1-12.7 18.4-19 24.8-19 2.4 0 4.8.7 7 2.2.3.2.5.3.8.3.7 0 1-.3 1-1 0-1-1.6-1.9-4.8-2.7-2.5-.7-4.4-1-5.8-1C360 0 350 5.4 341.8 16.1c-7.8 10.2-15.3 23.6-22.4 40.3-.8-.7-1.7-1.1-2.6-1.1-5.4-.1-11.2 3.4-17.6 10.3-3.8 4.1-6.4 8.1-7.9 12-.3.3-.7.7-1.1 1.3-3.7 5.6-7 9.5-10.1 11.5-.8.6-1.6.8-2.1.8-1 0-1.5-.9-1.5-2.8 0-4.9 2.2-10.4 6.7-16.4 4.4-6 6.7-10.5 6.7-13.5 0-1.5-1-2.4-2.9-2.6-2.7-.5-4.2-.8-4.4-1-6.9 7.3-12.4 14-16.5 20.3-1.6 2.4-2.4 3.5-2.4 3.2 0-1.6 3.4-8.8 10.2-21.5 1.7-3 1.3-4.5-1.3-4.5s-4.6.6-5.9 1.8c-2.1 4.2-3.3 6.7-3.6 7.4-.4.9-.2 1.8.6 2.5-6 14.4-9.1 22-9.2 22.5-.2 1.8.3 3.2 1.3 4.3.8.9 1.7 1.4 2.9 1.4 1.1 0 1.7-.4 1.9-1.3.5-3.7 2.8-8.3 6.6-13.8zm27.5 8.6c1.3-3.8 3.8-8 7.7-12.4 3.6-4.3 7.3-7.5 10.9-9.8 1.3-.7 2.5-1.3 3.8-1.7-1.2 3.1-2.2 5.9-2.9 8.5-8.8 13.6-14.7 20.4-17.8 20.4-1.3 0-2-1-2-2.9 0-.6.1-1.3.3-2.1zM109.2 55c1.4-1.4 4.6-4.6 4.8-5.4.1-.4.2-.8.2-1.1 0-1-.8-1.9-2.4-2.7-1.3-.7-2.5-1-3.6-1-1.3.9-1.8 1.8-3.7 2.9-1.9 1.1-2.4 2.6-2.4 3.6 2.9.3 4.5 1.8 7.1 3.7zM36.6 78.3c0-12.3 11.9-32 35.7-59.1.5-.6 1.5-1.7 3-3.1 11 .9 16.5 4.1 16.5 9.4 0 1.8-.5 3.5-1.5 5.3-3.8 6.9-9.3 12-16.5 15.4-4.6 2.1-11.5 4-20.8 5.8-2.8.6-4.2 1.3-4.2 2.1 0 .2.1.4.2.5 3-.7 7.3-1.3 10.1-1.7 1-.2 2.4-.5 4.5-.9 3.4-.6 5.7-.9 6.9-1.1 5.6-.5 11-2.1 16.2-5 6.6-3.6 9.9-8.1 9.9-13.5 0-2.4-.8-5-2.3-7.7-.1 0-.3-.9-.6-2.7-.3-1.8-1.6-3.5-4-5-2.2-1.4-5.1-2.6-8.5-3.7-5.4-1.5-12.3-2.1-17.4-2.4-9.1-.5-18.9-.1-29.5 1.2-9.3 1.2-17.2 3.2-23.7 5.9C3.7 20.8 0 24 0 27.6c0 1.7 1.1 3.6 3.2 5.9 2.1 2.3 4 3.5 5.5 3.7.8.1 1.2 0 1.4-.1.2-.3 0-.6-.4-1-1.6 0-2.4-.6-2.4-1.8 0-3.2 3.6-6.5 10.8-10.1 6.9-3.3 14-5.4 21.5-6.3 10-1.3 18.1-2 24.3-2.1-7.5 9-14.3 18.8-20.4 29.4C35.9 58.4 32 68.5 32 75.4c0 2.3.7 4.7 2 7 1.5 2.6 3.2 3.9 5.2 3.9.6 0 1.1-.1 1.6-.4v-1.1c-2.8-.1-4.2-2.2-4.2-6.5z"/></svg>