<svg xmlns="http://www.w3.org/2000/svg" width="291" height="88" fill="none"><path fill="#fff" d="M291 0H0v88h291V0Z"/><path fill="#008996" d="M144.29 37.867v11.885c0 1.907.457 11.14-10.668 11.14-10.059 0-11.964-5.532-11.964-11.312V37.829a3.2 3.2 0 0 0-3.277-3.09v-.764h9.449v.763a3.226 3.226 0 0 0-3.124 3.129V50.59c0 6.028 3.982 8.756 9.144 8.756 7.183 0 8.821-4.655 8.821-9.1V37.81a3.188 3.188 0 0 0-3.239-3.072v-.763h8.078v.782a3.087 3.087 0 0 0-3.22 3.11ZM165.36 52.136l-3.429-5.093a7.298 7.298 0 0 0 4.82-6.505c0-7.269-8.458-6.505-9.068-6.505h-9.544v.763c.837-.016 1.647.3 2.253.879a3.19 3.19 0 0 1 .985 2.211v22.892h3.067V49.14c0-.381-.228-1.05 1.01-1.05 4.267 0 3.696-.114 5.068 1.908l2.038 3.415c2.057 3.033 3.81 5.227 5.506 7.288h3.905a54.824 54.824 0 0 1-6.611-8.566Zm-6.801-5.38c-1.79 0-4.172.191-4.172-.534v-9.538c0-1.469.819-1.392 2.191-1.392 3.81 0 7.296 1.545 7.296 6.142a4.953 4.953 0 0 1-1.436 3.884 4.959 4.959 0 0 1-3.879 1.439ZM219.541 60.72V33.9h3.353v26.822h-3.353ZM229.257 56.848V37.772a3.147 3.147 0 0 0-3.201-3.053v-.8h12.402c6.763 0 13.336 5.054 13.336 12.017 0 8.642-4.173 14.632-14.746 14.632H225.98v-.782a3.123 3.123 0 0 0 3.277-2.938Zm3.029-1.66c0 .61-.115 2.404.228 2.747a9.706 9.706 0 0 0 5.887 1.698c5.429 0 10.592-2.861 10.592-11.56a12.349 12.349 0 0 0-7.84-12.305 12.312 12.312 0 0 0-5.095-.82c-3.62 0-3.81.592-3.81 2.366l.038 17.874ZM95.14 55.322v-24.17a3.305 3.305 0 0 0-1.852-3.501 3.293 3.293 0 0 0-1.368-.314v-1.088h12.116c8.821 0 11.011 4.731 11.011 8.375 0 5.017-4.705 6.639-4.705 7 0 .726 7.868.878 7.868 9.062 0 3.243-2.401 10.435-12.174 10.435-1.79 0-4.8-.19-6.496-.19h-7.62v-1.126s3.448.4 3.22-4.483Zm3.924-.134c0 3.549-.248 4.598 6.858 4.598 6.649 0 8.459-4.35 8.459-7.306 0-2.957-.191-9.539-11.717-9.539-3.81 0-3.6.687-3.6 1.126v11.121Zm0-15.509c0 1.564-.59 1.908 3.905 1.908 8.211 0 8.611-3.014 8.611-5.323 0-5.322-4.553-8.336-9.525-8.336-3.22-.076-2.991.687-2.991 3.624v8.127ZM214.911 39.927h-1.181a7.29 7.29 0 0 0-7.296-4.903c-3.029 0-6.23 1.431-6.23 4.903 0 7.059 15.527 2.919 15.527 13.354 0 3.147-2.268 7.897-10.936 7.897-2.838 0-6.305-1.392-6.477-2.079l-.952-4.845h1.143a8.22 8.22 0 0 0 3.066 4.205 8.2 8.2 0 0 0 4.973 1.518c3.639 0 7.182-2.003 7.182-5.952 0-7.25-15.526-3.186-15.526-13.01 0-4.789 4.096-7.078 8.496-7.078a11.022 11.022 0 0 1 6.421 1.355c.58.337 1.044.843 1.333 1.45l.457 3.185Z"/><path fill="#008996" d="M268.025 37.943a2.439 2.439 0 0 0-.324-1.144c-.991-1.279-4.972-1.069-6.496-1.069-3.677 0-3.601-.133-3.601 2.385v7.001c0 1.278 0 1.278 1.467 1.278h4.458v1.679h-5.201c-.8 0-.705.63-.705 1.202v6.924c0 2.213-.286 3.11 2.915 3.11 8.82 0 10.135-3.815 10.63-3.815h1.124s-1.276 2.575-1.905 3.815a10.299 10.299 0 0 1-.991 1.583H251.47v-.82a3.255 3.255 0 0 0 3.117-2.415c.122-.457.144-.934.064-1.4v-17.17a3.436 3.436 0 0 0-1.729-3.86 3.424 3.424 0 0 0-1.452-.393v-.82h17.965v3.891l-1.41.038ZM194.527 33.899v27.585s-.857-.82-1.791-1.736l-16.193-17.78v18.695h-3.048V41.415c0-6.257-2.972-6.257-4.153-6.658v-.839h3.81c.419 0 .705.687.934.954l16.25 17.78 1.143 1.067V33.9h3.048Z"/><path fill="#EF7622" d="M224.38 24.094h-6.173v6.18h6.173v-6.18ZM44.026 68.847c4.898 0 9.687-1.454 13.76-4.18a24.792 24.792 0 0 0 9.121-11.129 24.831 24.831 0 0 0-5.369-27.026 24.735 24.735 0 0 0-26.99-5.376 24.773 24.773 0 0 0-11.114 9.134 24.823 24.823 0 0 0 3.08 31.314 24.75 24.75 0 0 0 17.512 7.263Z"/><path fill="#fff" d="M28.938 52.575a18.663 18.663 0 0 0-1.162 6.562c.133 1.355 1.676 2.27 2.82 2.67h26.251l.477-.209a5.72 5.72 0 0 0 2.781-6.028l-3.715-7.63-6.858-13.774-.514-.992a30.513 30.513 0 0 0-4.44 5.322 5.844 5.844 0 0 0 .344 5.57l7.525 15.548a1.47 1.47 0 0 1 0 1.03 1.24 1.24 0 0 1-.839.668H36.234c-.533-.248-.59-.84-.704-1.335.304-2.48 1.219-4.922 1.695-7.345l-8.287-.057Z"/><path fill="#fff" d="M38.425 49.37h-8.687l5.144-21.652a3.815 3.815 0 0 1 2.362-2.289l1.22-.21h16.478a6.02 6.02 0 0 1 3.81 2.442 5.307 5.307 0 0 1 .953 4.75c-1.6 2.137-3.353 4.12-5.2 6.162l-1.03-1.908-2.61-4.94a14.522 14.522 0 0 0 2.363-3.816 1.719 1.719 0 0 0 .114-1.373c-.476-.859-1.467-.802-2.324-.916a41.007 41.007 0 0 0-4.858 0l-1.105.744-6.63 23.006Z"/></svg>