<svg xmlns="http://www.w3.org/2000/svg" width="224.06" height="59.704" viewBox="0 0 224.06 59.704"><g transform="translate(-162 -243.647)"><g transform="translate(260.546 255.487)"><path d="M368.059,291.556l1.369-2.348a.881.881,0,0,1,1.293-.265c.191.113,3.27,2.347,5.742,2.347,1.977,0,3.459-1.288,3.459-2.916,0-1.931-1.635-3.257-4.828-4.545-3.574-1.439-7.149-3.711-7.149-8.179,0-3.371,2.51-7.271,8.556-7.271a13.421,13.421,0,0,1,7.6,2.537.934.934,0,0,1,.228,1.25l-1.444,2.158a1,1,0,0,1-1.331.454c-.3-.189-3.193-2.083-5.285-2.083-2.167,0-3.346,1.439-3.346,2.65,0,1.78,1.407,2.992,4.487,4.242,3.689,1.477,7.947,3.674,7.947,8.559,0,3.9-3.384,7.5-8.745,7.5a12.26,12.26,0,0,1-8.365-2.954c-.342-.341-.532-.53-.191-1.136" transform="translate(-367.861 -268.38)" fill="#303c42"/><path d="M425.918,290.723a8.71,8.71,0,1,0-8.707-8.672,8.745,8.745,0,0,0,8.707,8.672m0-22.343a13.633,13.633,0,1,1-13.651,13.67,13.636,13.636,0,0,1,13.651-13.67" transform="translate(-390.997 -268.38)" fill="#303c42"/><path d="M480.165,269.89a.746.746,0,0,1,.722-.719H484.5a.721.721,0,0,1,.723.719v15.49a5.536,5.536,0,1,0,11.064.037V269.89a.721.721,0,0,1,.723-.719h3.612a.747.747,0,0,1,.724.719v15.754a10.591,10.591,0,0,1-21.179,0Z" transform="translate(-426.388 -268.792)" fill="#303c42"/><path d="M541.532,273.715h-5.817a.721.721,0,0,1-.722-.72V269.89a.72.72,0,0,1,.722-.719H552.33a.72.72,0,0,1,.722.719V273a.72.72,0,0,1-.722.72h-5.817V294.96a.747.747,0,0,1-.722.72h-3.537a.747.747,0,0,1-.722-.72Z" transform="translate(-454.965 -268.792)" fill="#303c42"/><path d="M583.38,269.89a.747.747,0,0,1,.722-.719h3.537a.721.721,0,0,1,.722.719v10.036h12.4V269.89a.721.721,0,0,1,.722-.719h3.5a.747.747,0,0,1,.723.719v25.07a.746.746,0,0,1-.723.72h-3.5a.72.72,0,0,1-.722-.72V284.508h-12.4V294.96a.72.72,0,0,1-.722.72H584.1a.746.746,0,0,1-.722-.72Z" transform="translate(-480.186 -268.792)" fill="#303c42"/><path d="M367.841,338.4a.384.384,0,0,1,.386-.383h8.4a.384.384,0,0,1,.386.383v2.2a.384.384,0,0,1-.386.383h-5.62v2.911h4.627a.4.4,0,0,1,.385.383v2.2a.4.4,0,0,1-.385.385h-4.627v4.911a.4.4,0,0,1-.385.384h-2.395a.385.385,0,0,1-.386-.384Z" transform="translate(-367.841 -304.674)" fill="#303c42"/><path d="M399.5,344.054a1.623,1.623,0,0,0,1.542-1.617A1.552,1.552,0,0,0,399.5,340.9h-3v3.153Zm-6.19-5.659a.385.385,0,0,1,.386-.383h6.067a4.317,4.317,0,0,1,1.421,8.428l2.781,5.133a.383.383,0,0,1-.345.586h-2.7a.374.374,0,0,1-.325-.182l-2.7-5.355h-1.4v5.154a.4.4,0,0,1-.386.384H393.7a.385.385,0,0,1-.386-.384Z" transform="translate(-381.117 -304.674)" fill="#303c42"/><path d="M428.252,348.907a4.042,4.042,0,1,0-4.038-4.022,4.058,4.058,0,0,0,4.038,4.022m0-11.318a7.276,7.276,0,1,1-7.285,7.3,7.277,7.277,0,0,1,7.285-7.3" transform="translate(-395.532 -304.454)" fill="#303c42"/><path d="M457.347,337.953a.381.381,0,0,1,.385-.364h.508l8.1,7.761h.02v-7.175a.384.384,0,0,1,.385-.384h2.435a.4.4,0,0,1,.385.384v13.6a.381.381,0,0,1-.385.364h-.325a.6.6,0,0,1-.264-.1l-8.016-8.024h-.02v7.538a.385.385,0,0,1-.385.384h-2.415a.4.4,0,0,1-.386-.384Z" transform="translate(-414.494 -304.454)" fill="#303c42"/><path d="M492.587,340.982h-2.9a.385.385,0,0,1-.386-.384v-2.2a.385.385,0,0,1,.386-.384h9.01a.385.385,0,0,1,.385.384v2.2a.385.385,0,0,1-.385.384h-2.9v10.793a.4.4,0,0,1-.386.383h-2.435a.4.4,0,0,1-.386-.383Z" transform="translate(-431.149 -304.674)" fill="#303c42"/><path d="M515.871,338.4a.384.384,0,0,1,.386-.383h8.4a.384.384,0,0,1,.386.383v2.2a.384.384,0,0,1-.386.383h-5.62v2.506h4.626a.4.4,0,0,1,.386.383v2.2a.384.384,0,0,1-.386.383h-4.626v2.728h5.62a.385.385,0,0,1,.386.384v2.2a.385.385,0,0,1-.386.384h-8.4a.385.385,0,0,1-.386-.384Z" transform="translate(-444.999 -304.674)" fill="#303c42"/><path d="M542.48,337.953a.381.381,0,0,1,.386-.364h.507l8.1,7.761h.02v-7.175a.384.384,0,0,1,.386-.384h2.435a.4.4,0,0,1,.386.384v13.6a.381.381,0,0,1-.386.364h-.325a.6.6,0,0,1-.263-.1l-8.017-8.024h-.02v7.538a.385.385,0,0,1-.385.384h-2.416a.4.4,0,0,1-.384-.384Z" transform="translate(-458.868 -304.454)" fill="#303c42"/><path d="M581.46,347.089l-1.543-3.335h-.02l-1.522,3.335Zm-8.341,4.325,6.353-13.6a.41.41,0,0,1,.345-.223h.2a.412.412,0,0,1,.345.223l6.351,13.6a.357.357,0,0,1-.345.525h-2.252c-.365,0-.527-.121-.71-.506l-.731-1.6h-5.519l-.731,1.617a.755.755,0,0,1-.73.484h-2.232a.357.357,0,0,1-.345-.525" transform="translate(-474.817 -304.454)" fill="#303c42"/><path d="M611.438,337.958a6.836,6.836,0,0,1,4.911,1.879.375.375,0,0,1,.021.566l-1.583,1.637a.355.355,0,0,1-.507,0,4.157,4.157,0,0,0-2.739-1.03,4.136,4.136,0,0,0,.019,8.266,4.3,4.3,0,0,0,2.72-.971.4.4,0,0,1,.528.021L616.39,350a.4.4,0,0,1-.02.546,6.982,6.982,0,0,1-4.932,1.961,7.276,7.276,0,1,1,0-14.552" transform="translate(-490.993 -304.646)" fill="#303c42"/></g><g transform="translate(162 243.647)"><path d="M294.289,302.7v-3.872H267.78l3.706,3.872Z" transform="translate(-217.135 -272.41)" fill="#c6671d"/><path d="M305.755,325.684v-3.872H289.777l3.705,3.872Z" transform="translate(-228.601 -284.389)" fill="#c6671d"/><path d="M317.219,348.667v-3.872h-5.447l3.706,3.872Z" transform="translate(-240.066 -296.369)" fill="#c6671d"/><path d="M236.356,289.615l-3.395-3.6a7.582,7.582,0,0,0-12.775,5.488,7.477,7.477,0,0,0,1.48,4.469l2.408,2.76,2.038-3.494-1.008-1.186a3.673,3.673,0,0,1,2.661-6.224,3.965,3.965,0,0,1,3.108,1.593l3.45,3.677.087-.157h0Z" transform="translate(-192.328 -264.658)" fill="#00a176"/><path d="M255.264,339.552H260.6L236.32,313.826l-2.038,3.494Z" transform="translate(-199.676 -280.227)" fill="#5e6468"/><path d="M282.131,333.323h5.359l-29.967-31.449-1.974,3.553Z" transform="translate(-210.761 -273.998)" fill="#5e6468"/><path d="M249.7,303.158h0Z" transform="translate(-207.714 -274.666)" fill="#5e6468"/><path d="M237.71,352.637h5.26l-12.548-13.708-2.026,3.534Z" transform="translate(-196.608 -293.312)" fill="#5e6468"/><path d="M207.768,352.538l4.841,5.184h5.309l-8.44-9.038Z" transform="translate(-185.856 -298.397)" fill="#5e6468"/><path d="M162.594,312.955a19.038,19.038,0,0,0,1.787,1.115,4.519,4.519,0,0,0,4.566-.1c.705-.36,1.341-.751,1.956-1.13.582-.358,1.132-.7,1.707-.989.985-.5,1.335-.523,1.667-.385a9.251,9.251,0,0,1,1.748,1.142c1.315.988,3.017,2.267,5.2,2.267a5.916,5.916,0,0,0,1.726-.264,13.019,13.019,0,0,0,3.063-1.544c1.349-.842,2.224-1.349,3.084-1.177l-1.941-2.028a2.766,2.766,0,0,0-3.189-.088.1.1,0,0,1-.019.012,9.86,9.86,0,0,1-2.133,1.121c-1.03.314-1.842-.183-3.449-1.391a12.143,12.143,0,0,0-2.6-1.628,5.685,5.685,0,0,0-4.924.515c-.716.364-1.36.76-1.982,1.144-.576.355-1.12.689-1.688.979-.614.314-.646.3-.956.131a16.181,16.181,0,0,1-1.435-.9,16.305,16.305,0,0,0-2.315-1.379c-.154-.07-.309-.131-.464-.191v4.376q.294.192.593.395" transform="translate(-162.001 -276.94)" fill="#0076be"/><path d="M188.7,329.764a10.34,10.34,0,0,0-5.072,1.782,12.931,12.931,0,0,1-2.461,1.2c-1.032.311-1.843-.183-3.45-1.391a12.1,12.1,0,0,0-2.6-1.629,5.691,5.691,0,0,0-4.924.516c-.715.364-1.359.76-1.982,1.143-.575.354-1.12.689-1.687.98-.614.313-.646.3-.956.131a16.051,16.051,0,0,1-1.436-.9A17.34,17.34,0,0,0,162,330.3v4.525a18.889,18.889,0,0,0,1.731,1.078,4.52,4.52,0,0,0,4.566-.1c.705-.36,1.342-.752,1.957-1.13.582-.358,1.132-.7,1.706-.989.984-.5,1.334-.522,1.667-.386a9.375,9.375,0,0,1,1.748,1.142c1.315.988,3.016,2.268,5.2,2.268a5.92,5.92,0,0,0,1.726-.264,15.912,15.912,0,0,0,3.259-1.538,11.886,11.886,0,0,1,2.4-1.159,2.021,2.021,0,0,1,1.386.1,7.14,7.14,0,0,1,1.514.945l1.942-3.388a7.729,7.729,0,0,0-4.107-1.636" transform="translate(-162.001 -288.321)" fill="#0076be"/><path d="M163.732,357.735a4.52,4.52,0,0,0,4.565-.1c.705-.36,1.342-.751,1.957-1.13.583-.358,1.132-.7,1.707-.989.985-.5,1.334-.523,1.666-.386a9.34,9.34,0,0,1,1.748,1.142c1.314.987,3.017,2.268,5.2,2.268a5.892,5.892,0,0,0,1.726-.265,7.518,7.518,0,0,0,.767-.283s-4.924-4.49-5.35-4.81a12.105,12.105,0,0,0-2.6-1.628,5.683,5.683,0,0,0-4.924.515c-.715.364-1.359.76-1.981,1.144-.576.354-1.12.689-1.688.979-.613.314-.646.3-.956.131a16.233,16.233,0,0,1-1.435-.9A17.107,17.107,0,0,0,162,352.134v4.524a18.85,18.85,0,0,0,1.732,1.078" transform="translate(-162 -299.7)" fill="#0076be"/><path d="M233.59,276.308a18.217,18.217,0,0,0-17.3-13.256,17.746,17.746,0,0,0-17.618,20.765,1.959,1.959,0,0,0,1.24.027,9.887,9.887,0,0,0,2.132-1.121l.362-.224a13.8,13.8,0,0,1-.1-1.643,13.976,13.976,0,0,1,13.989-13.932,14.341,14.341,0,0,1,13.214,9.384Z" transform="translate(-180.982 -253.762)" fill="#00a176"/><path d="M229.039,266.194h3.955a27.523,27.523,0,0,0-26.853-22.547,27.181,27.181,0,0,0-27.2,27.1c0,.134.009.268.011.4a5.9,5.9,0,0,1,3.884-.7A23.294,23.294,0,0,1,206.14,247.52,23.647,23.647,0,0,1,229.039,266.194Z" transform="translate(-170.827 -243.647)" fill="#00a176"/></g></g></svg>