<?xml version="1.0" encoding="utf-8"?><!--Generator: Adobe Illustrator 15.1.0, SVG Export Plug-In--><!DOCTYPE svg PUBLIC "-//W3C//DTD SVG 1.1//EN" "http://www.w3.org/Graphics/SVG/1.1/DTD/svg11.dtd" [
	<!ENTITY ns_flows "http://ns.adobe.com/Flows/1.0/">
]><svg xmlns="http://www.w3.org/2000/svg" xml:space="preserve" width="931px" height="506px" x="0px" y="0px" overflow="visible" version="1.1"><path fill="none" stroke="#FFF" stroke-miterlimit="2.6131" stroke-width="0.5" d="M.25.25h930.625v505.3H.25z" clip-rule="evenodd"/><path fill="none" stroke="#006275" stroke-miterlimit="2.6131" stroke-width="0.216" d="M231.375 223.513v-13.574h4.397l4.381 9.718 4.49-9.718h4.363v13.574h-3.273v-9.06l-4.208 9.06h-2.837l-4.041-9.21v9.21h-3.272zM260.008 209.939v7.296c0 1.332.281 2.295.847 2.913.562.6 1.468.902 2.707.902.659 0 1.242-.093 1.729-.285.49-.185.881-.466 1.187-.823a2.44 2.44 0 0 0 .508-.995c.093-.357.151-.94.151-1.712v-7.296h3.382v7.653c0 2.048-.583 3.608-1.767 4.679-1.166 1.074-2.898 1.598-5.19 1.598-2.274 0-4.003-.524-5.169-1.598-1.184-1.071-1.767-2.631-1.767-4.679v-7.653h3.382zM278.15 223.513v-13.574h4.171l6.789 9.57v-9.57h3.272v13.574h-4.137l-6.844-9.66v9.66h-3.251zM300.029 223.513v-13.574h3.406v13.574h-3.406zM326.322 218.251c-.188 1.691-.974 3.063-2.404 4.079-1.41 1.033-3.214 1.54-5.413 1.54-2.483 0-4.456-.638-5.92-1.938-1.485-1.293-2.22-3.025-2.22-5.204 0-2.161.734-3.911 2.22-5.208 1.464-1.296 3.437-1.938 5.92-1.938 2.161 0 3.966.491 5.378 1.465 1.407.981 2.216 2.257 2.384 3.838h-3.701c-.227-.827-.679-1.468-1.355-1.883-.693-.432-1.599-.635-2.707-.635-1.352 0-2.425.395-3.214 1.167-.793.769-1.184 1.842-1.184 3.194 0 1.355.391 2.404 1.184 3.176.771.769 1.862 1.166 3.214 1.166 1.184 0 2.141-.247 2.857-.754.713-.487 1.128-1.184 1.238-2.065h3.723zM333.207 223.513v-13.574h3.406v13.574h-3.406zM347.676 216.519h3.121c1.149 0 1.959-.151 2.408-.432.467-.302.693-.786.693-1.465 0-.696-.203-1.204-.601-1.485-.395-.281-1.149-.415-2.274-.415h-3.348v3.797h.001zm-3.4 6.994v-13.574h8.044c1.578 0 2.802.415 3.701 1.225.889.823 1.321 1.955 1.321 3.403 0 1.444-.432 2.572-1.321 3.382-.899.81-2.123 1.225-3.701 1.225h-4.645v4.339h-3.399zM366.885 217.891h3.588l-1.821-4.188-1.767 4.188zm-6.054 5.622 6.429-13.574h3.272l6.181 13.574h-3.773l-1.242-2.875h-5.979l-1.222 2.875h-3.666zM382.146 223.513v-13.574h3.399v10.716h6.995v2.857h-10.394zM399.223 223.513v-13.574h3.406v13.574h-3.406zM416.703 212.687v10.826h-3.386v-10.826h-4.641v-2.748h12.668v2.748h-4.641zM430.744 223.513v-5.791l-5.921-7.783h4.322l3.389 4.854 3.345-4.854h4.301l-6.03 7.783v5.791h-3.406zM459.554 221.07c1.355 0 2.426-.397 3.215-1.166.771-.772 1.166-1.821 1.166-3.176 0-1.352-.395-2.425-1.166-3.194-.789-.771-1.859-1.167-3.215-1.167-1.352 0-2.425.395-3.214 1.167-.792.769-1.184 1.842-1.184 3.194 0 1.355.392 2.404 1.184 3.176.772.769 1.842 1.166 3.214 1.166zm-8.139-4.342c0-2.161.734-3.911 2.22-5.208 1.464-1.296 3.437-1.938 5.92-1.938 2.48 0 4.456.642 5.921 1.938 1.465 1.297 2.199 3.046 2.199 5.208 0 2.178-.734 3.911-2.199 5.204-1.465 1.3-3.44 1.938-5.921 1.938-2.483 0-4.456-.638-5.92-1.938-1.486-1.293-2.22-3.026-2.22-5.204zM474.586 223.513v-13.574h11.577v2.748h-8.178v2.614h7.484v2.741h-7.484v5.472h-3.399z" clip-rule="evenodd"/><path fill="#00544A" fill-rule="evenodd" d="M44.891 345.121c4.439 1.039 4.439 1.039 16.994 5.193 27.37 6.606 54.556 12.932 81.836 17.556.566.378.566.378 35.867 5.098 24.544 2.456 24.544 2.456 41.157 3.777 31.809 1.412 62.394 1.412 93.448-.378 29.356-2.456 58.524-6.229 86.841-8.874 0 .565 0 .565.377.565v-.942l31.147-4.531c42.1-7.362 85.709-15.386 127.432-22.088 17.934-2.265 35.205-4.154 52.388-5.664 11.608-.377 23.124-.658 34.639-.943 32.849.378 64.284 3.115 96.093 7.551 18.03 3.398 35.964 7.834 53.143 12.273 23.504 8.023 46.438 16.517 69.188 24.917h-1.228c-28.506-9.155-59.465-15.104-89.387-21.144-15.389-2.36-30.773-4.625-46.254-6.892-42.193-4.151-85.518-6.796-128.656-5.664-40.872 2.079-81.837 8.023-123.371 14.823-31.713 5.944-31.713 5.944-38.038 6.795-.096.188-.188.377-.285.566-27.089 5.475-27.089 5.475-27.751 5.852-27.562 4.909-55.217 9.91-83.63 13.214-34.454 3.21-69 5.57-104.302 5.004-9.725-.661-19.446-1.32-29.168-1.886-21.144-2.079-42.477-6.233-63.525-11.046-14.441-4.059-16.332-4.343-16.708-4.72-5.664-1.698-10.003-3.966-16.047-4.812v-.663c-6.888-2.075-13.687-4.72-20.763-7.55v-.565c-2.171-.566-4.062-1.513-5.005-1.605v-.662c-1.887-.47-1.887-.47-6.892-2.453v-.662c-2.737-.943-11.419-4.246-12.551-6.511-1.892-.001-5.099-1.983-6.989-2.929z" clip-rule="evenodd"/><path fill="#006275" fill-rule="evenodd" stroke="#006275" stroke-miterlimit="2.6131" stroke-width="0.216" d="M74.155 227.413c2.171-4.435 4.436-4.624 7.834-5.849 32.283-6.61 64.562-8.781 96.563-8.781 5.756.285 9.628-.282 9.628 6.233-.851.658-.851.658-2.548 1.036-29.83 0-60.884 3.303-90.618 11.611l-4.247 1.698c.566 3.115 15.007 5.286 16.328 6.137-.092.281-.092.281-7.361 2.264-12.555 1.417-24.447.851-25.579-14.349zm.658 80.235c.943 6.795 3.399 18.122 12.366 18.122 6.229-3.115 9.91-7.173 13.595-11.42 3.492-5.001 13.31-17.463 13.968-23.315-3.022.474-6.418 5.475-9.251 8.497-3.773 2.926-11.704 12.271-17.745 11.327 0-.851-.093-1.605-.189-2.36 9.252-17.745 20.482-33.418 33.037-47.575 2.833-5.663 10.102-10.287 13.028-15.103 4.339-4.624 4.624-5.001 4.528-10.099-3.773-9.532-10.665.377-15.481 5.005-3.869 2.83-8.682 5.283-14.064 7.831 2.741.004 5.382 0 8.023.097-7.361 8.4-14.912 17.179-22.276 26.996-2.075 1.32-8.023 10.006-10.099 13.779-.189.004-.377 0-.662 0-2.453 4.062-5.379 7.931-7.265 13.218h-.566c-.284 1.603-.566 3.302-.947 5zm45.592 2.268c.188 1.32.377 2.641.473 4.058 6.607 8.493 9.437.188 12.647-5.663 3.115-3.966 3.115-3.966 5.853-8.116 6.891-7.742 7.646-8.12 8.4-9.348 2.833-2.452 18.503-16.424 20.013-13.31-.663 1.417-1.417 2.834-2.171 4.247-2.549 1.228-6.607 11.611-9.533 14.537-3.588 6.418-11.611 17.179-.377 21.618 4.528-1.795 6.607-7.646 8.871-11.139 4.531-4.908 14.915-16.143 20.859-16.143-4.528 7.742-7.831 12.366-3.681 22.184 2.926 4.058 4.439 5.379 8.874 3.492 7.739-5.664 13.875-11.611 20.201-17.087.847-1.79 12.174-12.174 12.366-11.893-3.496 6.892-8.874 13.779-11.045 22.465.943 3.304 3.776 8.59 8.116 6.796 5.57-9.44 5.57-9.44 8.685-13.783 6.703-7.927 12.744-11.89 21.426-15.196.096.662.188 2.834-1.887 3.873-3.211 5.567-9.251 13.121-7.739 20.859 2.453 3.966 2.168 4.058 6.229 4.058 1.036-1.039 4.151-5.852 10.476-14.533 5.948-7.177 12.27-14.257 18.503-19.351 1.225-2.549 8.871-6.325 11.135-6.61 0 .378-.093.851-.189 1.324-4.15 6.041-8.493 13.214-12.74 20.197-2.645 6.137-2.645 6.137-3.777 9.817-.188 3.682 1.321 9.91 6.514 8.686 4.531-5.57 8.116-12.081 11.893-17.56 4.343-4.812 20.294-23.03 27.94-23.027.096.281.188.562.188.848-6.325 9.628-13.875 19.635-16.99 31.809 1.132 4.438 3.019 9.817 8.494 6.703 3.684-7.458 9.159-14.631 14.16-19.632 4.247-3.211 10.95-8.308 15.574-8.308a642.068 642.068 0 0 0-3.681 8.023c-1.794 8.967 1.321 16.517 10.573 20.578 2.645-.004 3.492-.947 5.097-1.605 13.591-11.801 25.202-21.426 41.157-27.658 3.111-.848 6.133-1.698 9.152-2.549 6.233.284 15.104-.188 20.012 1.416-9.251 4.247-9.251 4.247-30.207 15.008-6.229 3.87-15.666 8.12-7.55 16.239 4.062.47 9.159-4.816 11.516-6.422 9.536-5.475 9.536-5.475 10.572-6.418 14.822-8.686 30.584-16.99 46.254-20.39 1.887-1.509 2.642-1.887.566-3.492-6.418 0-13.499 4.247-20.294 4.247-4.627-4.624-19.728-2.172-21.899-6.606 0-5.098 16.047-11.234 18.407-11.231.47 3.019.47 3.019.847 3.773l.566-.281c1.701-6.984 14.349-6.703 15.766-11.138-.003-11.046-12.178-4.154-18.973-2.36-9.533 4.247-23.601 8.778-29.922 19.351-.943 5.756 3.492 4.908-5.571 6.795-10.099 3.304-21.237 7.551-30.866 14.064-3.584 1.605-10.006 6.137-14.819 4.72-2.833-4.246 6.041-17.556 8.305-18.499 1.605.565 4.154 3.773 5.571 5.001 12.082 3.776 23.882-9.91 30.207-16.99 3.208-7.457 2.642-13.12-4.438-16.99-15.385 0-33.13 16.047-42.666 28.129-1.414.565-1.414.565-8.778 2.075-3.4 1.228-3.4 1.228-8.871 3.776-.285.378-3.777 3.399-5.478 3.399 4.535-11.516 15.388-19.446 19.635-29.641 0-15.385-14.441-.943-18.877 2.645-6.041 5.567-12.555 12.081-19.824 17.652-1.698 2.452-5.852 4.527-8.023 8.116h-1.225c6.041-9.063 12.082-17.464 18.026-25.487 2.737-5.001.662-11.139-5.664-9.06-8.682 6.511-8.682 6.511-16.517 12.929-24.259 21.995-24.259 21.995-24.544 22.562-.754.377-.754.377-1.321.188.189-.188.377-.378.566-.47 5.19-9.44 13.875-16.802 18.5-25.11.381-3.776.569-6.702-1.887-9.155h-2.171c-6.607 5.663-12.932 13.875-22.369 17.934-.096.188-.188.377-.285.566 2.456.096 2.456.096 8.589-.659-.566 1.698-4.435 5.944-6.229 8.493-1.131.662-6.041 1.605-14.63 4.154-4.531 2.453-4.531 2.453-7.361 3.396 3.585-5.853 7.835-11.608 10.854-16.706 0-2.264-.281-2.264-.943-3.681 3.114-5.475 3.869-6.987.755-11.988-10.477-8.968-42.004 17.463-49.084 22.938-.754 1.132-2.36 2.264-3.115 3.303-4.624 1.225-8.682 2.549-14.064 4.624-1.228 1.132-4.624 3.869-7.269 3.869 4.909-7.927 10.288-15.1 14.442-21.896 6.795-4.531 6.514-15.199-2.171-14.067-4.528 2.737-9.437 7.08-14.723 11.046-4.532 4.72-11.423 9.344-16.802 15.007-2.268 1.698-2.549 2.268-9.817 8.874 0-.191-.093-.284-.189-.377.377-1.039 1.887-2.549 3.022-4.627 14.157-17.934 28.787-33.508 44.553-47.575 4.339-5.094 5.001-7.361 1.225-12.551-1.794 0-5.944.377-7.173 3.588-6.795 7.454-10.76 9.625-21.144 13.306 2.737.285 5.382.662 8.023 1.04-3.399 3.777-5.759 5.664-7.646 7.931-3.396 1.413-9.251 10.664-13.121 13.494-.47 1.04-8.116 10.761-9.814 12.555-.662 1.133-1.983 4.532-4.062 5.571v.943h-.566c-.566 1.228-1.225 2.456-1.887 3.776h-.662c-.847 1.983-3.303 5.664-3.773 7.173h-.662c-.755 1.794-1.606 3.588-2.457 5.383-.185 0-.377 0-.658-.004a657.597 657.597 0 0 1-3.777 9.161zm70.51-9.819c.473-.284 1.701-2.833 4.723-6.795 10.288-11.138 22.65-21.145 36.433-24.921 1.513.943 1.228 1.039.847 2.926-9.91 12.647-23.219 23.882-39.455 29.923-.943 0-1.79-.097-2.548-1.133zm165.755-21.994c6.795-5.286 17.837-14.064 25.861-13.214 0 6.23-21.711 23.69-25.861 13.214z" clip-rule="evenodd"/><path fill="#485E88" fill-rule="evenodd" d="M104.643 368.058h.377v.378h-.377v-.378z" clip-rule="evenodd"/><linearGradient id="SVGID_1_" x1="344.1011" x2="344.1011" y1="59.8662" y2="112.4559" gradientUnits="userSpaceOnUse"><stop offset="0" style="stop-color:#006275"/><stop offset="0.89" style="stop-color:#CAE1DC"/><stop offset="1" style="stop-color:#FFFFFF"/></linearGradient><path fill="url(#SVGID_1_)" fill-rule="evenodd" d="M359.184 59.871c25.134.147 56.559 2.806 96.031 14.723-2.268.096-2.268.096-7.554-.566-25.014.754-45.119 10.006-65.131 26.431-4.247 2.641-11.23 7.55-16.99 9.155-6.418 3.681-16.146 3.684-23.504.566-6.411-2.717-11.814-7.976-17.368-12.174-1.763-1.334-10.671-7.677-15.196-9.628-22.884-9.886-52.227-5.743-76.485.298 21.656-17.207 79.834-29.079 126.197-28.805z" clip-rule="evenodd"/><linearGradient id="SVGID_2_" x1="357.0444" x2="357.0444" y1="83.9414" y2="172.2388" gradientUnits="userSpaceOnUse"><stop offset="0" style="stop-color:#00544A"/><stop offset="0.76" style="stop-color:#88AEAB"/><stop offset="0.99" style="stop-color:#FFFFFF"/><stop offset="1" style="stop-color:#FFFFFF"/></linearGradient><path fill="url(#SVGID_2_)" fill-rule="evenodd" d="m367.834 116.92-.054-.005-.054-.005c-.654-.065-1.308-.129-1.963-.191l-.083-.008-3.345-.301V115.467a2.8 2.8 0 0 0 .401-.124l.005-.001.006-.002c.24-.095.529-.229.86-.391l.02-.01c2.468-1.26 4.778-2.662 7.161-4.067h-.005l.165-.095.137-.081h.003l.298-.171h-.003l.085-.048.216-.124h.007l.309-.173h-.007l.298-.162.018-.01.637-.346h.003l.317-.171h-.004l.294-.156.029-.016.645-.342h.003l.333-.175h-.004l.659-.343.055-.029.274-.143h.002l.67-.347h.004l.333-.171h-.004l.672-.343h-.003l.278-.14.062-.032.346-.174.339-.172.679-.343h.002l.341-.171h-.003l.234-.116.109-.055h.001l.353-.175h-.001l1.035-.515h.002l.346-.172h-.005l.704-.346h-.001l.696-.343.35-.172.349-.171h-.003l1.056-.519h.005l.35-.171h-.002l.267-.129.086-.042h.001l.36-.175h-.004l1.063-.514h.001l.354-.172h-.001l.717-.346.356-.172.71-.342h.003l.357-.172h-.003l1.08-.518h.002l.36-.172h-.001l.158-.075.202-.097h.001l.369-.175h-.002l.724-.343h-.004l.728-.343 1.094-.518h.005l.364-.171h-.002l.094-.043.273-.128h.006l.371-.171h-.007l.343-.154.457-.192.408-.171.409-.172h-.004l1.225-.518h.001l.407-.172h-.003l1.215-.518h.005l.804-.343h.001l.804-.346c20.617-8.798 35.842-14.349 62.283-11.575l.069.007.054.005.017.002.07.008.037.003.032.004.07.007.02.002a71.16 71.16 0 0 1 1.732.21l.019.002.023.003.029.004.013.001.04.005h.002l.043.006.008.001.034.004.019.002.023.003.029.004.013.002.04.005h.002l.042.006.009.001.033.005.019.002.023.003.03.004.013.002.039.006h.003c.841.118 1.682.252 2.52.404h-.005c11.251 2.043 20.512 5.614 26.552 15.753l.052.085h-.001l.103.172h.001l.046.079.058.096h-.002l.101.172.024.042.075.129h-.002l.097.171h.001l.039.07.058.102h-.002l.095.171.004.007.092.168h-.002l.092.172h.003l.083.161.007.011c5.625 10.812 5.531 20.125-1.951 30.128h.013l-.416.515h-.001l-.279.347h-.001l-.139.171h.002l-.415.515h-.01l-.151.175h.003l-.088.098-.062.073h-.002l-.153.171h.001l-.306.343h.001l-.311.347h.001l-.018.019-.137.153h-.005c-9.629 10.385-25.552 17.268-38.736 21.69h-.002l-.512.171h.003l-.108.035-.417.14h-.011l-.524.171h.018l-.523.166-.02.006h-.001l-.541.171-.541.171-.554.175h.001l-.015.005-.527.167h-.017l-.561.172h.011l-1.139.343-.005.001c-17.991 5.422-99.744 17.457-120.281 10.588-.678-3.039-.187-5.499.401-7.489h.003l.051-.172h-.003l.043-.137.012-.038.109-.343h.005l.06-.172h-.003l.03-.077c.765-2.226 2.194-4.171 4.194-5.476l.003-.003.005-.002.007-.005h.001l.008-.006.002-.002.006-.003.006-.004.003-.002.008-.005h.001l.007-.005.005-.003.012-.007.008-.005.004-.003.005-.002.007-.005h.001l.008-.006.002-.002.006-.003.006-.004.002-.001.008-.006.002-.001.007-.004.005-.004.003-.002.008-.005.024-.016h.001l.008-.005.003-.002c.093-.059.187-.118.281-.175h-.004c3.873-2.277 8.916-3.997 13.086-5.163h-.006l.184-.049.437-.123h.016l.648-.174h-.012l.457-.12.191-.052h.004l.652-.171h-.004l.18-.046.478-.125h.013l.669-.171h-.016l.492-.122.194-.049h.007l.707-.175h-.007l.259-.062.44-.109h.012l.713-.172h-.016l.535-.125.193-.046h.005l.735-.172h-.007l.358-.082.397-.093h.008l.75-.172h-.01l.571-.128.188-.043h.003l.76-.171h-.002l.102-.022.664-.149h.014l.792-.174h-.01l.608-.132.181-.04h.003l1.582-.343h.013l.8-.171h-.004l.579-.123.224-.048h.001l.825-.176.806-.171.808-.172h-.004l2.438-.519h.004l1.202-.256 1.334-.286 2.011-.437 1.228-.272 1.522-.344 1.823-.42 1.436-.341 1.112-.271 1.351-.337 1.677-.432 1.084-.288 1.298-.357 1.139-.323 1.194-.349 1.354-.409.826-.258 1.297-.418.985-.327 1.05-.36.877-.31.996-.365.995-.375.901-.348.362-.141.515-.206.796-.324.653-.271.915-.393.727-.329.898-.432h.002c.127-.065.254-.131.378-.197l.866-.487c.19-.114.373-.23.548-.348h.001c.087-.058.172-.117.255-.175l.007-.005.001-.001.006-.005.005-.003.002-.002.01-.006.005-.004.006-.004.001-.001.015-.011.007-.005.007-.005.003-.002.004-.003.008-.005.007-.005.004-.002.003-.003.007-.005.007-.005.005-.003.002-.002.007-.005h.001l.006-.005.005-.004.002-.001.007-.005.001-.001.005-.004.006-.004.001-.001.01-.007.005-.003.006-.005.043-.033h.001c.075-.057.148-.114.221-.172h-.003c.209-.168.408-.34.587-.518h.002a5.34 5.34 0 0 0 .166-.171l.044-.047.014-.016h.001l.006-.008h.001l.006-.007.001-.001.006-.007h.001l.005-.007.002-.002.007-.008.005-.005.002-.002.004-.006.003-.003.004-.005.003-.003.004-.005.003-.003.004-.004.003-.004.003-.004.004-.004.003-.003.004-.005.003-.003.004-.005c.098-.113.188-.227.271-.343h.004c.042-.057.082-.116.12-.174h-.003c.106-.168.198-.34.274-.515h.002a3.15 3.15 0 0 0 .127-.343h.002c.019-.058.036-.116.051-.175h-.005a3.13 3.13 0 0 0 .083-.514h.002c.007-.113.009-.229.004-.346h.002a3.37 3.37 0 0 0-.01-.172h-.002a3.406 3.406 0 0 0-.082-.514h.002c-.013-.058-.029-.117-.045-.176h-.002a4.25 4.25 0 0 0-.112-.342h-.001l-.028-.074v-.001l-.002-.005v-.002l-.001-.003-.002-.005-.002-.005-.001-.002-.001-.003-.002-.005-.002-.005-.001-.003v-.002l-.002-.005-.021-.049a2.783 2.783 0 0 0-.075-.171h-.001l-.077-.161-.001-.002-.001-.003-.002-.005c-.029-.058-.058-.117-.09-.175h-.003l-.259-.433-.223-.33c-3.829-5.163-13.076-7.033-19.268-8.64-6.86-1.748-9.278-2.075-16.396-2.812zm-3.247 1.523-.183-.076-.222-.095h-.009l-.423-.175h.006l-.136-.054-.286-.118h-.014l-.436-.171h.011l-.149-.055-.297-.117h-.022l-.467-.171h.02c-.164-.06-.322-.115-.474-.167l-.016-.005-.007-.003h-.001c-.185-.063-.36-.121-.523-.171h.003l-.257-.078-.008-.002-.015-.004-.005-.001-.018-.005h-.001l-.02-.005h-.001l-.018-.005-.004-.001-.015-.004-.007-.002-.012-.003-.01-.003-.009-.002-.012-.003-.006-.001-.037-.01-.021-.005-.016-.004-.005-.002-.012-.002-.008-.003-.081-.021h-.003a6.198 6.198 0 0 0-.483-.106c-.523.055-1.044.099-1.563.132l-.096.006h-.003l-.094.006-.071.004-.025.001-.096.005-.044.003-.052.002-.096.005-.018.001-.079.003-.086.004h-.01l-.096.004a41.666 41.666 0 0 1-4.26-.035l-.021-.001-.072-.005-.187-.012-.062-.004-.032-.002-.093-.007-.035-.002-.059-.004a44 44 0 0 1-3.115-.342h-.006c-.361-.053-.722-.11-1.082-.172h.004a52.778 52.778 0 0 1-1.823-.347h.005a53.39 53.39 0 0 1-2.171-.515h-.004c-.427-.11-.852-.225-1.275-.346h-.003c-.385-.11-.77-.225-1.153-.343h-.003l-.539-.171-.018-.006-1.276-.428-.945-.333-1.055-.394-.79-.308-1.002-.404-.557-.233-.794-.339-.957-.423-.769-.351-.756-.353-.457-.216-.938-.454-.733-.363-.606-.305-.535-.273-.807-.417-.586-.307-.628-.333-.889-.478h-.001l-.357-.193-.733-.402-.789-.437h-.001l-.612-.343h-.001l-.335-.188-.586-.33h.001l-.681-.385-.526-.301-.604-.346-.298-.171-.298-.171-.298-.172-.601-.346-.296-.171h.001l-.885-.515h-.003l-.3-.175h.001l-.239-.139-.055-.032-.295-.171-.295-.171-.295-.172h.001l-.597-.346-.295-.172-.295-.171-.59-.343-.301-.175-.297-.172h.001l-.594-.343h.001l-.249-.143-.05-.029-.305-.175-.299-.172-.597-.343h-.002l-.299-.171h.002l-.912-.518h-.001l-.606-.343h-.003l-.304-.171h.002l-.186-.104-.126-.071h-.001l-.309-.172h.001l-.215-.119-.094-.052-.311-.172h.003l-.631-.347-.004-.002-.309-.169h-.002l-.315-.172h.002l-.243-.131-.073-.04h-.001l-.317-.171h.002l-.201-.108-.125-.067h-.001l-.641-.343h-.005l-.325-.171h.004l-.268-.14-.061-.032h-.001l-.329-.171h.004l-.318-.164-.021-.011-.333-.172h.001l-.041-.021-.292-.15h-.004l-.339-.172h.005l-.29-.144-.054-.027h-.001l-.352-.175h.002l-.226-.111-.121-.06h-.001l-.349-.172h.001l-.037-.018-.313-.154h-.006l-.355-.171h.005l-.234-.11-.126-.061h-.002l-.37-.175h.004l-.321-.149-.045-.022h-.001l-.369-.172h.002l-.091-.042-.279-.13h-.007l-.378-.171h.003l-.118-.052-.27-.123h-.007l-.388-.171h.007l-.239-.103-.156-.069h-.005l-.398-.171h.009l-.371-.155-.038-.016h-.001l-.417-.175h.003l-.097-.04-.315-.132h-.009l-.42-.171h.004l-.128-.05-.297-.122h-.011l-.434-.171h.006l-.73-.285-.635-.232h-.011l-.479-.172h.013l-.211-.071-.28-.101h-.018l-.51-.172h.021a54.16 54.16 0 0 0-1.643-.518h-.027l-.584-.172h.021l-.272-.074-.331-.097h-.029l-.646-.175h.03c-.211-.056-.423-.11-.635-.163l-.002-.001-.021-.005-.007-.002h-.002a70.563 70.563 0 0 0-.695-.171h.004c-.18-.043-.359-.085-.539-.126l-.005-.001-.023-.005-.005-.001-.02-.005-.014-.002-.01-.003-.023-.005-.024-.006-.009-.002-.015-.003-.019-.004-.005-.001-.024-.005-.004-.001h-.001c-.259-.059-.52-.116-.781-.171l-.011-.002-.03-.007-.006-.001-.034-.007h-.002l-.037-.007-.001-.001-.072-.015-.01-.002-.535-.112-.007-.001a62.299 62.299 0 0 0-1.898-.361h-.017a87.58 87.58 0 0 0-1.025-.171h.006a77.004 77.004 0 0 0-3.855-.518h-.033a83.12 83.12 0 0 0-1.759-.172l-.049-.004-.175-.015-.037-.003-.05-.004a88.564 88.564 0 0 0-2.017-.145h-.012c-4.612-.277-9.342-.21-14.104.119l-.103.007-.079.006-.023.001-.103.007-.103.008-.043.002-.06.004-.103.008-.103.007-.008.001c-1.299.096-2.601.212-3.904.346h.011c-.981.102-1.963.211-2.945.332l-.042.006h-.005l-.047.006c-.88.107-1.759.221-2.638.342h.022c-.411.057-.821.116-1.231.175h-.013l-.98.147-.013.002c-.443.068-.888.137-1.33.208h-.003l-.01.001-.026.004-.022.004-.014.002-.034.006h-.002l-.036.006-.01.001-.026.004c-.938.149-1.87.31-2.803.473h.036l-.979.175h-.025l-.492.092-.441.079h.021l-.916.172h-.021l-.422.083-.47.088h.022l-.872.171h-.021l-.499.103-.366.072h.015l-.834.172h-.014l-.397.084-.423.087h.014l-.808.172h-.015l-.465.102-.324.069h.01l-.799.176h-.011l-.35.079-.418.092h.013l-.757.171h-.014l-.458.107-.287.065h.008l-.734.171h-.012l-.559.133-.166.039h.004l-.733.175h-.004l-.173.042-.543.129h.012l-.702.171h-.013l-.629.157-.061.015h.001l-.69.171-.371.093-.106.083h.004l-.213.171h-.003l-.078.065-.132.106h.006l-.204.172h-.004l-.123.107-.077.064h.003l-.201.175h-.007l-.38.342h-.005l-.556.515h.003l-.185.175h-.003l-.117.113-.062.059h.001l-.178.172h-.002l-.083.083-.091.088h.002l-.173.172h-.001l-.045.046-.129.128h.003l-.168.171h-.004l-.133.14-.031.032-.163.171h-.002l-.156.167-.005.005-.161.171h-.003l-.477.518h.004l-.154.172h-.001l-.019.021-.135.15h.004l-.153.175h-.002l-.141.164-.007.008-.147.172-.014.016-.133.155h.001l-.145.172h-.003l-.123.148-.022.026-.141.171-.06.074-.081.098h.001l-.14.171h-.002l-.058.074-.08.098h.003l-.134.171h-.002l-.266.346h-.001l-.09.119-.041.053-.258.343h.004l-.13.175-.009.013-.118.159h.004l-.248.343h.003l-.121.172h-.003l-.104.152-.016.023-.118.172-.025.037-.091.134h.001l-.231.343h.004l-.112.171h-.001l-.053.083-.061.092h.002l-.109.172h-.003l-.086.141-.02.031h.001l-.106.171h-.001l-.065.109-.038.062h.001l-.104.175h-.002l-.09.155-.01.017-.1.171-.006.01-.094.162h.002l-.098.171h-.003l-.066.122-.03.054h.001l-.093.171-.186.343-.007.014-.085.158h.003l-.09.172h-.002l-.047.096-.042.079h.002l-.085.172h-.003l-.08.157-.001.003-.165.343h.001l-.083.175h-.002l-.057.125-.021.045-.077.171h-.002l-.05.114-.026.058h.001l-.149.343h.004l-.145.346h.003l-.069.171h-.003l-.131.343h-.002l-.032.088-.034.087h.002l-.063.172h-.004l-.119.343h-.001l-.021.062-.038.109h.001l-.058.175h-.002l-.03.097-.025.075h.001l-.054.171h-.002l-.031.106-.02.065H215l-.051.171h-.002l-.043.154-.005.018-.049.174h-.003l-.043.167-.001.005-.089.343h.001l-.087.347h.004l-.04.171h-.002l-.013.065-.025.106h.002l-.035.172h-.001l-.033.168v.003l-.069.347h.004l-.062.342h.003l-.027.172h-.003l-.017.128-.007.042h.001l-.023.175h-.002l-.043.343h-.001l-.006.054-.014.118h.003l-.018.172-.017.175-.011.099-.017.244h.002l-.011.171h-.001l-.009.163v.009l-.01.174v.011l-.009.161h.004l-.005.171h-.003l-.006.343-.003.171h.002l-.001.175h-.009l.007.343.003.171.003.172.001.025.003.15h.003l.007.172h-.004l.031.514h.001l.011.171h-.002l.006.065.007.11h.003l.016.171h-.001l.014.139.003.033.017.171.001.008.016.164h.003l.021.175h-.007l.076.514.025.172h-.001l.013.076.014.099h.002l.03.172h-.004l.096.514h.002l.033.171.005.028.028.147h.003l.036.171h-.002l.026.115.012.057h.001l.078.343h.003l.042.175h-.004l.036.134.009.038h.001l.046.171h-.002l.093.343h-.001l.009.03.04.145h.003l.05.171h-.001l.046.155.005.017.103.343h.003l.055.171h-.003l.036.104.022.07h.002l.059.172h-.003l.179.515h.005l.064.175h-.005l.199.515h.002l.067.171.006.014.063.161h.004l.072.171h-.003l.219.515h.003l.075.171h-.002l.041.088.038.087h.002l.152.329.165.357h.005l.085.175h-.001l.048.096.038.076h.001l.174.343h.003l.089.171h-.003l.07.13.021.042h.001l.188.346.093.171.005.009.087.163h.005l.098.171h-.003l.095.161.008.014.202.343h.002l.102.171h-.001l.027.043.076.128h.004l.109.175h-.003l.322.515h.005l.111.171h-.006l.35.518h.002l.116.172h-.002l.04.056.078.116h.003l.121.172.243.346.121.172h.004l.125.171h-.005l.262.346h-.001l.097.127.034.044.13.171.009.011.122.161h.003l.134.171.004.005.13.167h.001l.273.346h.005l.138.171h-.002l.069.083.071.089h.003l.143.171h-.002l.436.518h.004l.149.172h-.003l.306.347.005.005.146.166h.002l.153.171h-.005l.315.343.001.001.157.17h.001l.162.175h-.002l.068.071.093.1h.002l.164.172h-.001l.112.116.052.055h.001l.335.347h.004l.169.171h-.005l.518.515h.002l.174.172h-.001l.039.037.14.139h.004l.179.171h-.002l.361.343h-.001l.05.046.132.125h.003l.189.175h-.003l.562.515h.004l.189.171h-.004l.174.154.024.021.195.171.195.172.391.343h.007l.202.171h-.003l.208.175.408.343h.005l.208.172h-.004l.429.346h-.001l.084.067.128.104h.001l.214.172h-.006l.195.151.025.02.221.172h-.002l.666.518h.007l.226.171h-.003l.457.343.004.003.229.172h.005l.232.172h-.003l.208.15.028.021.473.343h.001l.244.175h-.005l.201.141.042.031h.001l.49.343h.001l.246.172.011.007.239.168h.007l.252.172h-.002l.19.127.063.043.51.343h.007l.26.171h-.005l.799.519h.004l.268.172h-.007l.553.347h-.001l.168.104.106.066.275.171h-.005l.218.132.063.04h.001l.565.343h.001l.289.174h-.002l.049.029.235.143h.006l.29.171h-.005l.587.343.005.003.294.171h.006l.3.172h-.001l.604.343.02.011.283.16h.006l.316.175h-.003l.29.159.022.013.625.343h.006l.317.171h-.004l.29.154.033.018.651.346h.008l.329.171h-.007l1.012.518h.008l.341.171h-.006l1.039.515h.005l.358.175h-.006l.712.343h-.002l.118.055.24.116h.004l.362.171h-.004l.293.136.075.036h.001l.743.346h.008l.375.171h-.005l.318.144.062.028h.001l.771.347h.01l.387.171h-.006l.787.343h-.001l.056.024.338.147h.009l.413.175h-.007l.821.343h-.001l.046.02.366.152h.005l.416.171h-.003l.18.073.239.099h.003l.431.175h-.006l.257.102.171.069h.004l.434.172h-.002l.135.053.3.119H257l.441.172h-.011l.411.156.048.019h.001l.453.172h-.002l.149.056.304.115h.004l.458.171h-.007l.464.171.002.001.94.346h.014l.478.171h-.009l.403.142.085.03h.002l.488.171h-.006l.389.134.104.037h.002l.507.175h-.001l.066.022.432.149h.008l.507.172h-.015l1.043.343.034.011.498.164h.01l.533.172h-.007l.302.095.236.077h.006l.543.171h-.011l.452.139.104.033h.002l.557.171.023.007.546.168h.012l.568.171h-.007l.317.094.26.078h.006l.581.171h-.011l.404.116.189.056h.006l.609.175h-.004l.138.039.462.132h.015l.618.172h-.011l.404.109.224.062.641.172h-.013l.535.141.124.034h.003l.65.172h-.002l.69.182.185-.182 1.084-1.033h-.001c8.172-7.481 18.785-11.829 29.345-14.717l1.358-.354 1.225-.303 1.554-.363 1.634-.355 2.149-.436h-.006c.308-.059.613-.117.918-.172l.034-.006.006-.001.038-.007h.002l.04-.007h.001l.038-.007h.005l.034-.006.009-.002.031-.005.013-.002.027-.005.016-.003.023-.004.02-.003.02-.003.023-.004.087-.016.008-.001.035-.006.004-.001.47-.082h-.007c.515-.09 1.027-.175 1.537-.257l.024-.004.01-.002.035-.005h.002l.095-.015.007-.002.035-.005h.005l.03-.005.018-.003.017-.002.03-.005h.004l.035-.005.008-.001.026-.004.021-.003.014-.002.033-.006h.001l.035-.005.011-.002.023-.003.024-.004c2.16-.336 4.016-.556 6.233-.69h-.008c8.899-.517 15.539-1.07 24.159-2.236h.009l.285-.04.974-.132h-.028l1.257-.175h.022l.619-.09.589-.082h-.021l1.19-.172h.024l.715-.107.445-.064h-.015l1.147-.171h.019l.481-.075.671-.1h-.026l1.103-.171h.019l.423-.069.664-.103h-.027l1.057-.171h.027l.463-.079.569-.093h-.031l.998-.171h.028c.665-.114 1.307-.23 1.924-.346h.007a95.153 95.153 0 0 0 1.775-.344h.002c.215-.043.427-.087.634-.13l.006-.001.045-.009.025-.006.005-.001.021-.004.018-.003.008-.002.025-.005.004-.001.021-.004.017-.003c.274-.058.54-.117.796-.175l.019-.004.017-.004.019-.004.018-.004.018-.004.018-.004.018-.003.019-.004.017-.004.018-.004.017-.004.019-.004.016-.004.02-.004.016-.004c.665-.151 1.261-.3 1.771-.447l.005-.001.022-.006h-.001c3.446-.981 9.433-2.257 10.896-5.337l.004-.008v-.001c.081-.166.141-.334.185-.506h-.002c.029-.115.051-.229.064-.346h-.001c.007-.058.012-.114.016-.171h.002a2.634 2.634 0 0 0-.003-.344h.003a2.949 2.949 0 0 0-.044-.346h.003a3.584 3.584 0 0 0-.13-.514h-.002c-.019-.059-.041-.117-.063-.176h.004a5.126 5.126 0 0 0-.229-.514h-.007l-.089-.171h.004l-.041-.073-.004-.008v-.001l-.047-.09h-.006a5.666 5.666 0 0 0-.217-.347h-.008l-.118-.171h.006l-.062-.081-.062-.09h-.007l-.131-.172h.007l-.095-.115-.046-.06h-.004l-.142-.171h.005l-.06-.066-.087-.106h-.008l-.155-.171h.005l-.088-.091-.073-.081h.004l-.168-.174h.005l-.091-.089-.08-.083h-.005l-.175-.171h.006l-.098-.089-.084-.082h-.005l-.187-.171h.006l-.119-.104-.073-.067h-.004l-.2-.175h.005l-.122-.102-.08-.069h-.004l-.206-.172h.004l-.093-.074-.117-.097h-.005l-.214-.171h.007l-.173-.132-.054-.043h-.002l-.224-.171h.002l-.077-.056-.15-.116h-.006l-.232-.171h.008l-.196-.139-.045-.033h-.001l-.242-.171h.003l-.133-.091-.118-.084h-.003l-.249-.171h.005l-.163-.109-.09-.062h-.003l-.258-.171h.003l-.134-.087-.127-.085h-.004l-.27-.175h.003l-.085-.053-.183-.119h-.007l-.275-.172h.004l-.167-.102-.111-.069h-.003l-.281-.172h.002l-.083-.049-.206-.125h-.005l-.289-.171h.002l-.108-.063-.183-.109h-.003l-.295-.171h.007l-.196-.11-.106-.062h-.003l-.305-.171h.007l-.943-.518h-.009l-.319-.171h.005l-.198-.104-.127-.068h-.003l-.336-.175h.007l-.328-.167-.009-.004-.337-.172h.001l-.097-.049-.242-.123h-.004l-.343-.171h.003l-.107-.052-.246-.123h-.007l-.354-.171h.007l-.21-.099-.149-.072h-.005l-.367-.172h.004l-.194-.089-.176-.082h-.004l-.375-.172h.009l-.344-.154-.047-.021h-.001l-.386-.172h.006l-.169-.073-.222-.099h-.008l-.4-.172h.01z" clip-rule="evenodd"/><path fill="#006275" fill-rule="evenodd" stroke="#006275" stroke-miterlimit="2.6131" stroke-width="0.216" d="M482.87 284.713c2.738-12.84 6.607-19.731 12.933-30.492.943-.47 6.515-8.209 6.606-8.494h.566c6.796-9.251 16.709-16.332 25.014-22.561 6.514-3.773 6.514-3.773 7.08-4.436 15.766-7.646 33.322-15.951 49.935-9.721 7.173 5.475 8.967 8.401 10.287 17.934h5.476l.281.566a304.452 304.452 0 0 0-5.001 2.737c-4.344 4.343-4.721 11.708-11.42 15.858-17.086 2.926-17.086 2.926-17.56 2.737 0-6.703 11.516-15.008 15.67-17.556 4.061-4.247 4.812-7.739 5.097-11.893-1.417-4.25-2.926-4.25-7.173-5.097-26.619 2.36-53.238 21.614-70.229 42.855-.943.754-3.491 4.716-5.189 6.606-6.515 9.814-21.618 34.073-7.554 44.645 18.973 6.326 39.74-10.099 53.52-19.161 6.422-5.001 13.217-10.477 18.503-15.762.474 0 .848 0 1.228.093 1.791 3.021-6.891 16.143-10.006 18.502-.851 3.585-13.687 13.214-18.407 16.613-11.8 6.511-25.864 14.346-40.306 9.248-10.949-5.663-15.95-13.117-18.877-25.106-.096-2.737-.285-5.474-.474-8.115zm91.277 11.042c1.417 6.418 6.137 15.292 13.782 15.292 6.229-3.115 10.572-8.212 15.008-12.178 7.361-5.382 24.07-18.784 31.81-17.556-3.681 6.04-7.361 11.893-10.761 19.35 0 3.966.946 9.345 6.229 9.345 10.668-14.727 10.668-14.727 11.423-16.236 6.04-5.663 20.67-25.295 29.071-25.295.096.281.188.566.188.848-5.567 7.364-11.042 17.179-15.385 26.241-1.698 5.476-2.926 14.346 5.948 13.498 1.225-1.32 1.225-1.32 8.212-12.743 5.283-5.944 15.008-15.48 22.369-15.478-3.211 5.379-7.08 11.42-9.533 18.215-.377 4.531.188 5.948 4.059 9.629 8.778-.755 9.155-12.178 15.104-15.104 6.04-6.699 17.652-14.441 25.957-14.441 0 .188 0 .47-.093.755-3.588 5.57-9.44 12.366-11.611 19.728.188 3.211 2.83 10.949 7.364 7.931 7.361-9.159 13.684-19.069 21.237-26.996 6.606-6.041 12.552-10.479 19.161-14.35a.741.741 0 0 1 .378.378c-.188.284-1.794 3.873-2.456 4.153-.474 5.853 3.776 7.551 8.308 9.44.189-.188.378-.377.471-.474-3.208-6.51 11.233-19.916 14.349-24.447 1.32-5.097 0-6.322-2.737-9.062-4.062-.282-6.137 1.513-10.099 4.343-11.708 10.194-22.938 19.539-34.173 30.773-.188-.097-.374-.097-.566-.097 1.04-1.979 1.04-1.979 8.212-12.178.662-.281 7.554-9.155 8.213-9.437 3.492-5.286 3.303-8.497 0-12.836-1.225-.096-1.51-.381-3.773.188-6.041 7.077-11.234 13.121-20.675 18.403 0 .192-.093.474-.188.759 2.834-.285 5.664-.566 8.4-.852-.847 2.642-4.246 6.326-6.702 9.156-2.642.377-2.642.377-12.455 2.833-3.78 1.698-11.989 3.869-15.766 7.643-.285-.093-.566-.093-.851-.093-1.321-1.982 16.612-24.163 18.125-26.9a480.257 480.257 0 0 1 2.926-2.645c6.322-.662 20.671.093 20.671-8.116-4.062-2.456-10.571 2.642-14.16.282 3.681-4.154 15.67-14.253 15.67-18.218-6.325-.566-14.727 4.343-20.859 8.119-.474 4.343-6.325 9.722-10.103 13.783-5.286 1.132-10.572 1.79-16.517 4.15 0 2.075 0 2.075.377 2.834 3.399.847 7.835-.474 10.669-.474-6.892 8.967-6.892 8.967-12.744 17.464-3.966.847-7.931 1.982-12.84 3.491-4.623 2.549-4.623 2.549-9.532 5.757-.47-2.642 4.627-9.156 5.475-10.477 4.627-6.229 10.949-13.31 13.591-19.351-1.979-11.042-7.361-6.418-14.156-1.697-10.854 9.532-22.373 20.104-33.699 30.77a.734.734 0 0 0-.378-.378c5.29-8.777 11.708-16.894 17.841-23.785 2.172-4.909 2.264-10.384-3.681-10.384-7.173 6.418-13.217 12.933-22.938 18.407 4.059.093 7.835-.566 9.252-.377-1.891 2.736-3.777 5.475-5.76 8.212-1.413.754-1.413.754-13.214 3.965-5.57 2.453-11.23 4.909-16.897 7.458-5.659 3.584-14.818 10.099-22.558 10.099-.473-.755-.943-1.513-1.509-2.171.847-4.628 5.756-15.481 9.532-16.425 3.962 4.343 5.853 5.379 11.234 5.663 2.264-.943 4.528-1.794 6.699-2.645 10.195-6.418 28.506-21.236 13.783-31.901-7.176-2.36-24.64 8.212-29.733 13.779-10.195 7.835-16.235 16.235-21.24 29.071-.282 2.745-.282 2.745-.756 3.592zm23.223-21.711c2.168 4.343 4.905 3.022 8.493 2.36 7.835-3.869 13.499-8.967 17.275-15.385a2.2 2.2 0 0 0-.662-.662c-8.119-.28-18.029 8.024-25.106 13.687zm176.508 16.991c1.514-5.663 3.4-9.344 5.383-13.875h.662c.847-2.642 3.962-6.041 5.001-7.835h.662c-.004-.281 0-.47 0-.659.188-.003.377-.003.562-.003 1.89-4.34 12.651-11.704 15.292-13.684 9.914-5.76 26.996-18.691 29.642.377-1.229 8.494-7.269 12.552-14.349 19.162-6.419 3.962-10.854 7.457-18.785 4.15-3.681-3.584-3.681-3.584-3.965-4.246-1.51 0-13.684 15.292-8.401 18.595h3.777c10.291-5.189 20.485-10.287 30.677-15.384 6.987-2.738 14.445-5.383 20.863-5.006.093.663.093 1.417.093 2.172-.281.285-.566.566-.943.943-12.933 3.021-22.562 8.497-34.358 16.993-14.441 12.552-14.441 12.552-16.99 14.253-1.135-.003-2.267.093-3.491.186-4.439-1.036-8.971-6.795-10.761-10.946-.19-1.794-.381-3.495-.571-5.193zm23.032-20.483c3.873 5.383 8.781 2.172 13.217.188 1.51-1.228 13.876-10.476 11.894-13.875-8.684.001-17.462 7.836-25.111 13.687zM816.356 364h.378v.281h-.378V364zm3.776.944c.189-.096.378-.188.474-.285.093.192.189.381.186.57a4.39 4.39 0 0 0-.66-.285z" clip-rule="evenodd"/></svg>