<svg width="230" height="68" viewBox="0 0 230 68" fill="none" xmlns="http://www.w3.org/2000/svg">
<g clip-path="url(#clip0_1606_731)">
<path d="M69.293 21.3794H73.4982L80.0272 38.0165L86.5177 21.3794H90.631L81.6298 43.1804H78.2911L69.293 21.3794Z" fill="#005596"/>
<path d="M98.9208 21.3794H102.446L111.961 43.1804H107.949L105.753 37.9571H95.5198L93.291 43.1804H89.4062L98.9208 21.3794ZM104.364 34.5858L100.621 25.9289L96.9087 34.5858H104.364Z" fill="#005596"/>
<path d="M114.568 33.9982V21.5337H118.37V33.8438C118.37 37.8622 120.447 40.0286 123.843 40.0286C127.238 40.0286 129.285 37.9868 129.285 33.9982V21.5337H133.09V33.8082C133.09 40.272 129.44 43.5187 123.783 43.5187C118.127 43.5187 114.568 40.2749 114.568 33.9982Z" fill="#005596"/>
<path d="M137.359 32.4197V32.3603C137.359 26.3002 141.998 21.166 148.521 21.166C152.296 21.166 154.614 22.2166 156.831 24.1041L154.418 26.9798C152.747 25.5583 151.109 24.659 148.358 24.659C144.369 24.659 141.336 28.155 141.336 32.298V32.3603C141.336 36.8119 144.274 40.0912 148.696 40.0912C150.568 40.1119 152.397 39.5384 153.922 38.4531V34.3991H148.399V31.0931H157.614V40.1832C155.107 42.3543 151.903 43.55 148.586 43.5516C141.814 43.5516 137.359 38.7291 137.359 32.4197Z" fill="#005596"/>
<path d="M162.562 21.5366H166.367V30.5348H176.692V21.5366H180.496V43.1803H176.692V34.0575H166.367V43.1803H162.562V21.5366Z" fill="#005596"/>
<path d="M193.734 21.3794H197.26L206.784 43.1774H202.774L200.578 37.9542H190.333L188.108 43.1774H184.211L193.734 21.3794ZM199.18 34.5828L195.435 25.926L191.725 34.5828H199.18Z" fill="#005596"/>
<path d="M210.49 21.5366H214.019L225.626 36.5148V21.5366H229.368V43.1803H226.175L214.238 27.7837V43.1803H210.49V21.5366Z" fill="#005596"/>
<path d="M40.4384 11.6393C40.111 11.4928 39.7554 11.4199 39.3968 11.4256C41.4534 11.9568 43.0382 14.7584 43.0293 17.8181C43.0204 20.8778 41.3881 23.2639 39.2988 23.1392C39.4908 23.205 39.6902 23.2469 39.8924 23.2639C41.7947 23.4093 43.2904 21.1865 43.424 18.2811C43.5575 15.3757 42.32 12.4524 40.4384 11.6393Z" fill="#005596"/>
<path d="M39.6638 17.8363L36.9453 13.6963L39.6638 19.5605L42.035 15.4324L39.6638 17.8363Z" fill="#005596"/>
<path d="M21.5576 13.8442H0L21.5576 47.8693V13.8442Z" fill="#005596"/>
<path d="M22.6855 6.40733V49.6531L33.8234 67.228V0L22.6855 6.40733Z" fill="#005596"/>
<path d="M45.6461 48.5729L53.7421 35.7938C51.1268 36.3729 48.5498 37.1133 46.026 38.0107V37.2451C48.851 36.0996 51.7417 35.1235 54.6828 34.3218L57.0778 30.538C53.3016 31.3745 49.6048 32.5362 46.0289 34.0102V33.2653C49.9365 31.4694 53.9853 29.9984 58.1343 28.8672L60.7044 24.8162C55.6413 25.8957 50.7178 27.5485 46.0289 29.7426V29.0007C51.0878 26.4053 56.4121 24.3635 61.9093 22.9109L64.1796 19.3318C57.8554 20.6582 51.7472 22.8607 46.0319 25.8757V25.1426C52.1501 21.6585 58.7009 18.9963 65.5151 17.2247L67.6459 13.8593C61.66 15.0257 54.0448 17.5393 46.023 22.2016V21.4834C50.9215 18.4117 56.125 15.8557 61.5502 13.8564H46.023V7.86155L35.3926 1.44531V3.16363L44.5302 8.66877V50.3565H229.601V48.5759L45.6461 48.5729Z" fill="#8DC63F"/>
</g>
<defs>
<clipPath id="clip0_1606_731">
<rect width="229.602" height="67.228" fill="white"/>
</clipPath>
</defs>
</svg>
