<?xml version="1.0" encoding="utf-8"?>
<!-- Generator: Adobe Illustrator 22.0.1, SVG Export Plug-In . SVG Version: 6.00 Build 0)  -->
<svg version="1.1" id="Layer_1" xmlns="http://www.w3.org/2000/svg" xmlns:xlink="http://www.w3.org/1999/xlink" x="0px" y="0px"
	 width="158.5px" height="139.6px" viewBox="0 0 158.5 139.6" style="enable-background:new 0 0 158.5 139.6;" xml:space="preserve"
	>
<style type="text/css">
	.st0{fill:none;}
	.st1{fill:#FFFFFF;}
	.st2{fill:#006AB4;}
	.st3{fill:#EFE12C;}
	.st4{fill:url(#SVGID_1_);}
</style>
<title>logo-light</title>
<g>
	<path class="st0" d="M120.5,126.6L120.5,126.6L120.5,126.6c-1.3-0.1-2.4,0.8-2.7,2.1h5.2C122.9,127.4,121.7,126.5,120.5,126.6z"/>
	<path class="st0" d="M25.6,126.6L25.6,126.6L25.6,126.6c-1.1-0.1-2,0.6-2.1,1.6v0.2c0,1.3,1.1,2.4,2.5,2.4l0,0
		c1.1,0.1,2-0.8,2.1-1.9l0,0v-0.1C28,127.5,26.9,126.5,25.6,126.6z"/>
	<path class="st0" d="M41.5,126.6c-1.7,0-3.1,1.4-3.1,3.1v0.2c0,1.9,1.1,3.9,3.2,3.9c1.7,0,3.1-1.4,3.1-3.1v-0.2l0,0
		C44.8,128.5,43.8,126.6,41.5,126.6z"/>
	<path class="st0" d="M66.3,126.6c-1.7,0-3.1,1.4-3.1,3.1v0.2c0,1.9,1.1,3.9,3.2,3.9c1.7,0,3.1-1.4,3.1-3.1v-0.2l0,0
		C69.5,128.5,68.5,126.6,66.3,126.6z"/>
	<path class="st0" d="M16,126.6L16,126.6c-1.3-0.1-2.4,0.8-2.6,2.1h5.1C18.4,127.4,17.2,126.5,16,126.6z"/>
	<path class="st0" d="M141.2,126.6c-1.7,0-3.1,1.4-3.1,3.1v0.2c0,1.9,1.1,3.9,3.2,3.9c1.7,0,3.1-1.4,3.1-3.1v-0.2l0,0
		C144.5,128.5,143.5,126.6,141.2,126.6z"/>
	<path class="st0" d="M152.5,126.6c-1.7,0-3.1,1.4-3.1,3.1v0.2c0,1.9,1.1,3.9,3.2,3.9c1.7,0,3.1-1.4,3.1-3.1v-0.2l0,0
		C155.8,128.5,154.7,126.6,152.5,126.6z"/>
	<path d="M9.2,132l-2.9-3.7c1.7-0.3,3.1-1.8,3.2-3.5c0-1.8-1.5-3.2-4.2-3.2l0,0H0.5v0.1c1,0.4,0.9,1.9,0.9,2.8v7.6
		c0,0.9,0.1,2.4-0.9,2.8v0.1h3.8v-0.1c-1-0.4-0.9-1.8-0.9-2.8v-9c0.5-0.1,0.9-0.1,1.4-0.2H5h0.1c1.3,0,2.3,1,2.4,2.3
		c0,1.9-1.9,2.6-3.5,2.9l1.9,2.8l2.5,3c0.6,0.7,1.4,1.1,2.3,1h1.9C11.2,134.1,10.1,133.1,9.2,132z"/>
	<path d="M20.6,132.7c-1,0.7-2.1,1.1-3.3,1.1H17c-2.1-0.1-3.7-1.8-3.7-3.9h7.3c0-0.2,0-0.3,0-0.5c-0.1-2.4-2.2-4.2-4.5-4.1h-0.3l0,0
		c-2.6,0.1-4.7,2.2-4.6,4.8c0,2.8,2.4,5,5.8,5c1,0,1.9-0.2,2.8-0.5L20.6,132.7L20.6,132.7z M16,126.6L16,126.6
		c1.3-0.1,2.4,0.8,2.5,2.1h-5.1C13.6,127.4,14.7,126.5,16,126.6z"/>
	<path d="M31.3,126.2l0.5-1l-6.1,0.1c-2.1,0-4.3,1.1-4.3,3.4c0.1,1.5,1.2,2.8,2.7,3.1c-0.4,0.2-1.6,0.5-1.6,1.1l0,0
		c0,0.8,0.7,1.4,1.5,1.4h1.4c1.2,0,4.1,0.2,4.1,1.9s-2.2,2.1-3.6,2.1c-1.3,0-3.3-0.3-3.3-2c0-0.5,0.3-0.9,0.8-0.9
		c-0.4-0.2-0.8-0.3-1.1-0.3c-1,0-1.9,0.5-1.9,1.6c0,1.7,2.4,2.9,5.6,2.9s5.7-1.3,5.7-3.5c0-2-1.9-3-5.4-3c-0.2,0-1.2,0-1.2-0.4
		s0.5-0.5,0.8-0.5c1.8-0.2,4.3-0.9,4.3-3.2c0-1-0.5-2-1.4-2.5c0.7,0.1,1.4,0.2,2.1,0.3C31.1,126.7,31.2,126.6,31.3,126.2z M28,128.9
		L28,128.9c-0.1,1.1-1,2-2.1,1.9l0,0c-1.3,0-2.4-1.1-2.5-2.4v-0.2c0.1-1,1-1.7,2-1.6h0.1l0,0c1.3,0,2.4,1,2.4,2.2v0.1H28z"/>
	<path d="M35.4,123.1c0-0.7-0.5-1.2-1.2-1.2s-1.3,0.5-1.3,1.2l0,0c0,0.7,0.6,1.3,1.3,1.3C34.9,124.3,35.4,123.7,35.4,123.1z"/>
	<path d="M35.2,132.6v-7.4h-0.1c-0.4,0.3-0.8,0.4-1.3,0.3h-1.2v0.1c0.9,0.5,0.8,1.2,0.8,2.2v4.8c0,0.9,0.1,1.7-0.8,2.2v0.1H36v-0.1
		C35.1,134.3,35.2,133.5,35.2,132.6z"/>
	<path d="M41.8,125.3h-0.4c-2.8,0-5,2.2-5,5l0,0v0.1l0,0c0.1,2.7,2.4,4.8,5.1,4.7h0.1l0,0c2.8,0,5.1-2.2,5.2-5V130l0,0
		C46.7,127.3,44.4,125.2,41.8,125.3z M44.8,130.5v0.2c0,1.7-1.4,3.1-3.1,3.1c-2.1,0-3.2-2-3.2-3.9v-0.2c0-1.7,1.4-3.1,3.1-3.1
		C43.8,126.6,44.8,128.5,44.8,130.5L44.8,130.5z"/>
	<path d="M56.1,132.6v-2.9c0.1-1-0.1-2.1-0.5-3c-0.7-0.9-1.9-1.4-3.1-1.4c-1.2,0-2.2,0.6-2.9,1.5v-1.5h-0.1
		c-0.4,0.2-0.9,0.3-1.4,0.3l0,0h-1.2v0.1c0.9,0.5,0.8,1.2,0.8,2.2v4.8c0,0.9,0.1,1.7-0.8,2.2v0.1h3.4v-0.1c-0.9-0.5-0.8-1.2-0.8-2.2
		V129c0-1.2,0.3-2.4,2.1-2.4s2.4,1.1,2.4,3.3v2.7c0,0.9,0.1,1.7-0.8,2.2v0.1h3.4v-0.1C56,134.3,56.1,133.5,56.1,132.6z"/>
	<path d="M66.5,125.3h-0.4c-2.8,0-5,2.2-5,5l0,0v0.1l0,0c0.1,2.7,2.4,4.8,5.1,4.7h0.1l0,0c2.8,0,5.1-2.2,5.2-5V130l0,0
		C71.4,127.3,69.2,125.2,66.5,125.3z M69.5,130.5v0.2c0,1.7-1.4,3.1-3.1,3.1c-2.1,0-3.2-2-3.2-3.9v-0.2c0-1.7,1.4-3.1,3.1-3.1
		C68.5,126.6,69.5,128.5,69.5,130.5L69.5,130.5z"/>
	<path d="M76.6,122.4c0.4,0,0.7,0.1,1,0.3l1.4-1.6l-1.4-0.1c-1.3-0.1-2.6,0.4-3.6,1.3c-0.6,0.7-0.9,1.7-0.8,2.7v0.5l-1,1.3h1v5.7
		c0,0.9,0.1,1.7-0.8,2.2v0.1H76v-0.1c-1-0.5-0.9-1.9-0.9-2.9v-0.1v-5h2c0.3,0,0.6,0.1,0.8,0.3H78v-1.8h-0.1l-0.3,0.1h-2.3V124
		C75.2,123,75.4,122.4,76.6,122.4z"/>
	<path d="M98.5,121.5L98.5,121.5c1.5,0.6,0.9,2.2,0.5,3.4l-2.3,7.3l-2.8-8.7c-0.3-0.6-0.4-1.3-0.3-2h-2.8v0.1
		c1.1,0.6,0.7,1.9,0.3,3.1l-2.4,7.7l-3-9.4c-0.2-0.5-0.3-1-0.2-1.5h-3v0.1c1,0.7,1.3,2,1.7,3.1l2.4,7.5c0.7,2.1,0.9,1.9,2.7,3.3l0,0
		l3.2-10.2l2.2,7c0.7,2.1,0.8,2,2.7,3.2l4.3-13.9L98.5,121.5L98.5,121.5z"/>
	<path d="M107.9,131.3v-3c0-2.4-1.7-3.1-3.9-3.1l-1.3,0.1l-1.4,2c0.8-0.5,1.8-0.8,2.7-0.8c0.8,0,1.9,0.3,1.9,1.3c0,2.2-6,0.5-6,4.2
		v0.1c0.2,1.7,1.7,3,3.4,2.9c0.3,0,0.7,0,1-0.1l1.2-1.5c-0.5,0.2-1,0.3-1.5,0.3c-1.1,0-2.2-0.4-2.2-1.7c0-1.2,1.1-1.5,2.1-1.7
		c0.7-0.1,1.3-0.3,1.9-0.6v3.2c0,1.6,1.3,2,2.7,2.1l0,0l0.9-1.3C107.9,133.5,107.9,132.9,107.9,131.3z"/>
	<path d="M114.5,125.5h-1.9v-3h-0.8c0,1.9-0.5,3.3-2.4,3.6v0.7h1.4v4.2c0,0.8-0.3,4,2.8,4c0.2,0,0.4,0,0.6-0.1l1.1-1.4
		c-0.3,0.1-0.5,0.2-0.8,0.2c-2.2,0-1.9-2.1-1.9-2.8l0,0v-4h1.2c0.5,0,1.1,0,1.5,0.4h0.1v-1.8h-0.1
		C115,125.5,114.7,125.6,114.5,125.5z"/>
	<path d="M121.7,133.8h-0.3c-2.1-0.1-3.7-1.8-3.7-3.9h7.3c0-0.2,0-0.3,0-0.5c-0.1-2.4-2.2-4.2-4.5-4.1h-0.4l0,0
		c-2.6,0.1-4.7,2.2-4.6,4.8c0,2.8,2.4,5,5.8,5c1,0,1.9-0.2,2.8-0.5l1-1.9H125C124.1,133.4,122.9,133.8,121.7,133.8z M120.4,126.6
		L120.4,126.6L120.4,126.6c1.3-0.1,2.5,0.8,2.6,2.1h-5.2C118,127.4,119.1,126.5,120.4,126.6z"/>
	<path d="M128.5,126.8v-1.5h-0.1c-0.4,0.2-0.8,0.3-1.2,0.3l0,0h-1.3v0.1c0.9,0.5,0.8,1.2,0.8,2.2v4.8c0,0.9,0.1,1.7-0.8,2.2v0.1h3.4
		v-0.1c-0.9-0.5-0.8-1.2-0.8-2.2v-2.8c0-2.1,0.6-2.9,2.2-2.9c0.3,0,0.7,0.1,0.9,0.3v-1.9l-0.7-0.1
		C129.9,125.3,128.9,125.9,128.5,126.8z"/>
	<path d="M134.8,132.6v-11.4h-0.1c-0.4,0.3-0.8,0.4-1.3,0.3l0,0h-1.2v0.1c0.9,0.5,0.7,1.2,0.7,2.2v8.8c0,0.9,0.1,1.7-0.7,2.2v0.1
		h3.3v-0.1C134.7,134.3,134.8,133.5,134.8,132.6z"/>
	<path d="M141.5,125.3h-0.4c-2.8,0-5,2.2-5,5l0,0v0.1l0,0c0.1,2.7,2.4,4.8,5.1,4.7h0.1l0,0c2.8,0,5.1-2.2,5.2-5V130l0,0
		C146.4,127.3,144.1,125.2,141.5,125.3z M144.4,130.5v0.2c0,1.7-1.4,3.1-3.1,3.1c-2.1,0-3.2-2-3.2-3.9v-0.2c0-1.7,1.4-3.1,3.1-3.1
		C143.5,126.6,144.5,128.5,144.4,130.5L144.4,130.5z"/>
	<path d="M152.8,125.3h-0.4c-2.8,0-5,2.2-5,5l0,0v0.1l0,0c0.1,2.7,2.4,4.8,5.1,4.7h0.1l0,0c2.8,0,5.1-2.2,5.2-5V130l0,0
		C157.7,127.3,155.4,125.2,152.8,125.3z M155.8,130.5v0.2c0,1.7-1.4,3.1-3.1,3.1c-2.1,0-3.2-2-3.2-3.9v-0.2c0-1.7,1.4-3.1,3.1-3.1
		C154.7,126.6,155.8,128.5,155.8,130.5L155.8,130.5z"/>
	<path class="st1" d="M150,41.9c5.2-4.3,8.5-4.8,8.5-4.8L138,36.8c0,0-9,0-11.7,0.3c-3.2,0.3-6.4,1-9.5,1.9
		c-1.9,0.6-4.3,1.9-6.3,2.5c-1.5,0.5-3.1,0.6-4.7,0.3c-1.3-0.3-3.3-0.8-3-9.2l0.2-11.2c0,0-7.4,4-13.8,0.8c-2.6-1.3-4.6-3.8-6.4-7.8
		C80.9,9.8,79.7,5,79.4,0c-0.4,5-1.6,9.8-3.6,14.4c-1.8,4-3.8,6.5-6.4,7.8c-6.4,3.2-13.8-0.8-13.8-0.8l0.2,11.2c0.3,8.4-1.7,9-3,9.2
		c-1.6,0.3-3.2,0.2-4.7-0.3c-2-0.6-4.4-1.9-6.3-2.5c-3.1-0.9-6.3-1.6-9.6-1.9c-2.7-0.3-11.7-0.3-11.7-0.3L0,36.9
		c0,0,3.3,0.5,8.5,4.8c1.2,1,6.9,5.9,8.5,7.3c4.1,3.6,8.6,7.9,12.6,12.1C40.5,72.4,51.9,86.6,59.2,96c1.9,2.5,3.5,4.6,4.8,6.3
		c1,1.4,2.1,2.7,3.3,4c1.2,1.1,3.1,1.1,4.3-0.1c0.4-0.4,0.7-0.8,1-1.3c1.1-1.8,3.1-4.6,6.7-10c3.5,5.4,5.5,8.2,6.6,10
		c0.3,0.5,0.6,0.9,1,1.4c1.2,1.2,3.1,1.3,4.4,0.1c0.6-0.6,1.3-1.3,1.8-2c1.3-1.8,3.5-4.7,6.2-8.2c7.3-9.4,18.7-23.6,29.5-34.9
		c4.1-4.2,8.5-8.4,12.6-12.1C143.1,47.8,148.8,42.8,150,41.9z M123.5,62.3c-9.8,10.4-20.2,23.4-26.8,32.1c-2.5,3.3-4.5,5.9-5.7,7.6
		c-0.2,0.3-0.4,0.5-0.7,0.7c-0.7,0.5-1.6,0.3-2.1-0.3c-0.3-0.4-0.6-0.8-0.9-1.3c-1.1-1.8-4-6.4-7.7-12.2l-0.2-0.4l0,0L79,88.8
		c-3.7,5.8-6.6,10.4-7.7,12.2c-0.3,0.4-0.6,0.9-0.9,1.3c-0.5,0.6-1.4,0.8-2.1,0.3c-0.3-0.2-0.5-0.4-0.7-0.6
		c-1.2-1.7-3.2-4.3-5.7-7.6C55.3,85.8,45,72.7,35.2,62.3c-6.6-7-13.4-14.1-18.2-18.1s-5.6-4-5.6-4h17c6.3-0.2,12.3,3.9,15.9,6.9
		c2.2,2,4.2,4.1,6,6.5c6.8,8.8,23.9,32.3,23.9,32.3c0.5-0.9,1.1-1.8,1.7-2.7c-3.2-4.9-6.7-10-10.2-14.9c-4.8-7-9.9-13.7-15.4-20.2
		c-1.2-1.4-2.6-2.8-4-4c0,0,3.8,2.5,7.2,2.2c1.2-0.1,6.3-0.2,5.9-6.9v-13c0,0,15.5,8.2,20-14.1c0-0.1,0-0.3,0-0.4c0,0.1,0,0.3,0,0.4
		c4.5,22.3,20,14,20,14v13c-0.4,6.7,4.7,6.8,5.9,6.9c3.4,0.3,7.2-2.2,7.2-2.2c-1.4,1.2-2.8,2.6-4,4c-5.6,6.4-10.9,13.2-15.8,20.2
		c-3.4,4.9-7,10-10.2,14.9c0.6,0.9,1.2,1.8,1.7,2.7c0,0,17.1-23.5,23.9-32.3c1.8-2.3,3.8-4.5,6-6.5c3.6-3,9.6-7.1,15.8-7h17
		c0,0-0.9,0-5.6,4S130,55.3,123.5,62.3z"/>
	<path class="st0" d="M79.5,12.4c0-0.1,0-0.3,0-0.4"/>
	<path class="st2" d="M147.2,40.2h-17c-6.2-0.2-12.2,3.9-15.8,7c-2.2,2-4.2,4.1-6,6.5C101.6,62.5,84.5,86,84.5,86
		c-0.5-0.9-1.1-1.8-1.7-2.7c3.2-4.8,6.7-10,10.2-14.9c4.9-7,10.1-13.8,15.8-20.2c1.2-1.4,2.6-2.8,4-4c0,0-3.8,2.5-7.2,2.2
		c-1.2-0.1-6.3-0.2-5.9-6.9v-13c0,0-15.5,8.3-20-14c-4.5,22.3-20,14.1-20,14.1v13c0.4,6.7-4.7,6.8-5.9,6.9c-3.4,0.3-7.2-2.2-7.2-2.2
		c1.4,1.2,2.8,2.6,4,4c5.5,6.4,10.7,13.2,15.4,20.2c3.5,4.9,7,10,10.2,14.9c-0.6,0.9-1.1,1.8-1.7,2.7c0,0-17.1-23.5-23.9-32.3
		c-1.8-2.3-3.8-4.5-6-6.5c-3.6-3-9.6-7.1-15.9-6.9h-17c0,0,0.8,0,5.6,4s11.6,11.1,18.2,18.1c9.5,10.2,19.8,23.3,26.4,32
		c2.5,3.3,4.5,5.9,5.7,7.6c0.2,0.3,0.4,0.5,0.7,0.6c0.7,0.5,1.6,0.3,2.1-0.3c0.3-0.4,0.6-0.8,0.9-1.3c1.1-1.8,4-6.4,7.7-12.2
		l0.2-0.4l0,0l0.2,0.4c3.7,5.8,6.6,10.4,7.7,12.2c0.3,0.4,0.6,0.9,0.9,1.3c0.5,0.6,1.4,0.8,2.1,0.3c0.3-0.2,0.5-0.4,0.7-0.7
		c1.2-1.6,3.2-4.3,5.7-7.6c6.6-8.7,17-21.8,26.8-32.1c6.6-7,13.5-14.2,18.2-18.1S147.2,40.2,147.2,40.2z M58.6,50.2
		c1.8-0.3,3.8-2.1,4.7-4.1c0.9-1.8,0.9-4.5,1-6.7c0.1-1.2,0-7.2,0-7.2c8.8,2.3,13.2-5.1,15.1-8.5l0,0l0,0c1.9,3.4,6.3,10.8,15.1,8.5
		c0,0-0.1,6,0,7.2c0.1,2.3,0.1,4.9,1,6.7c0.9,2,2.9,3.8,4.7,4.1l0,0l0,0C99.9,50.5,88.2,65,79.4,78l0,0
		C70.4,64.9,58.6,50.2,58.6,50.2z"/>
	<path class="st3" d="M79.4,23.7L79.4,23.7L79.4,23.7L79.4,23.7z"/>
	<path class="st3" d="M100.2,50.2L100.2,50.2L100.2,50.2z"/>
	<path class="st3" d="M79.4,78c8.8-13,20.6-27.5,20.8-27.8l0,0c-1.7-0.3-3.7-2.2-4.7-4.1c-0.9-1.8-0.9-4.5-1-6.7
		c-0.1-1.2,0-7.2,0-7.2c-8.8,2.3-13.2-5.1-15.1-8.5l0,0c-1.9,3.4-6.3,10.8-15.1,8.5c0,0,0.1,6,0,7.2c-0.1,2.3-0.1,4.9-1,6.7
		c-0.9,2-2.9,3.8-4.7,4.1C58.6,50.2,70.4,64.9,79.4,78L79.4,78z M64.9,51.9c0,0,0.9-1.3,1.3-1.9c3.8,4.7,7.3,9.6,10.4,14.7L76,63.5
		c-2.2-5.7-4.7-11.3-7.5-16.7l1.7-2.4c2.8,5.6,5.1,11.4,7.1,17.3l0.4,1l-0.3-1.2c-3.6-15.6-5.2-20-5.2-20l0.1-0.1l1.9-2.8l4.3,19.1
		c0,0,0.1-6.1-0.5-24.2c0.4-0.6,1.2-1.8,1.5-2.3c0.2,0.5,1.1,1.7,1.5,2.3c-0.6,18.1-0.5,24.2-0.5,24.2l4.3-19.2l1.9,2.8l0.1,0.1
		c0,0-1.6,4.5-5.2,20l-0.3,1.2l0.4-1c2-5.9,4.3-11.7,7.1-17.3l1.7,2.4c-2.8,5.5-5.4,11.1-7.6,16.8l-0.5,1.2
		c3.2-5.1,6.6-10,10.4-14.7l0,0l0,0l0,0l1.3,1.8c-0.8,1-8.3,10.3-14.5,19.4C73.1,62.1,65.7,52.9,64.9,51.9z"/>
	
		<linearGradient id="SVGID_1_" gradientUnits="userSpaceOnUse" x1="-594.0418" y1="301.6956" x2="-593.0418" y2="301.6956" gradientTransform="matrix(0 34.94 -44.1 0 13384.1758 20790.6309)">
		<stop  offset="0" style="stop-color:#EFE12B"/>
		<stop  offset="6.000000e-02" style="stop-color:#E7DF2F"/>
		<stop  offset="0.16" style="stop-color:#D0D839"/>
		<stop  offset="0.28" style="stop-color:#AFCE47"/>
		<stop  offset="0.4" style="stop-color:#96C84C"/>
		<stop  offset="0.54" style="stop-color:#74BF54"/>
		<stop  offset="0.57" style="stop-color:#6ABC54"/>
		<stop  offset="0.68" style="stop-color:#4EB553"/>
		<stop  offset="0.79" style="stop-color:#39AF52"/>
		<stop  offset="0.9" style="stop-color:#2DAC52"/>
		<stop  offset="1" style="stop-color:#29AB52"/>
	</linearGradient>
	<path class="st4" d="M79.4,78c8.8-13,20.6-27.5,20.8-27.8l0,0c-1.7-0.3-3.7-2.2-4.7-4.1c-0.9-1.8-0.9-4.5-1-6.7
		c-0.1-1.2,0-7.2,0-7.2c-8.8,2.3-13.2-5.1-15.1-8.5l0,0c-1.9,3.4-6.3,10.8-15.1,8.5c0,0,0.1,6,0,7.2c-0.1,2.3-0.1,4.9-1,6.7
		c-0.9,2-2.9,3.8-4.7,4.1C58.6,50.2,70.4,64.9,79.4,78L79.4,78z M64.9,51.9c0,0,0.9-1.3,1.3-1.9c3.8,4.7,7.3,9.6,10.4,14.7L76,63.5
		c-2.2-5.7-4.7-11.3-7.5-16.7l1.7-2.4c2.8,5.6,5.1,11.4,7.1,17.3l0.4,1l-0.3-1.2c-3.6-15.6-5.2-20-5.2-20l0.1-0.1l1.9-2.8l4.3,19.1
		c0,0,0.1-6.1-0.5-24.2c0.4-0.6,1.2-1.8,1.5-2.3c0.2,0.5,1.1,1.7,1.5,2.3c-0.6,18.1-0.5,24.2-0.5,24.2l4.3-19.2l1.9,2.8l0.1,0.1
		c0,0-1.6,4.5-5.2,20l-0.3,1.2l0.4-1c2-5.9,4.3-11.7,7.1-17.3l1.7,2.4c-2.8,5.5-5.4,11.1-7.6,16.8l-0.5,1.2
		c3.2-5.1,6.6-10,10.4-14.7l0,0l0,0l0,0l1.3,1.8c-0.8,1-8.3,10.3-14.5,19.4C73.1,62.1,65.7,52.9,64.9,51.9z"/>
	<path class="st1" d="M92.6,50c-3.8,4.7-7.3,9.6-10.4,14.7l0.5-1.2c2.2-5.7,4.8-11.4,7.6-16.8l-1.7-2.4c-2.8,5.6-5.1,11.4-7.1,17.3
		l-0.4,1l0.3-1.2c3.6-15.5,5.2-20,5.2-20l-0.1-0.1l-1.9-2.8l-4.3,19.2c0,0,0-6.1,0.5-24.2c-0.4-0.6-1.2-1.8-1.5-2.3
		c-0.2,0.5-1.1,1.7-1.5,2.3c0.6,18.1,0.5,24.2,0.5,24.2L74,38.6l-1.9,2.8L72,41.5c0,0,1.6,4.4,5.2,20l0.3,1.2l-0.4-1
		c-2-5.9-4.3-11.7-7.1-17.3l-1.7,2.4c2.8,5.4,5.3,11,7.5,16.7l0.5,1.2c-3.1-5.1-6.6-10-10.4-14.7c-0.4,0.6-1.3,1.9-1.3,1.9
		c0.8,1,8.3,10.3,14.5,19.4c6.2-9.2,13.7-18.4,14.5-19.4L92.6,50z"/>
	<polygon class="st1" points="92.5,50 92.6,50 92.6,50 	"/>
</g>
</svg>
