<?xml version="1.0" encoding="UTF-8" standalone="no"?>


<svg
   xmlns:dc="http://purl.org/dc/elements/1.1/"
   xmlns:cc="http://creativecommons.org/ns#"
   xmlns:rdf="http://www.w3.org/1999/02/22-rdf-syntax-ns#"
   xmlns:svg="http://www.w3.org/2000/svg"
   xmlns="http://www.w3.org/2000/svg"
   version="1.1"
   width="892.91339"
   height="291.96851"
   id="svg7459">
  <defs
     id="defs7461">
    <clipPath
       id="clipPath7317">
      <path
         d="m 468.529,28.143 93.337,0 0,31.54 -93.337,0 0,-31.54 z"
         id="path7319" />
    </clipPath>
  </defs>
  <metadata
     id="metadata7464">
    <rdf:RDF>
      <cc:Work
         rdf:about="">
        <dc:format>image/svg+xml</dc:format>
        <dc:type
           rdf:resource="http://purl.org/dc/dcmitype/StillImage" />
        <dc:title></dc:title>
      </cc:Work>
    </rdf:RDF>
  </metadata>
  <g
     transform="translate(48.84928,-395.99854)"
     id="layer1">
    <g
       transform="matrix(7.7134811,0,0,7.7134811,-2489.4384,-3542.3443)"
       id="g7544">
      <path
         d="m 352.61003,537.17791 -11.80875,0 0,-11.80875 11.80875,0 0,11.80875 z"
         id="path7289"
         style="fill:#1a64b7;fill-opacity:1;fill-rule:nonzero;stroke:none" />
      <g
         transform="matrix(1.25,0,0,-1.25,327.73878,525.36841)"
         id="g7291">
        <path
           d="M 0,0 9.003,0 -8.699,-17.465 0,0 z"
           id="path7293"
           style="fill:#ed1c24;fill-opacity:1;fill-rule:nonzero;stroke:none" />
      </g>
      <g
         transform="matrix(1.25,0,0,-1.25,339.74815,526.10091)"
         id="g7295">
        <path
           d="M 0,0 0,-9.017 -17.731,-17.493 0,0 z"
           id="path7297"
           style="fill:#1a64b7;fill-opacity:1;fill-rule:nonzero;stroke:none" />
      </g>
      <path
         d="m 327.93878,512.50666 11.80875,0 0,11.80875 -11.80875,0 0,-11.80875 z"
         id="path7299"
         style="fill:#ed1c24;fill-opacity:1;fill-rule:nonzero;stroke:none" />
      <g
         transform="matrix(1.25,0,0,-1.25,326.88678,524.71816)"
         id="g7301">
        <path
           d="M 0,0 -7.306,-14.668 0,8.282 0,0 z"
           id="path7303"
           style="fill:#ed1c24;fill-opacity:1;fill-rule:nonzero;stroke:none" />
      </g>
      <g
         transform="matrix(1.25,0,0,-1.25,322.0294,547.00936)"
         id="g7305">
        <path
           d="m 0,0 14.692,7.024 8.267,0 L 0,0 z"
           id="path7307"
           style="fill:#1a64b7;fill-opacity:1;fill-rule:nonzero;stroke:none" />
      </g>
      <g
         transform="matrix(1.25,0,0,-1.25,366.71878,537.17756)"
         id="g7309">
        <path
           d="m 0,0 -2.268,0 -7.235,19.737 5.009,0 3.744,-10.242 4.053,10.23 2.541,0 4.14,-10.338 3.76,10.35 4.927,0 L 11.457,0 9.2,0 4.584,11.277 0,0 z"
           id="path7311"
           style="fill:#1a64b7;fill-opacity:1;fill-rule:nonzero;stroke:none" />
      </g>
      <g
         transform="matrix(1.25,0,0,-1.25,-269.53872,585.64666)"
         id="g7313">
        <g
           clip-path="url(#clipPath7317)"
           id="g7315">
          <g
             transform="translate(541.9651,53.3889)"
             id="g7321">
            <path
               d="m 0,0 c -2.827,1.256 -4.513,1.742 -6.17,1.742 -1.743,0 -2.856,-0.628 -2.856,-1.6 0,-2.942 9.911,-2.114 9.911,-8.911 0,-3.742 -3.142,-5.912 -7.483,-5.912 -3.399,0 -5.084,0.886 -7.026,1.885 l 0,4.198 c 2.798,-1.856 4.512,-2.513 6.654,-2.513 1.857,0 2.857,0.657 2.857,1.799 0,3.199 -9.911,2.029 -9.911,9.026 0,3.369 2.914,5.598 7.426,5.598 2.17,0 4.141,-0.457 6.598,-1.514 L 0,0"
               id="path7323"
               style="fill:#1a64b7;fill-opacity:1;fill-rule:nonzero;stroke:none" />
          </g>
          <g
             transform="translate(554.5411,58.5119)"
             id="g7325">
            <path
               d="m 0,0 c 4.455,0 6.455,-3.114 6.455,-5.769 0,-2.743 -1.942,-5.885 -6.427,-5.885 l -3.856,0 0,-8.083 -4.855,0 L -8.683,0 0,0 z m -3.828,-8.083 2.257,0 c 2.228,0 3.027,0.8 3.027,2.257 0,1.656 -0.942,2.256 -3.57,2.256 l -1.714,0 0,-4.513"
               id="path7327"
               style="fill:#1a64b7;fill-opacity:1;fill-rule:nonzero;stroke:none" />
          </g>
          <path
             d="m 512.035,92.284 -4.723,0 0,4.724 4.723,0 0,-4.724 z"
             id="path7329"
             style="fill:#1a64b7;fill-opacity:1;fill-rule:nonzero;stroke:none" />
          <g
             transform="translate(502.0866,97.0082)"
             id="g7331">
            <path
               d="M 0,0 4.501,0 -4.35,-8.732 0,0 z"
               id="path7333"
               style="fill:#ed1c24;fill-opacity:1;fill-rule:nonzero;stroke:none" />
          </g>
          <g
             transform="translate(506.8906,96.7151)"
             id="g7335">
            <path
               d="M 0,0 0,-4.508 -8.865,-8.746 0,0 z"
               id="path7337"
               style="fill:#1a64b7;fill-opacity:1;fill-rule:nonzero;stroke:none" />
          </g>
          <path
             d="m 502.167,102.153 4.724,0 0,-4.724 -4.724,0 0,4.724 z"
             id="path7339"
             style="fill:#ed1c24;fill-opacity:1;fill-rule:nonzero;stroke:none" />
          <g
             transform="translate(501.746,97.2682)"
             id="g7341">
            <path
               d="M 0,0 -3.653,-7.334 0,4.141 0,0 z"
               id="path7343"
               style="fill:#ed1c24;fill-opacity:1;fill-rule:nonzero;stroke:none" />
          </g>
          <g
             transform="translate(499.8031,88.3518)"
             id="g7345">
            <path
               d="m 0,0 7.346,3.512 4.133,0 L 0,0 z"
               id="path7347"
               style="fill:#1a64b7;fill-opacity:1;fill-rule:nonzero;stroke:none" />
          </g>
          <g
             transform="translate(517.6786,92.2845)"
             id="g7349">
            <path
               d="m 0,0 -1.134,0 -3.618,9.868 2.505,0 1.872,-5.12 2.027,5.115 1.27,0 2.07,-5.17 1.88,5.175 2.463,0 L 5.728,0 4.6,0 2.292,5.639 0,0 z"
               id="path7351"
               style="fill:#1a64b7;fill-opacity:1;fill-rule:nonzero;stroke:none" />
          </g>
          <g
             transform="translate(534.1581,99.5913)"
             id="g7353">
            <path
               d="m 0,0 c -1.414,0.628 -2.256,0.871 -3.085,0.871 -0.871,0 -1.428,-0.314 -1.428,-0.8 0,-1.471 4.956,-1.057 4.956,-4.455 0,-1.871 -1.571,-2.956 -3.742,-2.956 -1.7,0 -2.542,0.442 -3.513,0.942 l 0,2.099 c 1.399,-0.928 2.256,-1.256 3.327,-1.256 0.929,0 1.429,0.328 1.429,0.899 0,1.599 -4.956,1.014 -4.956,4.513 0,1.685 1.457,2.799 3.713,2.799 1.085,0 2.071,-0.228 3.299,-0.757 L 0,0"
               id="path7355"
               style="fill:#1a64b7;fill-opacity:1;fill-rule:nonzero;stroke:none" />
          </g>
          <g
             transform="translate(540.4462,102.1528)"
             id="g7357">
            <path
               d="m 0,0 c 2.227,0 3.228,-1.557 3.228,-2.885 0,-1.371 -0.972,-2.942 -3.214,-2.942 l -1.928,0 0,-4.041 -2.428,0 0,9.868 L 0,0 z m -1.914,-4.041 1.128,0 c 1.114,0 1.514,0.399 1.514,1.128 0,0.828 -0.471,1.128 -1.785,1.128 l -0.857,0 0,-2.256"
               id="path7359"
               style="fill:#1a64b7;fill-opacity:1;fill-rule:nonzero;stroke:none" />
          </g>
        </g>
      </g>
    </g>
  </g>
</svg>
